STARTFONT 2.1
COMMENT
COMMENT Converted from OpenType font "Roboto-ThinItalic.ttf" by "otf2bdf 3.0".
COMMENT
FONT -FreeType-Roboto Thin-Medium-I-Normal--77-560-100-100-P-375-ISO10646-1
SIZE 56 100 100
FONTBOUNDINGBOX 144 101 -56 -21
STARTPROPERTIES 19
FOUNDRY "FreeType"
FAMILY_NAME "Roboto Thin"
WEIGHT_NAME "Medium"
SLANT "I"
SETWIDTH_NAME "Normal"
ADD_STYLE_NAME ""
PIXEL_SIZE 77
POINT_SIZE 560
RESOLUTION_X 100
RESOLUTION_Y 100
SPACING "P"
AVERAGE_WIDTH 375
CHARSET_REGISTRY "ISO10646"
CHARSET_ENCODING "1"
FONT_ASCENT 72
FONT_DESCENT 19
COPYRIGHT "Copyright 2011 The Roboto Project Authors (https://github.com/googlefonts/roboto-classic)"
_OTF_FONTFILE "Roboto-ThinItalic.ttf"
_OTF_PSNAME "Roboto-ThinItalic"
ENDPROPERTIES
CHARS 922
STARTCHAR 0000
ENCODING 0
SWIDTH 0 0
DWIDTH 0 0
BBX 0 0 0 0
BITMAP
ENDCHAR
STARTCHAR 0002
ENCODING 2
SWIDTH 0 0
DWIDTH 0 0
BBX 0 0 0 0
BITMAP
ENDCHAR
STARTCHAR 000D
ENCODING 13
SWIDTH 231 0
DWIDTH 18 0
BBX 0 0 0 0
BITMAP
ENDCHAR
STARTCHAR 0020
ENCODING 32
SWIDTH 231 0
DWIDTH 18 0
BBX 0 0 0 0
BITMAP
ENDCHAR
STARTCHAR 0021
ENCODING 33
SWIDTH 180 0
DWIDTH 14 0
BBX 12 55 2 0
BITMAP
0030
0060
0060
0060
0060
0060
0060
00C0
00C0
00C0
00C0
00C0
00C0
0180
0180
0180
0180
0180
0380
0300
0300
0300
0300
0300
0700
0600
0600
0600
0600
0600
0E00
0C00
0C00
0C00
0C00
0C00
1800
1800
1800
1800
0000
0000
0000
0000
0000
0000
0000
0000
0000
0000
0000
6000
F000
F000
E000
ENDCHAR
STARTCHAR 0022
ENCODING 34
SWIDTH 244 0
DWIDTH 19 0
BBX 12 15 9 43
BITMAP
3070
3060
3060
3060
7060
6060
6060
60C0
60C0
60C0
C0C0
C0C0
C080
C180
C180
ENDCHAR
STARTCHAR 0023
ENCODING 35
SWIDTH 527 0
DWIDTH 41 0
BBX 45 55 1 0
BITMAP
000001800180
000001800300
000003800300
000003000300
000003000600
000007000600
000006000600
000006000C00
00000E000C00
00000C000C00
00000C001800
000018001800
000018003800
000018003000
000030003000
03FFFFFFFFF8
03FFFFFFFFF8
03FFFFFFFFF8
00006000E000
00006000C000
0000C000C000
0000C0018000
0001C0018000
000180018000
000180030000
000380030000
000300030000
000300060000
000700060000
000600060000
0006000C0000
000E000C0000
000C001C0000
000C00180000
001800180000
001800380000
001800300000
FFFFFFFFFC00
FFFFFFFFFC00
003000600000
006000600000
006000E00000
006000C00000
00C000C00000
00C001800000
01C001800000
018001800000
018003000000
038003000000
030003000000
030006000000
070006000000
06000E000000
06000C000000
0E000C000000
ENDCHAR
STARTCHAR 0024
ENCODING 36
SWIDTH 527 0
DWIDTH 41 0
BBX 36 71 3 -8
BITMAP
000000C000
000001C000
0000018000
0000018000
0000018000
0000018000
0000018000
00001FF000
0000FFFC00
0003E01F00
000F000380
001C0001C0
00380000E0
0070000060
0060000070
00C0000030
01C0000030
0180000030
0180000030
0380000030
0300000030
0300000030
0300000030
0300000000
0300000000
0300000000
0380000000
0180000000
01C0000000
00E0000000
0070000000
0038000000
001E000000
0007C00000
0001F00000
00007C0000
00001F0000
000003C000
000000F000
0000007800
0000001C00
0000000E00
0000000600
0000000700
0000000300
0000000300
0000000380
C000000180
C000000180
C000000300
C000000300
C000000300
C000000300
E000000600
6000000600
6000000E00
7000001C00
3800003800
1C00007000
0E0001E000
070007C000
03F03F0000
00FFFC0000
001FE00000
0003000000
0003000000
0003000000
0003000000
0006000000
0006000000
0006000000
ENDCHAR
STARTCHAR 0025
ENCODING 37
SWIDTH 720 0
DWIDTH 56 0
BBX 44 57 7 -1
BITMAP
007F00000000
01FFC0000000
03C1E0000000
070070000000
0E0030000000
1C0038000000
180018000000
380018000600
300018000E00
700018001C00
600018001800
600018003000
600018007000
60001800E000
E0003001C000
C00030018000
C00030030000
C00070070000
6000600E0000
6000E00C0000
6001C0180000
300380380000
380700700000
1FFE00E00000
0FF800C00000
00C001800000
000003800000
000007000000
000006000000
00000C000000
00001C000000
00003800FC00
00007003FF00
000060078380
0000C01E01C0
0001C01800E0
000380300060
000300700060
000600600060
000E00C00030
001C00C00030
003800C00030
003001C00060
006001800060
00E001800060
01C001800060
038001800060
0300018000C0
0700018000C0
0E00018001C0
040001800180
000000C00380
000000C00700
000000600E00
0000007C7C00
0000001FF000
000000078000
ENDCHAR
STARTCHAR 0026
ENCODING 38
SWIDTH 578 0
DWIDTH 45 0
BBX 39 57 3 -1
BITMAP
00001FC000
00007FF000
0001E03800
0003801C00
0007000E00
000E000600
000C000700
0018000300
0018000300
0030000700
0030000600
0030000600
0030000600
0030000C00
0030001C00
0030003800
0030007000
003000E000
003001C000
0018038000
0018070000
000C1C0000
000C380000
0006F00000
0007C00000
0003800000
000F800000
001DC00000
0038C00000
00F0600000
01C0700000
0380300000
0700180006
0E001C0006
1C000C000E
180006000C
300007000C
700003801C
6000018018
600000C018
C00000E038
C000006030
C000003070
C0000038E0
C000001CC0
C000000DC0
C000000F80
C000000700
C000000F00
E000001D80
70000039C0
38000070C0
3C0001C060
0F00078070
07F0FE0038
01FFF80018
001F800000
ENDCHAR
STARTCHAR 0027
ENCODING 39
SWIDTH 154 0
DWIDTH 12 0
BBX 5 15 8 43
BITMAP
18
18
38
30
30
30
30
30
60
60
60
60
60
C0
C0
ENDCHAR
STARTCHAR 0028
ENCODING 40
SWIDTH 282 0
DWIDTH 22 0
BBX 23 80 4 -18
BITMAP
000002
000006
00000E
000038
000070
0000E0
0001C0
000380
000300
000600
000E00
000C00
001800
003800
003000
006000
006000
00C000
00C000
018000
018000
038000
030000
030000
060000
060000
060000
0C0000
0C0000
0C0000
180000
180000
180000
180000
300000
300000
300000
300000
300000
600000
600000
600000
600000
600000
600000
600000
600000
E00000
E00000
C00000
C00000
C00000
C00000
C00000
C00000
C00000
E00000
600000
600000
600000
600000
600000
600000
600000
700000
300000
300000
300000
180000
180000
180000
0C0000
0C0000
060000
070000
038000
018000
00C000
006000
002000
ENDCHAR
STARTCHAR 0029
ENCODING 41
SWIDTH 282 0
DWIDTH 22 0
BBX 23 79 -5 -17
BITMAP
000C00
000E00
000300
000380
000180
0000C0
000060
000060
000030
000030
000030
000018
000018
000018
000008
00000C
00000C
00000C
00000C
00000C
00000C
000006
000006
000006
000006
000006
000006
000006
000006
000006
000006
000006
000006
00000E
00000C
00000C
00000C
00000C
00000C
00000C
00000C
000018
000018
000018
000018
000018
000030
000030
000030
000070
000060
000060
000060
0000C0
0000C0
0001C0
000180
000180
000380
000300
000700
000600
000E00
000C00
001C00
001800
003000
007000
006000
00C000
01C000
038000
070000
0E0000
1C0000
380000
700000
E00000
800000
ENDCHAR
STARTCHAR 002A
ENCODING 42
SWIDTH 398 0
DWIDTH 31 0
BBX 29 30 5 25
BITMAP
0000C000
0001C000
00018000
00018000
00018000
00018000
00018000
00030000
00030000
00030008
E0030038
F80301F8
3F060FC0
07C63E00
01FFF800
003FC000
000E0000
001F0000
003B0000
00718000
00E18000
00C0C000
0180E000
03806000
07007000
0E003000
1C001800
38001C00
30000C00
00000800
ENDCHAR
STARTCHAR 002B
ENCODING 43
SWIDTH 540 0
DWIDTH 42 0
BBX 37 40 3 6
BITMAP
0000060000
00000E0000
00000C0000
00000C0000
00000C0000
00000C0000
00000C0000
00001C0000
0000180000
0000180000
0000180000
0000180000
0000180000
0000300000
0000300000
0000300000
0000300000
0000300000
0000700000
FFFFFFFFF8
FFFFFFFFF8
0000600000
0000600000
0000600000
0000E00000
0000C00000
0000C00000
0000C00000
0000C00000
0000C00000
0001C00000
0001800000
0001800000
0001800000
0001800000
0001800000
0003000000
0003000000
0003000000
0003000000
ENDCHAR
STARTCHAR 002C
ENCODING 44
SWIDTH 180 0
DWIDTH 14 0
BBX 8 15 -2 -10
BITMAP
03
07
06
06
06
06
0E
0C
0C
1C
18
38
70
60
C0
ENDCHAR
STARTCHAR 002D
ENCODING 45
SWIDTH 282 0
DWIDTH 22 0
BBX 17 2 3 24
BITMAP
FFFF80
FFFF80
ENDCHAR
STARTCHAR 002E
ENCODING 46
SWIDTH 205 0
DWIDTH 16 0
BBX 4 4 2 0
BITMAP
60
F0
F0
E0
ENDCHAR
STARTCHAR 002F
ENCODING 47
SWIDTH 360 0
DWIDTH 28 0
BBX 34 60 -3 -5
BITMAP
00000000C0
00000000C0
0000000180
0000000380
0000000300
0000000700
0000000600
0000000E00
0000000C00
0000001800
0000001800
0000003000
0000003000
0000006000
000000E000
000000C000
000001C000
0000018000
0000038000
0000030000
0000060000
0000060000
00000C0000
00000C0000
0000180000
0000380000
0000300000
0000700000
0000600000
0000E00000
0000C00000
0001800000
0001800000
0003000000
0003000000
0006000000
000E000000
000C000000
001C000000
0018000000
0038000000
0030000000
0060000000
0060000000
00C0000000
00C0000000
0180000000
0380000000
0300000000
0700000000
0600000000
0E00000000
0C00000000
1800000000
1800000000
3000000000
7000000000
6000000000
E000000000
C000000000
ENDCHAR
STARTCHAR 0030
ENCODING 48
SWIDTH 527 0
DWIDTH 41 0
BBX 35 57 4 -1
BITMAP
00003FE000
0001FFF800
0007C03C00
000F000E00
001C000700
0038000380
0070000180
00E00001C0
00C00000C0
01800000C0
01800000C0
0300000060
0300000060
0600000060
0600000060
0E00000060
0C00000060
0C00000060
1C00000060
1800000060
1800000060
1800000060
3800000060
30000000C0
30000000C0
30000000C0
30000000C0
30000000C0
60000001C0
6000000180
6000000180
6000000180
6000000180
6000000180
C000000300
C000000300
C000000300
C000000300
C000000700
C000000600
C000000600
C000000E00
C000000C00
C000000C00
C000001800
C000003800
6000003000
6000007000
6000006000
300000C000
300001C000
1800038000
1C000F0000
0F001E0000
07E3F80000
01FFE00000
003F000000
ENDCHAR
STARTCHAR 0031
ENCODING 49
SWIDTH 527 0
DWIDTH 41 0
BBX 19 55 11 0
BITMAP
0000E0
0007E0
003FC0
01F8C0
07E0C0
3F00C0
F800C0
C000C0
000180
000180
000180
000180
000180
000180
000300
000300
000300
000300
000300
000600
000600
000600
000600
000600
000600
000C00
000C00
000C00
000C00
000C00
000C00
001800
001800
001800
001800
001800
001800
003000
003000
003000
003000
003000
003000
006000
006000
006000
006000
006000
00E000
00C000
00C000
00C000
00C000
00C000
018000
ENDCHAR
STARTCHAR 0032
ENCODING 50
SWIDTH 527 0
DWIDTH 41 0
BBX 36 56 2 0
BITMAP
00001FE000
0000FFFC00
0003E01E00
000F000780
001E0001C0
00380000C0
00700000E0
0060000060
00C0000070
01C0000030
0180000030
0380000030
0300000030
0300000030
0600000030
0600000070
0000000060
0000000060
0000000060
00000000C0
00000000C0
0000000180
0000000380
0000000300
0000000600
0000000E00
0000001C00
0000003800
0000003000
0000006000
000000C000
0000018000
0000030000
0000060000
00000C0000
0000180000
0000300000
0000600000
0000C00000
0001800000
0003000000
0006000000
000C000000
001C000000
0038000000
0070000000
00E0000000
01C0000000
0380000000
0700000000
0E00000000
1C00000000
3800000000
7000000000
FFFFFFFF00
FFFFFFFF00
ENDCHAR
STARTCHAR 0033
ENCODING 51
SWIDTH 527 0
DWIDTH 41 0
BBX 37 57 2 -1
BITMAP
00001FF000
0000FFFE00
0003F00F00
00078003C0
000E0000C0
001C000060
0030000070
0070000030
00E0000030
00C0000018
0180000018
0180000018
0380000018
0300000018
0300000018
0000000018
0000000038
0000000030
0000000030
0000000060
00000000E0
00000001C0
0000000380
0000000700
0000001E00
0000007C00
000007F000
0003FF8000
0003FFC000
000001F800
0000003C00
0000000E00
0000000700
0000000380
0000000180
00000001C0
00000000C0
00000000C0
00000000C0
00000000C0
00000000C0
E0000000C0
E0000000C0
E000000180
6000000180
6000000180
6000000300
6000000300
3000000600
3800000E00
1800001C00
1C00003800
0F0000F000
07C003C000
01FC3F8000
007FFE0000
000FE00000
ENDCHAR
STARTCHAR 0034
ENCODING 52
SWIDTH 527 0
DWIDTH 41 0
BBX 37 55 2 0
BITMAP
00000001E0
00000001C0
00000003C0
00000006C0
0000000EC0
0000001CC0
00000019C0
0000003180
0000006180
000000E180
000001C180
0000038180
0000030300
0000060300
00000E0300
00001C0300
0000380300
0000700300
0000600600
0000C00600
0001C00600
0003800600
0007000600
000E000E00
000C000C00
0018000C00
0038000C00
0070000C00
00E0000C00
00C0001C00
0180001800
0380001800
0700001800
0E00001800
1C00001800
1800003800
3000003000
7000003000
FFFFFFFFF8
FFFFFFFFF8
0000003000
0000006000
0000006000
0000006000
0000006000
0000006000
0000006000
000000C000
000000C000
000000C000
000000C000
000000C000
000000C000
0000018000
0000018000
ENDCHAR
STARTCHAR 0035
ENCODING 53
SWIDTH 527 0
DWIDTH 41 0
BBX 37 56 5 -1
BITMAP
001FFFFFF8
001FFFFFF8
0030000000
0030000000
0030000000
0030000000
0060000000
0060000000
0060000000
0060000000
00C0000000
00C0000000
00C0000000
00C0000000
0180000000
0180000000
0180000000
0180000000
0300000000
0300000000
0301F80000
021FFF8000
067F07E000
07F000F000
0780003800
0700001C00
0000000C00
0000000E00
0000000600
0000000600
0000000300
0000000300
0000000300
0000000300
0000000300
0000000300
0000000300
0000000300
0000000300
0000000700
C000000600
C000000600
C000000600
E000000C00
6000000C00
6000001C00
6000001800
7000003800
3000007000
380000E000
1C0001C000
0E00038000
07000F0000
03F0FE0000
00FFF80000
001F800000
ENDCHAR
STARTCHAR 0036
ENCODING 54
SWIDTH 527 0
DWIDTH 41 0
BBX 33 57 4 -1
BITMAP
0000003F00
000003FF00
00001FC000
00003C0000
0000F00000
0001C00000
0007800000
000E000000
001C000000
0038000000
0070000000
0060000000
00E0000000
01C0000000
0180000000
0300000000
0300000000
0600000000
0600000000
0C00000000
0C03FF8000
1C0FFFE000
183C00F000
18F0003800
39C0001C00
3300000E00
3600000600
3C00000700
7800000300
7800000300
7000000380
6000000180
6000000180
6000000180
E000000180
C000000180
C000000180
C000000180
C000000380
C000000300
C000000300
C000000300
C000000700
C000000600
C000000E00
E000000C00
6000001C00
6000001800
7000003800
3000007000
180000E000
1C0001C000
0E00038000
07800F0000
03F07E0000
00FFF80000
000F800000
ENDCHAR
STARTCHAR 0037
ENCODING 55
SWIDTH 527 0
DWIDTH 41 0
BBX 34 55 8 0
BITMAP
FFFFFFFFC0
FFFFFFFFC0
0000000180
0000000380
0000000300
0000000600
0000000600
0000000C00
0000001C00
0000001800
0000003000
0000003000
0000006000
0000006000
000000C000
0000018000
0000018000
0000030000
0000030000
0000060000
00000C0000
00000C0000
0000180000
0000180000
0000300000
0000700000
0000600000
0000C00000
0000C00000
0001800000
0003800000
0003000000
0006000000
0006000000
000C000000
001C000000
0018000000
0030000000
0030000000
0060000000
00E0000000
00C0000000
0180000000
0180000000
0300000000
0300000000
0600000000
0C00000000
0C00000000
1800000000
1800000000
3000000000
7000000000
6000000000
C000000000
ENDCHAR
STARTCHAR 0038
ENCODING 56
SWIDTH 527 0
DWIDTH 41 0
BBX 38 57 2 -1
BITMAP
00000FF800
00007FFE00
0001F00F80
00078003C0
000E0000E0
001C000070
0038000030
0070000038
0060000018
00C000001C
00C000000C
018000000C
018000000C
018000000C
030000000C
0300000018
0300000018
0300000018
0300000030
0380000030
0180000060
01800000E0
00C00001C0
00E0000380
0070000F00
003C003C00
000FC3F000
0003FFC000
000FFFE000
007C007800
00F0001C00
03C0000E00
0700000300
0E00000180
1C000001C0
18000000C0
30000000C0
70000000E0
6000000060
6000000060
E0000000E0
C0000000C0
C0000000C0
C0000000C0
C0000000C0
C000000180
C000000180
C000000300
6000000700
6000000E00
3000001C00
3800003800
1E0000F000
0F8003E000
03F87F8000
00FFFE0000
000FE00000
ENDCHAR
STARTCHAR 0039
ENCODING 57
SWIDTH 527 0
DWIDTH 41 0
BBX 33 57 6 -1
BITMAP
0001FE0000
000FFFC000
003E01E000
0078007000
00E0003800
01C0001C00
0380000E00
0700000600
0E00000700
0C00000300
1800000300
3800000300
3000000380
3000000180
6000000180
6000000180
6000000180
C000000180
C000000180
C000000180
C000000380
C000000300
C000000300
C000000300
C000000300
C000000700
C000000700
C000000F00
E000001E00
6000001E00
6000003600
3000006600
380001CE00
1C00038C00
0E000F0C00
07807C0C00
03FFF81800
00FFC01800
0000003800
0000003000
0000007000
0000006000
000000E000
000000C000
0000018000
0000038000
0000070000
00000E0000
00001C0000
0000380000
0000700000
0001E00000
0007C00000
001F000000
03FC000000
3FE0000000
7C00000000
ENDCHAR
STARTCHAR 003A
ENCODING 58
SWIDTH 167 0
DWIDTH 13 0
BBX 10 41 1 0
BITMAP
0080
01C0
03C0
03C0
0180
0000
0000
0000
0000
0000
0000
0000
0000
0000
0000
0000
0000
0000
0000
0000
0000
0000
0000
0000
0000
0000
0000
0000
0000
0000
0000
0000
0000
0000
0000
0000
0000
6000
F000
F000
E000
ENDCHAR
STARTCHAR 003B
ENCODING 59
SWIDTH 167 0
DWIDTH 13 0
BBX 13 50 -2 -10
BITMAP
0010
0038
0078
0078
0030
0000
0000
0000
0000
0000
0000
0000
0000
0000
0000
0000
0000
0000
0000
0000
0000
0000
0000
0000
0000
0000
0000
0000
0000
0000
0000
0000
0000
0000
0000
0600
0600
0600
0600
0E00
0C00
0C00
0C00
1C00
1800
3800
3000
6000
E000
C000
ENDCHAR
STARTCHAR 003C
ENCODING 60
SWIDTH 488 0
DWIDTH 38 0
BBX 34 30 3 11
BITMAP
00000001C0
00000007C0
0000001F00
000000F800
000003E000
00000F8000
00007C0000
0001F00000
0007C00000
003E000000
00F8000000
03E0000000
1F00000000
7C00000000
F000000000
F800000000
3E00000000
0F80000000
03E0000000
00F8000000
003E000000
000F800000
0003E00000
0000F80000
00003E0000
00000F0000
000003C000
000000F000
0000003800
0000000800
ENDCHAR
STARTCHAR 003D
ENCODING 61
SWIDTH 540 0
DWIDTH 42 0
BBX 34 17 4 17
BITMAP
1FFFFFFFC0
1FFFFFFFC0
0000000000
0000000000
0000000000
0000000000
0000000000
0000000000
0000000000
0000000000
0000000000
0000000000
0000000000
0000000000
0000000000
7FFFFFFE00
FFFFFFFE00
ENDCHAR
STARTCHAR 003E
ENCODING 62
SWIDTH 488 0
DWIDTH 38 0
BBX 34 31 2 10
BITMAP
0400000000
0700000000
07C0000000
01F0000000
007C000000
001F000000
0007C00000
0001F00000
00007C0000
00001F0000
0000078000
000001E000
0000007800
0000003E00
0000000F80
00000003C0
0000000780
0000003E00
000000F800
000003C000
00001F0000
00007C0000
0001F00000
000F800000
003E000000
00F8000000
07C0000000
1F00000000
7C00000000
E000000000
8000000000
ENDCHAR
STARTCHAR 003F
ENCODING 63
SWIDTH 411 0
DWIDTH 32 0
BBX 26 56 7 0
BITMAP
001FE000
007FF800
01F01E00
03800700
07000300
0C000180
18000180
380000C0
300000C0
600000C0
600000C0
E00000C0
C00000C0
C00000C0
000000C0
000001C0
00000180
00000180
00000380
00000300
00000700
00000E00
00000C00
00001800
00003800
00007000
0000E000
0001C000
00070000
000E0000
001C0000
00180000
00300000
00600000
00E00000
00C00000
01C00000
01800000
01800000
01800000
03000000
00000000
00000000
00000000
00000000
00000000
00000000
00000000
00000000
00000000
00000000
00000000
0E000000
1E000000
1E000000
1C000000
ENDCHAR
STARTCHAR 0040
ENCODING 64
SWIDTH 900 0
DWIDTH 70 0
BBX 63 71 3 -17
BITMAP
0000000003400000
00000003FFFF0000
0000001FFFFFC000
0000007E0001F000
000001F000007C00
000007C000001E00
00001F0000000700
00003C0000000380
00007800000001C0
0000E000000000E0
0003C00000000060
0007800000000070
0007000000000030
000E000000000018
001C000000000018
0038000000000018
007000000800000C
00600001FF80000C
00E00007FFE0000C
01C0000F0070000C
0180001C0038000C
038000380018000E
0300006000180006
070000C000180006
060001C000380006
0E00038000300006
0C00030000300006
1C0007000030000E
180006000060000E
18000C000060000C
38000C000060000C
300018000060000C
3000180000C0000C
7000380000C0000C
6000300000C0001C
6000300000C00018
6000700001800018
6000600001800018
E000600001800030
C000600001800030
C000600003000030
C000C00003000060
C000C00007000060
C000C000070000E0
C000C0000F0000C0
C000C0001E0001C0
C000C0001E000180
C000C00036000300
C000400066000700
C0006000E3000E00
C0006001C3001C00
E000300783807800
60003E3E01E3F000
60001FF800FFC000
600003C0003E0000
7000000000000000
3000000000000000
3800000000000000
3800000000000000
1C00000000000000
1C00000000000000
0E00000000000000
0700000000000000
0780000000000000
03C0000000000000
01E0000000000000
00F8000008000000
003E000078000000
001FC007F0000000
0003FFFFC0000000
00007FFC00000000
ENDCHAR
STARTCHAR 0041
ENCODING 65
SWIDTH 578 0
DWIDTH 45 0
BBX 42 55 -2 0
BITMAP
0000000E0000
0000000F0000
0000001F0000
0000001B0000
0000003B0000
000000330000
000000618000
000000618000
000000C18000
000000C18000
000001818000
00000181C000
00000300C000
00000700C000
00000600C000
00000E00C000
00000C00E000
00001C006000
000018006000
000038006000
000030006000
000060006000
000060003000
0000C0003000
0000C0003000
000180003000
000180003000
000300001800
000700001800
000600001800
000E00001800
000C00001800
001C00001C00
001800000C00
003800000C00
003000000C00
007FFFFFFC00
007FFFFFFE00
00C000000600
00C000000600
018000000600
038000000600
030000000700
070000000300
060000000300
0E0000000300
0C0000000300
1C0000000300
180000000180
300000000180
300000000180
600000000180
600000000180
C000000001C0
C000000000C0
ENDCHAR
STARTCHAR 0042
ENCODING 66
SWIDTH 578 0
DWIDTH 45 0
BBX 38 55 4 0
BITMAP
007FFFF800
007FFFFF00
00E00007C0
00C00001E0
00C0000070
00C0000038
00C0000018
00C000000C
01C000000C
018000000C
018000000C
018000000C
018000000C
018000000C
038000000C
030000000C
030000001C
0300000018
0300000038
0300000030
0600000070
06000000E0
06000001C0
0600000780
0600001E00
060007F800
0FFFFFE000
0FFFFFFC00
0C00001F00
0C00000780
0C000001C0
1C000000C0
1800000060
1800000070
1800000030
1800000030
1800000030
3800000030
3000000030
3000000030
3000000030
3000000030
3000000070
6000000060
6000000060
60000000C0
60000001C0
6000000380
6000000700
C000000E00
C000001C00
C00000F800
C00007E000
FFFFFF8000
FFFFFC0000
ENDCHAR
STARTCHAR 0043
ENCODING 67
SWIDTH 617 0
DWIDTH 48 0
BBX 42 57 5 -1
BITMAP
00000FFC0000
00007FFF8000
0001F803E000
0003C0007000
000F00003800
001E00000C00
003800000E00
007000000700
006000000300
00C000000380
01C000000180
018000000180
030000000180
070000000180
0600000000C0
0E00000000C0
0C00000000C0
0C00000000C0
180000000000
180000000000
180000000000
300000000000
300000000000
300000000000
300000000000
300000000000
700000000000
600000000000
600000000000
600000000000
600000000000
600000000000
C00000000000
C00000000000
C00000000000
C00000000000
C00000000000
C00000000000
C00000000000
C00000000C00
C00000001800
C00000001800
C00000003800
600000003000
600000007000
600000006000
70000000E000
30000001C000
380000018000
180000030000
1C00000F0000
0E00001E0000
070000780000
03C001F00000
01F83FC00000
007FFF000000
0007E0000000
ENDCHAR
STARTCHAR 0044
ENCODING 68
SWIDTH 630 0
DWIDTH 49 0
BBX 42 55 4 0
BITMAP
007FFFF80000
007FFFFF0000
00E00007C000
00C00001E000
00C000007000
00C000003800
00C000001C00
00C000000E00
018000000600
018000000300
018000000300
018000000180
018000000180
018000000180
0300000000C0
0300000000C0
0300000000C0
0300000000C0
0300000000C0
0300000000C0
0600000000C0
0600000000C0
0600000000C0
0600000000C0
0600000000C0
0E00000001C0
0C0000000180
0C0000000180
0C0000000180
0C0000000180
0C0000000180
1C0000000380
180000000300
180000000300
180000000300
180000000600
180000000600
300000000E00
300000000C00
300000001C00
300000001800
300000003800
300000003000
600000006000
60000000E000
60000001C000
600000038000
600000070000
6000000E0000
C000003C0000
C00000F80000
C00003E00000
C0001F800000
FFFFFE000000
FFFFE0000000
ENDCHAR
STARTCHAR 0045
ENCODING 69
SWIDTH 540 0
DWIDTH 42 0
BBX 42 55 4 0
BITMAP
007FFFFFFFC0
007FFFFFFF80
00E000000000
00C000000000
00C000000000
00C000000000
00C000000000
00C000000000
018000000000
018000000000
018000000000
018000000000
018000000000
018000000000
030000000000
030000000000
030000000000
030000000000
030000000000
030000000000
060000000000
060000000000
060000000000
060000000000
060000000000
0E0000000000
0FFFFFFF8000
0FFFFFFF8000
0C0000000000
0C0000000000
0C0000000000
1C0000000000
180000000000
180000000000
180000000000
180000000000
180000000000
300000000000
300000000000
300000000000
300000000000
300000000000
300000000000
600000000000
600000000000
600000000000
600000000000
600000000000
600000000000
C00000000000
C00000000000
C00000000000
C00000000000
FFFFFFFF0000
FFFFFFFF0000
ENDCHAR
STARTCHAR 0046
ENCODING 70
SWIDTH 552 0
DWIDTH 43 0
BBX 42 55 4 0
BITMAP
007FFFFFFFC0
007FFFFFFFC0
00E000000000
00C000000000
00C000000000
00C000000000
00C000000000
00C000000000
018000000000
018000000000
018000000000
018000000000
018000000000
018000000000
030000000000
030000000000
030000000000
030000000000
030000000000
030000000000
060000000000
060000000000
060000000000
060000000000
060000000000
0E0000000000
0FFFFFFFC000
0FFFFFFFC000
0C0000000000
0C0000000000
0C0000000000
1C0000000000
180000000000
180000000000
180000000000
180000000000
180000000000
300000000000
300000000000
300000000000
300000000000
300000000000
300000000000
600000000000
600000000000
600000000000
600000000000
600000000000
600000000000
C00000000000
C00000000000
C00000000000
C00000000000
C00000000000
C00000000000
ENDCHAR
STARTCHAR 0047
ENCODING 71
SWIDTH 655 0
DWIDTH 51 0
BBX 42 57 6 -1
BITMAP
000007FE0000
00003FFFC000
0000F803F000
0003C0007800
000700001C00
001E00000E00
003800000700
007000000300
006000000180
00C000000180
01C0000001C0
0380000000C0
0300000000C0
0700000000C0
0600000000C0
0E00000000C0
0C0000000000
1C0000000000
180000000000
180000000000
380000000000
300000000000
300000000000
300000000000
300000000000
700000000000
600000000000
600000000000
600000000000
600000000000
600000000000
E00007FFFF00
C00007FFFE00
C00000000600
C00000000600
C00000000600
C00000000600
C00000000E00
C00000000C00
C00000000C00
C00000000C00
C00000000C00
C00000001C00
600000001800
600000001800
600000001800
300000001800
300000001800
180000003800
1C0000003000
0C0000007000
06000001E000
03800007C000
01E0003F0000
00FC07FC0000
003FFFE00000
0007FC000000
ENDCHAR
STARTCHAR 0048
ENCODING 72
SWIDTH 668 0
DWIDTH 52 0
BBX 47 55 4 0
BITMAP
006000000006
006000000006
00E000000006
00C000000006
00C00000000C
00C00000000C
00C00000000C
00C00000000C
01800000000C
01800000000C
018000000018
018000000018
018000000018
018000000018
030000000018
030000000038
030000000030
030000000030
030000000030
030000000030
060000000030
060000000070
060000000060
060000000060
060000000060
0E0000000060
0FFFFFFFFFE0
0FFFFFFFFFC0
0C00000000C0
0C00000000C0
0C00000000C0
1C00000000C0
1800000000C0
180000000180
180000000180
180000000180
180000000180
300000000180
300000000180
300000000300
300000000300
300000000300
300000000300
600000000300
600000000700
600000000600
600000000600
600000000600
600000000600
C00000000600
C00000000E00
C00000000C00
C00000000C00
C00000000C00
C00000000C00
ENDCHAR
STARTCHAR 0049
ENCODING 73
SWIDTH 244 0
DWIDTH 19 0
BBX 11 55 5 0
BITMAP
0060
0060
0060
0060
0060
00C0
00C0
00C0
00C0
00C0
00C0
0180
0180
0180
0180
0180
0180
0300
0300
0300
0300
0300
0300
0600
0600
0600
0600
0600
0E00
0C00
0C00
0C00
0C00
0C00
1800
1800
1800
1800
1800
1800
3000
3000
3000
3000
3000
3000
6000
6000
6000
6000
6000
6000
C000
C000
C000
ENDCHAR
STARTCHAR 004A
ENCODING 74
SWIDTH 527 0
DWIDTH 41 0
BBX 38 56 2 -1
BITMAP
000000000C
000000000C
0000000018
0000000018
0000000018
0000000018
0000000018
0000000038
0000000030
0000000030
0000000030
0000000030
0000000030
0000000070
0000000060
0000000060
0000000060
0000000060
0000000060
00000000E0
00000000C0
00000000C0
00000000C0
00000000C0
00000000C0
0000000180
0000000180
0000000180
0000000180
0000000180
0000000180
0000000300
0000000300
0000000300
0000000300
0000000300
0000000700
0000000600
0000000600
0000000600
C000000600
C000000C00
C000000C00
C000001C00
C000001800
C000003800
C000003000
C000007000
600000E000
600001C000
3000038000
3800070000
1E001E0000
07E1F80000
03FFE00000
007F000000
ENDCHAR
STARTCHAR 004B
ENCODING 75
SWIDTH 604 0
DWIDTH 47 0
BBX 45 55 4 0
BITMAP
006000000078
0060000000E0
00E0000001C0
00C000000380
00C000000F00
00C000001E00
00C000003800
00C000007000
01800000E000
01800001C000
018000038000
018000070000
0180001E0000
018000380000
030000700000
030000E00000
030001C00000
030003800000
030007000000
03001E000000
060038000000
060070000000
0600E0000000
0601C0000000
060380000000
0E0780000000
0C1DC0000000
0C38E0000000
0C7060000000
0CE070000000
0D8038000000
1F0018000000
1E000C000000
1C000E000000
180006000000
180003000000
180003800000
300001800000
300000C00000
300000E00000
300000600000
300000300000
300000380000
6000001C0000
6000000C0000
6000000E0000
600000070000
600000030000
600000038000
C0000001C000
C0000000C000
C0000000E000
C00000007000
C00000003000
C00000003800
ENDCHAR
STARTCHAR 004C
ENCODING 76
SWIDTH 488 0
DWIDTH 38 0
BBX 29 55 4 0
BITMAP
00600000
00600000
00E00000
00C00000
00C00000
00C00000
00C00000
00C00000
01C00000
01800000
01800000
01800000
01800000
01800000
03800000
03000000
03000000
03000000
03000000
03000000
06000000
06000000
06000000
06000000
06000000
0E000000
0C000000
0C000000
0C000000
0C000000
0C000000
1C000000
18000000
18000000
18000000
18000000
18000000
38000000
30000000
30000000
30000000
30000000
30000000
60000000
60000000
60000000
60000000
60000000
60000000
C0000000
C0000000
C0000000
C0000000
FFFFFFF8
FFFFFFF8
ENDCHAR
STARTCHAR 004D
ENCODING 77
SWIDTH 822 0
DWIDTH 64 0
BBX 59 55 4 0
BITMAP
00700000000001E0
00700000000001E0
00F80000000003C0
00D80000000003C0
00D80000000006C0
00D80000000006C0
00D8000000000CC0
00CC000000001CC0
018C000000001980
018C000000003180
018C000000003180
0186000000006180
018600000000E180
018600000000C180
0306000000018300
0303000000018300
0303000000030300
0303000000070300
0303000000060300
03018000000C0700
06018000000C0600
0601800000180600
0601800000380600
0600C00000300600
0600C00000600600
0E00C00000600E00
0C00C00000C00C00
0C00600001C00C00
0C00600001800C00
0C00600003800C00
0C00600003000C00
1C00300006001C00
180030000E001800
180030000C001800
180030001C001800
1800180018001800
1800180030001800
3000180070003000
3000180060003000
30000C00E0003000
30000C00C0003000
30000C0180003000
30000C0380003000
6000060300006000
6000060700006000
6000060600006000
6000060C00006000
6000031C00006000
6000031800006000
C00003380000C000
C00001300000C000
C00001E00000C000
C00001E00000C000
C00001C00000C000
C00000C00001C000
ENDCHAR
STARTCHAR 004E
ENCODING 78
SWIDTH 681 0
DWIDTH 53 0
BBX 49 55 3 0
BITMAP
00300000000380
00380000000300
00780000000300
006C0000000300
006C0000000300
00660000000300
00660000000700
00630000000600
00E30000000600
00C18000000600
00C18000000600
00C0C000000600
00C0C000000C00
00C06000000C00
01C06000000C00
01803000000C00
01803000000C00
01801800000C00
01801800001800
03800C00001800
03800C00001800
03000600001800
03000600001800
03000300003800
03000300003000
07000180003000
06000180003000
060000C0003000
060000C0003000
06000060007000
06000060006000
0E000030006000
0C000030006000
0C000018006000
0C000018006000
0C00000C00E000
0C00000C00C000
1C00000600C000
1800000600C000
1800000300C000
1800000300C000
18000003818000
18000001818000
38000001C18000
30000000C18000
30000000E18000
30000000638000
30000000730000
30000000330000
600000003B0000
600000001B0000
600000001F0000
600000000F0000
600000000E0000
E0000000060000
ENDCHAR
STARTCHAR 004F
ENCODING 79
SWIDTH 642 0
DWIDTH 50 0
BBX 42 57 5 -1
BITMAP
000007FE0000
00007FFF8000
0001F803E000
0003C0007000
000F00003800
001C00001C00
003800000E00
007000000700
00E000000300
00C000000380
018000000180
038000000180
0300000001C0
0600000000C0
0600000000C0
0C00000000C0
0C00000000C0
1C00000000C0
1800000000C0
1800000000C0
3000000000C0
3000000000C0
3000000000C0
3000000000C0
6000000000C0
6000000000C0
6000000001C0
600000000180
600000000180
600000000180
C00000000180
C00000000180
C00000000380
C00000000300
C00000000300
C00000000300
C00000000700
C00000000600
C00000000600
C00000000E00
C00000000C00
C00000001C00
C00000001800
C00000003800
E00000003000
600000007000
60000000E000
30000000C000
300000018000
180000030000
1C00000E0000
0E00001C0000
070000780000
03C001F00000
01FC3FC00000
007FFF000000
0007F0000000
ENDCHAR
STARTCHAR 0050
ENCODING 80
SWIDTH 578 0
DWIDTH 45 0
BBX 41 55 4 0
BITMAP
007FFFFE0000
007FFFFFC000
00E00001E000
00C000007800
00C000001C00
00C000000C00
00C000000600
00C000000700
01C000000300
018000000300
018000000300
018000000380
018000000180
018000000180
038000000380
030000000300
030000000300
030000000300
030000000300
030000000600
060000000600
060000000E00
060000000C00
060000001800
060000003800
060000007000
0C000001E000
0C000003C000
0C00001F0000
0C0007FC0000
0FFFFFF00000
1FFFFE000000
180000000000
180000000000
180000000000
180000000000
180000000000
380000000000
300000000000
300000000000
300000000000
300000000000
300000000000
600000000000
600000000000
600000000000
600000000000
600000000000
600000000000
C00000000000
C00000000000
C00000000000
C00000000000
C00000000000
C00000000000
ENDCHAR
STARTCHAR 0051
ENCODING 81
SWIDTH 642 0
DWIDTH 50 0
BBX 42 66 5 -10
BITMAP
000007FE0000
00007FFF8000
0001F803E000
0003C0007000
000F00003800
001C00001C00
003800000E00
007000000700
00E000000300
00C000000380
018000000180
038000000180
0300000001C0
0600000000C0
0600000000C0
0C00000000C0
0C00000000C0
1C00000000C0
1800000000C0
1800000000C0
3000000000C0
3000000000C0
3000000000C0
3000000000C0
6000000000C0
6000000000C0
6000000001C0
600000000180
600000000180
600000000180
C00000000180
C00000000180
C00000000380
C00000000300
C00000000300
C00000000300
C00000000700
C00000000600
C00000000600
C00000000E00
C00000000C00
C00000001C00
C00000001800
C00000003800
E00000003000
600000007000
60000000E000
30000000C000
300000018000
180000030000
1C00000E0000
0E00001C0000
070000780000
03C001F00000
01FC3FC00000
007FFFC00000
0007F0E00000
000000700000
000000300000
000000380000
0000001C0000
0000000E0000
000000070000
000000030000
000000018000
000000008000
ENDCHAR
STARTCHAR 0052
ENCODING 82
SWIDTH 630 0
DWIDTH 49 0
BBX 42 55 3 0
BITMAP
003FFFFF0000
007FFFFFE000
00600000F800
006000003C00
006000000E00
006000000700
006000000300
00E000000180
00C000000180
00C0000000C0
00C0000000C0
00C0000000C0
00C0000000C0
0180000000C0
0180000000C0
0180000000C0
0180000000C0
018000000180
018000000180
030000000180
030000000300
030000000700
030000000600
030000000C00
030000001C00
060000003800
060000007000
06000001C000
0600000F8000
07FFFFFE0000
0FFFFFF00000
0C0000600000
0C0000700000
0C0000300000
0C0000380000
0C0000180000
1C0000180000
1800000C0000
1800000C0000
1800000E0000
180000060000
180000070000
300000030000
300000038000
300000018000
300000018000
30000001C000
30000000C000
60000000E000
600000006000
600000007000
600000003000
600000003000
600000001800
C00000001800
ENDCHAR
STARTCHAR 0053
ENCODING 83
SWIDTH 565 0
DWIDTH 44 0
BBX 42 57 2 -1
BITMAP
000007FE0000
00003FFFC000
0001FC01F000
0007C0003800
000F00001C00
001C00000E00
003800000700
007000000380
00E000000180
00C000000180
01C0000000C0
0180000000C0
0180000000C0
0180000000C0
0380000000C0
0380000000C0
038000000000
018000000000
018000000000
01C000000000
00C000000000
00E000000000
007800000000
003C00000000
000F00000000
0007E0000000
0000FC000000
00003F800000
000007F00000
000000FC0000
0000001F0000
000000078000
00000001C000
00000000E000
000000003000
000000003800
000000001800
000000000C00
000000000C00
000000000C00
C00000000C00
C00000000C00
C00000000C00
C00000000C00
C00000001C00
C00000001800
E00000003800
600000003000
700000007000
30000000E000
38000001C000
1C0000078000
0F00000F0000
03C0007C0000
01FC0FF00000
007FFFC00000
0003F8000000
ENDCHAR
STARTCHAR 0054
ENCODING 84
SWIDTH 578 0
DWIDTH 45 0
BBX 42 55 7 0
BITMAP
FFFFFFFFFFC0
FFFFFFFFFF80
00000C000000
00001C000000
000018000000
000018000000
000018000000
000018000000
000018000000
000038000000
000030000000
000030000000
000030000000
000030000000
000030000000
000060000000
000060000000
000060000000
000060000000
000060000000
000060000000
0000C0000000
0000C0000000
0000C0000000
0000C0000000
0000C0000000
0000C0000000
000180000000
000180000000
000180000000
000180000000
000180000000
000380000000
000300000000
000300000000
000300000000
000300000000
000300000000
000700000000
000600000000
000600000000
000600000000
000600000000
000600000000
000C00000000
000C00000000
000C00000000
000C00000000
000C00000000
000C00000000
001800000000
001800000000
001800000000
001800000000
001800000000
ENDCHAR
STARTCHAR 0055
ENCODING 85
SWIDTH 642 0
DWIDTH 50 0
BBX 43 56 6 -1
BITMAP
030000000060
030000000060
030000000060
0300000000C0
0300000000C0
0600000000C0
0600000000C0
0600000000C0
0600000000C0
060000000180
060000000180
0C0000000180
0C0000000180
0C0000000180
0C0000000380
0C0000000300
1C0000000300
180000000300
180000000300
180000000300
180000000700
180000000600
380000000600
300000000600
300000000600
300000000600
300000000E00
300000000C00
600000000C00
600000000C00
600000000C00
600000000C00
600000001800
600000001800
C00000001800
C00000001800
C00000001800
C00000001800
C00000003000
C00000003000
C00000003000
C00000007000
C00000006000
C0000000E000
C0000000C000
E0000001C000
600000038000
600000030000
700000060000
3800001E0000
1C00003C0000
0E0000F00000
078003E00000
03F83F800000
00FFFE000000
000FE0000000
ENDCHAR
STARTCHAR 0056
ENCODING 86
SWIDTH 578 0
DWIDTH 45 0
BBX 42 55 7 0
BITMAP
C000000001C0
C00000000180
C00000000380
C00000000300
C00000000600
600000000600
600000000C00
600000000C00
600000001800
700000001800
300000003000
300000003000
300000006000
300000006000
38000000C000
18000001C000
180000018000
180000038000
180000030000
1C0000070000
0C0000060000
0C00000E0000
0C00000C0000
0C00001C0000
0E0000180000
060000380000
060000300000
060000700000
060000600000
030000E00000
030000C00000
030001800000
030001800000
030003000000
018003000000
018006000000
018006000000
01800C000000
01800C000000
00C018000000
00C018000000
00C030000000
00C030000000
00E060000000
0060E0000000
0060C0000000
0061C0000000
006180000000
007380000000
003300000000
003700000000
003600000000
003E00000000
003C00000000
001C00000000
ENDCHAR
STARTCHAR 0057
ENCODING 87
SWIDTH 874 0
DWIDTH 68 0
BBX 64 55 7 0
BITMAP
E000000180000003
E0000003C0000006
60000003C0000006
60000007C000000E
60000006C000000C
6000000EC000001C
6000000CC0000018
6000000CC0000018
6000001860000038
7000001860000030
7000003060000070
3000003060000060
3000007060000060
30000060600000C0
300000E0600000C0
300000C0300001C0
300000C030000180
3000018030000180
3000018030000300
3800030030000300
1800030030000700
1800060030000600
1800060018000E00
18000E0018000C00
18000C0018000C00
18001C0018001800
1800180018001800
1800180018003800
1C00300018003000
1C0030001C003000
0C0060000C006000
0C0060000C006000
0C00E0000C00E000
0C00C0000C00C000
0C01C0000C01C000
0C0180000C018000
0C0380000C018000
0C03000006030000
0E03000006030000
0606000006070000
0606000006060000
060E000006060000
060C0000060C0000
061C0000060C0000
06180000071C0000
0638000003180000
0630000003380000
0730000003300000
0360000003300000
0360000003600000
03E0000003600000
03C0000003E00000
03C0000001C00000
0380000001C00000
0380000001800000
ENDCHAR
STARTCHAR 0058
ENCODING 88
SWIDTH 578 0
DWIDTH 45 0
BBX 48 55 -1 0
BITMAP
007000000007
00300000000E
00380000001C
001800000018
001C00000030
000C00000070
000E000000E0
0006000001C0
000700000380
000300000300
000380000600
000180000E00
0000C0001C00
0000C0003800
000060007000
000060006000
00003000C000
00003801C000
000018038000
00001C070000
00000C0E0000
00000E0C0000
000006180000
000007380000
000003700000
000001E00000
000001C00000
000003C00000
000003C00000
000006600000
00000C700000
00001C300000
000038380000
000070180000
0000601C0000
0000C00C0000
0001800E0000
000380060000
000700070000
000E00030000
000C00018000
001800018000
00300000C000
00700000C000
00E000006000
01C000006000
038000003000
030000003800
060000001800
0E0000001C00
1C0000000C00
380000000E00
700000000600
600000000700
C00000000300
ENDCHAR
STARTCHAR 0059
ENCODING 89
SWIDTH 578 0
DWIDTH 45 0
BBX 42 55 7 0
BITMAP
E000000001C0
600000000380
700000000300
700000000700
300000000E00
380000001C00
180000001800
1C0000003000
0C0000007000
0C000000E000
0E000000C000
060000018000
070000038000
030000070000
030000060000
0380000C0000
0180001C0000
01C000380000
00C000300000
00C000600000
006000E00000
006001C00000
007001800000
003003000000
003007000000
00180E000000
00180C000000
001C18000000
000C30000000
000C70000000
000660000000
0006C0000000
000380000000
000380000000
000300000000
000300000000
000300000000
000700000000
000600000000
000600000000
000600000000
000600000000
000600000000
000E00000000
000C00000000
000C00000000
000C00000000
000C00000000
000C00000000
001C00000000
001800000000
001800000000
001800000000
001800000000
001800000000
ENDCHAR
STARTCHAR 005A
ENCODING 90
SWIDTH 578 0
DWIDTH 45 0
BBX 46 55 0 0
BITMAP
003FFFFFFFFC
003FFFFFFFFC
000000000038
000000000070
000000000060
0000000000C0
000000000180
000000000380
000000000700
000000000E00
000000000C00
000000001800
000000003000
000000007000
00000000E000
00000001C000
000000018000
000000030000
000000060000
0000000E0000
0000001C0000
000000380000
000000300000
000000600000
000000C00000
000001C00000
000003800000
000007000000
000006000000
00000C000000
000018000000
000038000000
000070000000
0000E0000000
0001C0000000
000180000000
000300000000
000700000000
000E00000000
001C00000000
003800000000
003000000000
006000000000
00E000000000
01C000000000
038000000000
070000000000
060000000000
0C0000000000
1C0000000000
380000000000
700000000000
E00000000000
FFFFFFFFFC00
FFFFFFFFFC00
ENDCHAR
STARTCHAR 005B
ENCODING 91
SWIDTH 205 0
DWIDTH 16 0
BBX 22 75 1 -12
BITMAP
000FFC
000FFC
000C00
001800
001800
001800
001800
001800
001800
003800
003000
003000
003000
003000
003000
007000
006000
006000
006000
006000
006000
006000
00C000
00C000
00C000
00C000
00C000
00C000
01C000
018000
018000
018000
018000
018000
018000
030000
030000
030000
030000
030000
030000
070000
060000
060000
060000
060000
060000
0E0000
0C0000
0C0000
0C0000
0C0000
0C0000
0C0000
180000
180000
180000
180000
180000
180000
380000
300000
300000
300000
300000
300000
300000
600000
600000
600000
600000
600000
600000
FFE000
FFE000
ENDCHAR
STARTCHAR 005C
ENCODING 92
SWIDTH 360 0
DWIDTH 28 0
BBX 14 60 8 -5
BITMAP
C000
C000
C000
E000
6000
6000
6000
6000
7000
3000
3000
3000
3000
3800
1800
1800
1800
1800
1C00
0C00
0C00
0C00
0C00
0E00
0600
0600
0600
0600
0700
0300
0300
0300
0300
0380
0180
0180
0180
0180
01C0
00C0
00C0
00C0
00C0
0060
0060
0060
0060
0060
0030
0030
0030
0030
0030
0018
0018
0018
0018
0018
000C
000C
ENDCHAR
STARTCHAR 005D
ENCODING 93
SWIDTH 205 0
DWIDTH 16 0
BBX 22 75 -6 -12
BITMAP
000FFC
000FFC
00000C
00000C
00000C
00001C
000018
000018
000018
000018
000018
000018
000038
000030
000030
000030
000030
000030
000070
000060
000060
000060
000060
000060
000060
0000C0
0000C0
0000C0
0000C0
0000C0
0000C0
0001C0
000180
000180
000180
000180
000180
000380
000300
000300
000300
000300
000300
000300
000700
000600
000600
000600
000600
000600
000E00
000C00
000C00
000C00
000C00
000C00
000C00
001800
001800
001800
001800
001800
001800
003800
003000
003000
003000
003000
003000
007000
006000
006000
006000
FFE000
FFE000
ENDCHAR
STARTCHAR 005E
ENCODING 94
SWIDTH 398 0
DWIDTH 31 0
BBX 23 27 5 28
BITMAP
000380
000380
0007C0
0006C0
000CC0
000CC0
0018C0
003860
003060
007060
006060
00C070
00C030
018030
038030
030038
070018
060018
0C0018
0C0018
18001C
38000C
30000C
70000C
60000E
E00006
C00006
ENDCHAR
STARTCHAR 005F
ENCODING 95
SWIDTH 398 0
DWIDTH 31 0
BBX 31 2 -4 -2
BITMAP
FFFFFFFE
FFFFFFFE
ENDCHAR
STARTCHAR 0060
ENCODING 96
SWIDTH 244 0
DWIDTH 19 0
BBX 8 10 11 48
BITMAP
E0
60
30
30
18
1C
0C
0E
06
03
ENDCHAR
STARTCHAR 0061
ENCODING 97
SWIDTH 501 0
DWIDTH 39 0
BBX 34 43 1 -1
BITMAP
00003F8000
0003FFF000
000FC0FC00
001E001E00
0078000700
00E0000300
01C0000380
0180000180
0300000180
07000000C0
06000000C0
06000000C0
0000000180
0000000180
0000000180
0000000180
0000000180
0000000180
0000000380
0000FFFF00
001FFFFF00
007F800300
01F0000300
0780000300
0E00000600
1C00000600
3800000600
3000000600
6000000600
6000000600
E000000C00
C000000C00
C000001C00
C000003C00
C000007C00
C00000EC00
600001D800
6000039800
30000F1800
3C003C1800
0F83F81800
07FFC01C00
00FC000000
ENDCHAR
STARTCHAR 0062
ENCODING 98
SWIDTH 527 0
DWIDTH 41 0
BBX 35 59 2 -1
BITMAP
0030000000
0030000000
0030000000
0030000000
0030000000
0060000000
0060000000
0060000000
0060000000
0060000000
00E0000000
00C0000000
00C0000000
00C0000000
00C0000000
00C0000000
01C00FC000
0180FFF800
0183F07C00
0187800E00
019E000700
01B8000380
03F0000180
03E00001C0
03C00000C0
03800000C0
03800000E0
0300000060
0600000060
0600000060
0600000060
0600000060
0600000060
0600000060
0C00000060
0C00000060
0C000000E0
0C000000C0
0C000000C0
1C000000C0
18000000C0
18000001C0
1800000180
1800000180
1800000380
3800000300
3000000300
3000000600
3000000E00
3000000C00
3800001C00
7800003800
6C00003000
6600006000
670001C000
61C0038000
60FC3F0000
C03FFC0000
0007C00000
ENDCHAR
STARTCHAR 0063
ENCODING 99
SWIDTH 488 0
DWIDTH 38 0
BBX 32 43 3 -1
BITMAP
0000FE00
0007FFC0
001F83E0
00380078
00F0001C
01C0000C
03800006
03000006
06000003
0E000003
0C000003
18000003
18000003
38000003
30000000
30000000
60000000
60000000
60000000
E0000000
C0000000
C0000000
C0000000
C0000000
C0000000
C0000000
C0000000
C0000000
C0000000
C0000000
C000000C
C000001C
60000018
60000038
60000030
30000070
300000E0
180001C0
1C000780
0F001F00
03F1FC00
01FFF000
001F0000
ENDCHAR
STARTCHAR 0064
ENCODING 100
SWIDTH 527 0
DWIDTH 41 0
BBX 37 59 4 -1
BITMAP
0000000018
0000000018
0000000018
0000000038
0000000030
0000000030
0000000030
0000000030
0000000030
0000000070
0000000060
0000000060
0000000060
0000000060
0000000060
00000000C0
0000FC00C0
000FFF80C0
003F07C0C0
007800F0C0
00E00038C0
01C0001980
0380000D80
0700000780
0600000780
0E00000380
0C00000380
1800000300
1800000300
3800000300
3000000300
3000000300
6000000700
6000000600
6000000600
E000000600
C000000600
C000000600
C000000E00
C000000C00
C000000C00
C000000C00
C000000C00
C000000C00
C000001800
C000001800
C000001800
C000001800
C000001800
C000003800
6000007000
600000F000
700001F000
300003B000
18000F3000
1E003C7000
0FC3F86000
03FFC06000
007E000000
ENDCHAR
STARTCHAR 0065
ENCODING 101
SWIDTH 488 0
DWIDTH 38 0
BBX 34 43 2 -1
BITMAP
00003F0000
0003FFE000
000FC1F000
001E003800
0038001C00
00E0000E00
00C0000700
0180000300
0380000380
0700000180
0600000180
0C00000180
0C00000180
18000001C0
18000000C0
30000001C0
3000000180
3000000180
7FFFFFFF80
7FFFFFFF80
6000000000
6000000000
6000000000
6000000000
E000000000
C000000000
E000000000
6000000000
6000000000
6000000000
6000000000
6000000000
3000000000
3000000000
3800000000
1800000000
1C00003800
0E00007000
070000E000
03C003C000
01F83F0000
007FFC0000
0007C00000
ENDCHAR
STARTCHAR 0066
ENCODING 102
SWIDTH 295 0
DWIDTH 23 0
BBX 26 59 5 0
BITMAP
00007FC0
0001FF80
0003C000
000F0000
000E0000
001C0000
00380000
00300000
00700000
00600000
00600000
00600000
00E00000
00C00000
00C00000
00C00000
00C00000
00C00000
FFFFF000
FFFFF000
01800000
01800000
01800000
01800000
03000000
03000000
03000000
03000000
03000000
07000000
06000000
06000000
06000000
06000000
06000000
0E000000
0C000000
0C000000
0C000000
0C000000
0C000000
1C000000
18000000
18000000
18000000
18000000
18000000
30000000
30000000
30000000
30000000
30000000
30000000
60000000
60000000
60000000
60000000
60000000
60000000
ENDCHAR
STARTCHAR 0067
ENCODING 103
SWIDTH 527 0
DWIDTH 41 0
BBX 37 59 1 -17
BITMAP
00001F8000
0001FFF018
0007E0F818
000F001E18
001C000738
0038000330
00700001B0
00E00001F0
00C00000F0
01C00000F0
0180000070
0300000060
0300000060
0600000060
0600000060
0E00000060
0C000000E0
0C000000C0
0C000000C0
1C000000C0
18000000C0
18000000C0
1800000180
1800000180
1800000180
1800000180
1800000180
1800000380
1800000300
1800000300
1800000300
1800000300
1800000700
1800000700
0C00000E00
0C00001E00
0E00003E00
0600007600
070001E600
0380078E00
01F87E0C00
007FF80C00
000FC00C00
0000000C00
0000001800
0000001800
0000001800
0000003000
0000003000
0000006000
000000E000
E00001C000
6000038000
3000070000
3C000E0000
0E003C0000
07F7F80000
01FFE00000
0008000000
ENDCHAR
STARTCHAR 0068
ENCODING 104
SWIDTH 527 0
DWIDTH 41 0
BBX 34 58 2 0
BITMAP
0030000000
0030000000
0030000000
0030000000
0030000000
0070000000
0060000000
0060000000
0060000000
0060000000
0060000000
00C0000000
00C0000000
00C0000000
00C0000000
00C0000000
00C00FE000
01807FFC00
0181F81E00
0183C00700
0187000380
018C000180
0198000180
03300000C0
03600000C0
03C00000C0
03C00000C0
03800000C0
07800000C0
07000000C0
07000000C0
06000000C0
06000000C0
06000001C0
0E00000180
0C00000180
0C00000180
0C00000180
0C00000180
0C00000300
1800000300
1800000300
1800000300
1800000300
1800000300
1800000600
3000000600
3000000600
3000000600
3000000600
3000000E00
3000000C00
6000000C00
6000000C00
6000000C00
6000000C00
6000001C00
E000001800
ENDCHAR
STARTCHAR 0069
ENCODING 105
SWIDTH 192 0
DWIDTH 15 0
BBX 12 56 3 0
BITMAP
0070
00F0
00F0
0070
0000
0000
0000
0000
0000
0000
0000
0000
0000
0000
0000
0180
0180
0380
0300
0300
0300
0300
0300
0700
0600
0600
0600
0600
0600
0E00
0C00
0C00
0C00
0C00
0C00
1800
1800
1800
1800
1800
1800
3000
3000
3000
3000
3000
7000
6000
6000
6000
6000
6000
E000
C000
C000
C000
ENDCHAR
STARTCHAR 006A
ENCODING 106
SWIDTH 205 0
DWIDTH 16 0
BBX 27 73 -12 -17
BITMAP
000000E0
000000E0
000001E0
000000E0
00000000
00000000
00000000
00000000
00000000
00000000
00000000
00000000
00000000
00000000
00000000
00000300
00000300
00000300
00000600
00000600
00000600
00000600
00000600
00000E00
00000C00
00000C00
00000C00
00000C00
00000C00
00001C00
00001800
00001800
00001800
00001800
00001800
00003800
00003000
00003000
00003000
00003000
00003000
00006000
00006000
00006000
00006000
00006000
00006000
0000C000
0000C000
0000C000
0000C000
0000C000
0001C000
00018000
00018000
00018000
00018000
00018000
00038000
00030000
00030000
00030000
00030000
00060000
00060000
000E0000
000C0000
001C0000
00380000
00F00000
E7E00000
FF800000
10000000
ENDCHAR
STARTCHAR 006B
ENCODING 107
SWIDTH 450 0
DWIDTH 35 0
BBX 35 58 2 0
BITMAP
0030000000
0030000000
0030000000
0030000000
0030000000
0070000000
0060000000
0060000000
0060000000
0060000000
0060000000
00C0000000
00C0000000
00C0000000
00C0000000
00C0000000
00C0000000
01800001E0
0180000380
0180000700
0180000E00
0180001C00
0180007800
030000E000
030001C000
0300038000
03000F0000
03001C0000
0700380000
0600700000
0600E00000
0603C00000
0607000000
060E000000
0E1C000000
0C7C000000
0CE6000000
0DC7000000
0F83000000
0E01800000
1C01C00000
1800C00000
1800600000
1800700000
1800300000
1800180000
30001C0000
30000C0000
30000E0000
3000070000
3000030000
3000038000
600001C000
600000C000
600000E000
6000007000
6000003000
E000003800
ENDCHAR
STARTCHAR 006C
ENCODING 108
SWIDTH 192 0
DWIDTH 15 0
BBX 12 58 3 0
BITMAP
0030
0030
0060
0060
0060
0060
0060
0060
00C0
00C0
00C0
00C0
00C0
00C0
0180
0180
0180
0180
0180
0380
0300
0300
0300
0300
0300
0700
0600
0600
0600
0600
0600
0E00
0C00
0C00
0C00
0C00
0C00
1800
1800
1800
1800
1800
1800
3000
3000
3000
3000
3000
7000
6000
6000
6000
6000
6000
E000
C000
C000
C000
ENDCHAR
STARTCHAR 006D
ENCODING 109
SWIDTH 861 0
DWIDTH 67 0
BBX 61 42 2 0
BITMAP
00000FE00001FC00
01807FF8000FFF00
0181F03E007E07C0
0183800700F000E0
038E000301C00060
031C000187000070
033800018E000030
03700001CC000030
03600000D8000018
03C00000F0000018
07800000F0000018
07800000E0000018
07000000E0000018
07000000C0000018
06000000C0000018
06000000C0000038
0C00000180000030
0C00000180000030
0C00000180000030
0C00000180000030
0C00000180000030
1C00000300000070
1800000300000060
1800000300000060
1800000300000060
1800000300000060
1800000300000060
38000006000000E0
30000006000000C0
30000006000000C0
30000006000000C0
30000006000000C0
30000006000000C0
7000000C00000180
6000000C00000180
6000000C00000180
6000000C00000180
6000000C00000180
6000000C00000180
E000001800000300
C000001800000300
C000001800000300
ENDCHAR
STARTCHAR 006E
ENCODING 110
SWIDTH 527 0
DWIDTH 41 0
BBX 34 42 2 0
BITMAP
00000FE000
01807FFC00
0181F81E00
0183C00700
0187000380
018C000180
0398000180
03300000C0
03600000C0
03C00000C0
03C00000C0
03800000C0
07800000C0
07000000C0
07000000C0
06000000C0
06000000C0
06000001C0
0E00000180
0C00000180
0C00000180
0C00000180
0C00000180
0C00000300
1800000300
1800000300
1800000300
1800000300
1800000300
1800000600
3000000600
3000000600
3000000600
3000000600
3000000E00
7000000C00
6000000C00
6000000C00
6000000C00
6000000C00
6000001C00
E000001800
ENDCHAR
STARTCHAR 006F
ENCODING 111
SWIDTH 527 0
DWIDTH 41 0
BBX 35 43 3 -1
BITMAP
00007F0000
0003FFE000
000FC1F800
003C003C00
0070000E00
00E0000700
01C0000380
0380000180
07000001C0
0E000000C0
0C000000C0
1C000000E0
1800000060
3000000060
3000000060
7000000060
6000000060
6000000060
E000000060
C000000060
C000000060
C000000060
C000000060
C0000000E0
C0000000C0
C0000000C0
C0000000C0
C000000180
C000000180
C000000380
C000000300
C000000700
6000000600
6000000C00
7000001C00
3000003800
3800007000
1C0000E000
0E0003C000
07800F8000
03F8FE0000
00FFF80000
000F800000
ENDCHAR
STARTCHAR 0070
ENCODING 112
SWIDTH 527 0
DWIDTH 41 0
BBX 37 58 0 -16
BITMAP
000003F000
00603FFE00
0060FC1F00
0061E00380
00678001C0
006E0000E0
00FC000060
00F8000030
00F0000030
00E0000030
00C0000038
00C0000018
0180000018
0180000018
0180000018
0180000018
0180000018
0380000018
0300000018
0300000018
0300000018
0300000030
0300000030
0700000030
0600000030
0600000070
0600000060
0600000060
06000000E0
0E000000C0
0C000000C0
0C00000180
0C00000380
0C00000300
0E00000700
1E00000E00
1B00000C00
1B80001800
19C0007000
18F000E000
183F0FC000
300FFF0000
3001F00000
3000000000
3000000000
3000000000
3000000000
6000000000
6000000000
6000000000
6000000000
6000000000
E000000000
C000000000
C000000000
C000000000
C000000000
C000000000
ENDCHAR
STARTCHAR 0071
ENCODING 113
SWIDTH 527 0
DWIDTH 41 0
BBX 34 58 4 -16
BITMAP
0000FC0000
000FFF80C0
003F07C0C0
007800F0C0
00E00038C0
01C0001D80
0380000D80
0700000780
0600000780
0E00000380
0C00000380
1800000300
1800000300
3800000300
3000000300
3000000300
6000000700
6000000600
6000000600
E000000600
C000000600
C000000600
C000000E00
C000000C00
C000000C00
C000000C00
C000000C00
C000000C00
C000001800
C000001800
C000001800
C000001800
C000001800
C000003800
6000007000
600000F000
700001F000
300003B000
18000F3000
1E003C3000
0FC3F06000
03FFC06000
007E006000
0000006000
0000006000
000000E000
000000C000
000000C000
000000C000
000000C000
000000C000
0000018000
0000018000
0000018000
0000018000
0000018000
0000018000
0000030000
ENDCHAR
STARTCHAR 0072
ENCODING 114
SWIDTH 321 0
DWIDTH 25 0
BBX 25 42 2 0
BITMAP
00001F80
0180FF80
0183E000
01870000
018E0000
01980000
03B00000
03600000
03600000
03C00000
03800000
03800000
07000000
07000000
06000000
06000000
06000000
06000000
0E000000
0C000000
0C000000
0C000000
0C000000
0C000000
18000000
18000000
18000000
18000000
18000000
18000000
30000000
30000000
30000000
30000000
30000000
70000000
60000000
60000000
60000000
60000000
60000000
E0000000
ENDCHAR
STARTCHAR 0073
ENCODING 115
SWIDTH 475 0
DWIDTH 37 0
BBX 32 43 2 -1
BITMAP
0000FE00
000FFFC0
003F03F0
00780078
00E0001C
01C0000E
03800006
07000007
06000003
06000003
06000003
0E000003
0C000000
06000000
06000000
07000000
03800000
01C00000
00F00000
003E0000
000FE000
0001FC00
00001F00
00000780
000001E0
00000070
00000030
00000038
00000018
00000018
00000018
00000018
C0000018
C0000038
C0000030
E0000070
60000060
700001E0
380003C0
1E000F00
0FE0FE00
03FFF000
003F0000
ENDCHAR
STARTCHAR 0074
ENCODING 116
SWIDTH 295 0
DWIDTH 23 0
BBX 19 53 4 -1
BITMAP
003000
003000
006000
006000
006000
006000
006000
00E000
00C000
00C000
00C000
FFFFE0
FFFFE0
01C000
018000
018000
018000
018000
018000
038000
030000
030000
030000
030000
030000
060000
060000
060000
060000
060000
060000
0C0000
0C0000
0C0000
0C0000
0C0000
1C0000
180000
180000
180000
180000
180000
380000
300000
300000
300000
300000
380000
180000
1C0000
0F0800
07F800
01F000
ENDCHAR
STARTCHAR 0075
ENCODING 117
SWIDTH 527 0
DWIDTH 41 0
BBX 34 42 4 -1
BITMAP
06000000C0
06000000C0
06000000C0
06000000C0
0E00000180
0C00000180
0C00000180
0C00000180
0C00000180
0C00000380
1C00000300
1800000300
1800000300
1800000300
1800000300
1800000700
3800000600
3000000600
3000000600
3000000600
3000000600
3000000E00
6000000C00
6000000C00
6000000C00
6000000C00
6000000C00
6000001C00
6000001800
E000001800
E000003800
6000003800
6000007800
600000F000
600000F000
700001B000
3000073000
38000E3000
1C003C7000
0F87F86000
03FFC06000
007C000000
ENDCHAR
STARTCHAR 0076
ENCODING 118
SWIDTH 462 0
DWIDTH 36 0
BBX 32 41 5 0
BITMAP
C0000003
C0000007
C0000006
C000000E
E000000C
60000018
60000018
60000030
60000030
30000060
30000060
300000C0
300001C0
38000180
18000380
18000300
18000700
18000600
0C000E00
0C000C00
0C001800
0C001800
0E003000
06003000
06006000
0600E000
0700C000
0301C000
03018000
03038000
03030000
03870000
01860000
018E0000
018C0000
01D80000
00D80000
00F00000
00F00000
00E00000
00E00000
ENDCHAR
STARTCHAR 0077
ENCODING 119
SWIDTH 732 0
DWIDTH 57 0
BBX 51 41 6 0
BITMAP
E00000E00000E0
E00000E00000C0
E00001E00001C0
600001E0000180
60000360000380
60000360000300
60000660000700
60000670000600
60000E70000600
70000C30000E00
70001C30000C00
70001830001C00
30003830001800
30003030003800
30007030003000
30006038007000
3000E018006000
3000C01800E000
3000C01800C000
3801801800C000
3801801801C000
18030018018000
18030018038000
1806000C030000
1806000C070000
180C000C060000
180C000C0E0000
1818000C0C0000
1C18000C0C0000
1C30000C180000
0C300006180000
0C600006380000
0C600006300000
0CC00006700000
0CC00006600000
0D800006600000
0D800006C00000
0F000003C00000
0F000003800000
07000003800000
06000003000000
ENDCHAR
STARTCHAR 0078
ENCODING 120
SWIDTH 462 0
DWIDTH 36 0
BBX 37 41 -1 0
BITMAP
0180000038
01C0000070
00C00000E0
00600001C0
0070000180
0030000300
0038000700
0018000E00
001C001C00
000C003800
000E007000
0006006000
000300C000
000301C000
0001838000
0001C70000
0000CE0000
0000FC0000
0000780000
0000700000
0000700000
0000F80000
0001D80000
00038C0000
00070C0000
0006060000
000C060000
001C030000
0038038000
0070018000
00E001C000
00C000C000
018000E000
0380006000
0700007000
0E00003000
1C00001800
3800001C00
3000000C00
6000000E00
E000000600
ENDCHAR
STARTCHAR 0079
ENCODING 121
SWIDTH 462 0
DWIDTH 36 0
BBX 41 58 -3 -17
BITMAP
00C000000380
00C000000300
00C000000700
00E000000600
006000000E00
006000000C00
006000001800
007000001800
003000003000
003000007000
003000006000
00300000E000
00380000C000
00180001C000
001800018000
001800038000
001C00030000
000C00060000
000C00060000
000C000C0000
000C001C0000
000E00180000
000600380000
000600300000
000600700000
000600600000
000300E00000
000300C00000
000301C00000
000301800000
000383000000
000187000000
000186000000
00018E000000
00018C000000
0001DC000000
0000D8000000
0000F8000000
0000F0000000
0000F0000000
000060000000
0000E0000000
0000C0000000
000180000000
000380000000
000300000000
000700000000
000600000000
000E00000000
000C00000000
001800000000
003800000000
007000000000
00E000000000
01C000000000
CF8000000000
FF0000000000
300000000000
ENDCHAR
STARTCHAR 007A
ENCODING 122
SWIDTH 462 0
DWIDTH 36 0
BBX 36 41 -1 0
BITMAP
00FFFFFFF0
00FFFFFFF0
0000000060
00000000C0
00000001C0
0000000380
0000000700
0000000E00
0000001C00
0000001800
0000003000
0000006000
000000E000
000001C000
0000038000
0000070000
00000E0000
00000C0000
0000180000
0000300000
0000700000
0000E00000
0001C00000
0003800000
0007000000
0006000000
000C000000
0018000000
0038000000
0070000000
00E0000000
01C0000000
0380000000
0300000000
0600000000
0C00000000
1C00000000
3800000000
7000000000
FFFFFFFF00
FFFFFFFE00
ENDCHAR
STARTCHAR 007B
ENCODING 123
SWIDTH 308 0
DWIDTH 24 0
BBX 28 78 2 -17
BITMAP
00000010
00000070
000001E0
00000780
00000E00
00001C00
00003800
00007000
0000E000
0000C000
0001C000
00018000
00038000
00030000
00030000
00030000
00060000
00060000
00060000
00060000
00060000
000E0000
000C0000
000C0000
000C0000
000C0000
000C0000
000C0000
00180000
00180000
00180000
00300000
00300000
00600000
00E00000
01C00000
03800000
1F000000
7C000000
F8000000
7C000000
07000000
03000000
01800000
01800000
00C00000
00C00000
00C00000
00C00000
00C00000
00C00000
00C00000
00C00000
01C00000
01800000
01800000
01800000
01800000
01800000
01800000
03000000
03000000
03000000
03000000
03000000
03000000
03000000
01800000
01800000
01800000
01C00000
00C00000
00600000
00700000
003C0000
001E0000
00070000
00010000
ENDCHAR
STARTCHAR 007C
ENCODING 124
SWIDTH 180 0
DWIDTH 14 0
BBX 12 65 2 -10
BITMAP
0030
0060
0060
0060
0060
0060
0060
00E0
00C0
00C0
00C0
00C0
00C0
00C0
0180
0180
0180
0180
0180
0180
0380
0300
0300
0300
0300
0300
0300
0600
0600
0600
0600
0600
0600
0E00
0C00
0C00
0C00
0C00
0C00
1C00
1800
1800
1800
1800
1800
1800
3000
3000
3000
3000
3000
3000
7000
6000
6000
6000
6000
6000
6000
C000
C000
C000
C000
C000
C000
ENDCHAR
STARTCHAR 007D
ENCODING 125
SWIDTH 308 0
DWIDTH 24 0
BBX 28 78 -6 -17
BITMAP
00080000
000E0000
00078000
0001C000
0000E000
00006000
00003000
00003800
00001800
00001800
00001C00
00000C00
00000C00
00000C00
00000C00
00000C00
00000C00
00000C00
00000C00
00001800
00001800
00001800
00001800
00001800
00001800
00003000
00003000
00003000
00003000
00003000
00003000
00003000
00003000
00001800
00001800
00001C00
00000E00
00000780
000001F0
000001F0
000007C0
00001E00
00003800
00007000
00006000
0000E000
0000C000
00018000
00018000
00018000
00038000
00030000
00030000
00030000
00030000
00030000
00030000
00070000
00060000
00060000
00060000
00060000
000E0000
000C0000
000C0000
001C0000
00180000
00380000
00300000
00700000
00E00000
01C00000
03800000
07000000
1E000000
7C000000
F0000000
80000000
ENDCHAR
STARTCHAR 007E
ENCODING 126
SWIDTH 668 0
DWIDTH 52 0
BBX 42 12 5 17
BITMAP
01FF000000C0
03FFC00001C0
0F01E0000180
1C0070000180
180038000380
38001C000300
30000E000700
600007000E00
600003801C00
E00001E03800
C000007FF000
0000003FC000
ENDCHAR
STARTCHAR 00A0
ENCODING 160
SWIDTH 231 0
DWIDTH 18 0
BBX 0 0 0 0
BITMAP
ENDCHAR
STARTCHAR 00A1
ENCODING 161
SWIDTH 180 0
DWIDTH 14 0
BBX 12 56 0 -14
BITMAP
0070
00F0
00F0
00F0
0000
0000
0000
0000
0000
0000
0000
0000
0000
0000
0000
0000
0180
0180
0180
0380
0300
0300
0300
0300
0300
0700
0600
0600
0600
0600
0600
0E00
0C00
0C00
0C00
0C00
0C00
1800
1800
1800
1800
1800
1800
3000
3000
3000
3000
3000
3000
6000
6000
6000
6000
6000
E000
C000
ENDCHAR
STARTCHAR 00A2
ENCODING 162
SWIDTH 514 0
DWIDTH 40 0
BBX 33 59 4 -9
BITMAP
0000060000
0000060000
00000E0000
00000C0000
00000C0000
00000C0000
00000C0000
00000C0000
00007E0000
0007FFE000
000FC1F000
003C003800
0070001C00
00E0000E00
01C0000700
0380000300
0700000300
0600000380
0E00000180
0C00000180
1800000180
1800000180
3800000000
3000000000
3000000000
6000000000
6000000000
6000000000
6000000000
6000000000
C000000000
C000000000
C000000000
C000000000
C000000000
C000000000
C000000000
C000000000
C000000C00
C000001C00
6000001800
6000003800
6000003000
3000007000
300000E000
180001C000
1C00078000
0F000F0000
03F1FC0000
01FFF00000
001F000000
000C000000
000C000000
000C000000
001C000000
0018000000
0018000000
0018000000
0018000000
ENDCHAR
STARTCHAR 00A3
ENCODING 163
SWIDTH 540 0
DWIDTH 42 0
BBX 42 56 0 0
BITMAP
0000003FC000
000001FFF000
000003C03C00
00000F000E00
00001C000700
000038000300
000030000380
000070000180
0000E0000180
0000C0000180
0001C00001C0
0001800000C0
0001800000C0
0003800001C0
000300000180
000300000000
000300000000
000300000000
000700000000
000600000000
000600000000
000600000000
000600000000
000600000000
000600000000
000E00000000
000C00000000
000C00000000
000C00000000
0FFFFFF00000
0FFFFFE00000
000C00000000
001C00000000
001800000000
001800000000
001800000000
001800000000
001800000000
001800000000
003800000000
003000000000
003000000000
003000000000
003000000000
003000000000
007000000000
006000000000
006000000000
006000000000
00C000000000
00C000000000
01C000000000
038000000000
070000000000
FFFFFFFFE000
FFFFFFFFE000
ENDCHAR
STARTCHAR 00A4
ENCODING 164
SWIDTH 707 0
DWIDTH 55 0
BBX 55 49 0 -1
BITMAP
00400000000004
00E0001FE0000E
007000FFFE001C
003807F03F8038
00181F0003C0F0
000C3C0000E1E0
000EF000007380
0007E000003F00
00038000001E00
00070000000E00
000E0000000600
000C0000000700
00180000000300
00380000000380
00700000000180
00600000000180
00E00000000180
00C00000000180
01C000000000C0
018000000000C0
018000000000C0
030000000000C0
030000000000C0
030000000000C0
03000000000180
06000000000180
06000000000180
06000000000180
06000000000380
06000000000300
06000000000300
07000000000600
07000000000600
03000000000E00
03000000000C00
03000000001800
03800000003800
01800000007000
01C00000006000
00C0000000C000
00E0000001C000
01F0000007C000
03B800000FE000
071C00001C7000
0E0E0000783800
3C078001E01800
7001F83FC01C00
E0007FFE000E00
40000FE0000400
ENDCHAR
STARTCHAR 00A5
ENCODING 165
SWIDTH 488 0
DWIDTH 38 0
BBX 40 55 2 0
BITMAP
0600000003
0700000006
030000000E
030000001C
0180000018
0180000030
01C0000070
00C0000060
00C00000C0
00E00001C0
0060000180
0060000300
0070000600
0030000E00
0030000C00
0018001800
0018003800
0018003000
000C006000
000C00E000
000E01C000
0006018000
0006030000
0003070000
0003060000
00030C0000
00019C0000
0001980000
0001B00000
3FFFFFFF80
3FFFFFFF80
0000C00000
0000C00000
0000C00000
0000C00000
0001800000
0001800000
0001800000
0001800000
0001800000
0001800000
FFFFFFFE00
FFFFFFFE00
0003000000
0003000000
0003000000
0003000000
0006000000
0006000000
0006000000
0006000000
0006000000
000E000000
000C000000
000C000000
ENDCHAR
STARTCHAR 00A6
ENCODING 166
SWIDTH 180 0
DWIDTH 14 0
BBX 13 65 1 -10
BITMAP
0018
0018
0038
0030
0030
0030
0030
0030
0060
0060
0060
0060
0060
0060
00C0
00C0
00C0
00C0
00C0
00C0
0180
0180
0180
0180
0180
0380
0300
0300
0000
0000
0000
0000
0000
0000
0000
0000
0000
0C00
0C00
0C00
0C00
0C00
1C00
1800
1800
1800
1800
1800
3800
3000
3000
3000
3000
3000
7000
6000
6000
6000
6000
6000
C000
C000
C000
C000
C000
ENDCHAR
STARTCHAR 00A7
ENCODING 167
SWIDTH 578 0
DWIDTH 45 0
BBX 43 75 0 -19
BITMAP
000001FF8000
00000FFFF000
00003F00FC00
0000F0001E00
0001C0000F00
000700000380
000E00000380
000C000001C0
0018000000C0
0018000000C0
0030000000C0
0030000000E0
003000000060
007000000060
006000000060
006000000060
006000000000
003000000000
003000000000
003800000000
001C00000000
000E00000000
000700000000
0001C0000000
0000F8000000
0003FF000000
001E03E00000
0070007C0000
00E0000F8000
01800003C000
03000000F000
070000003800
060000001C00
0E0000000C00
0C0000000600
0C0000000600
0C0000000600
0C0000000600
0C0000000600
0C0000000600
060000000600
060000000600
030000000C00
01C000001C00
00E000001800
007800007000
001F0000E000
0007E0078000
0000FDFE0000
00001FE00000
000003E00000
000000780000
0000001E0000
000000070000
000000030000
000000018000
000000018000
00000000C000
C0000000C000
C0000000C000
C0000000C000
C0000000C000
C0000001C000
C00000018000
C00000018000
C00000038000
600000030000
600000060000
3000000E0000
3800003C0000
1C0000780000
0F0003E00000
03F03FC00000
00FFFE000000
001FE0000000
ENDCHAR
STARTCHAR 00A8
ENCODING 168
SWIDTH 424 0
DWIDTH 33 0
BBX 21 4 11 52
BITMAP
700030
F00078
F00078
700070
ENDCHAR
STARTCHAR 00A9
ENCODING 169
SWIDTH 784 0
DWIDTH 61 0
BBX 53 57 5 -1
BITMAP
0000007FF00000
000003FFFE0000
00001FC01F8000
00007C0003E000
0000F00000F000
0003C000003800
00070000001C00
000E0000000E00
001C0000000700
00380000000380
00700000000180
00E000000001C0
01C0003F0000C0
038001FFC00060
030007C1E00060
07000F00700070
0E001C00180030
0C003800180030
1C0030000C0030
180070000C0038
380060000C0018
3000C0000C0018
3000C0000C0018
7001C0000C0018
60018000000018
60018000000018
60018000000018
E0038000000018
C0030000000038
C0030000000030
C0030000000030
C0030000000030
C0030000000070
C0030000300060
C0030000300060
C00300003000E0
C00300006000C0
E00180006001C0
60018000C00180
6001C001C00380
6000E003800300
70007007000700
30003FFE000E00
38001FF8000C00
18000100001C00
1C000000003800
0C000000007000
0E00000000E000
0700000001C000
03800000078000
01C000000F0000
00E000003C0000
00780000F80000
003E0003E00000
000FE07F800000
0003FFFC000000
00003FC0000000
ENDCHAR
STARTCHAR 00AA
ENCODING 170
SWIDTH 424 0
DWIDTH 33 0
BBX 22 30 8 26
BITMAP
003FC0
00FFF0
03E078
070018
0E001C
0C000C
18000C
18000C
38000C
00000C
00000C
00000C
00000C
007FFC
03FFFC
0F8018
1C0018
380018
700018
600018
E00030
C00030
C00030
C00070
C000F0
E001B0
700730
3E3E30
1FF830
03C000
ENDCHAR
STARTCHAR 00AB
ENCODING 171
SWIDTH 424 0
DWIDTH 33 0
BBX 26 29 5 5
BITMAP
000E01C0
001C0380
00380700
00300E00
00601C00
00E03800
01C07000
0380E000
0701C000
0E038000
1C070000
38070000
700E0000
E01C0000
E0380000
E01C0000
700C0000
300E0000
38070000
1C070000
1C038000
0E018000
0601C000
0700C000
0380E000
03807000
01C03000
00C03800
00E01800
ENDCHAR
STARTCHAR 00AC
ENCODING 172
SWIDTH 514 0
DWIDTH 40 0
BBX 30 14 5 15
BITMAP
FFFFFFFC
FFFFFFFC
00000018
00000018
00000018
00000018
00000018
00000038
00000030
00000030
00000030
00000030
00000030
00000070
ENDCHAR
STARTCHAR 00AD
ENCODING 173
SWIDTH 282 0
DWIDTH 22 0
BBX 17 2 3 24
BITMAP
FFFF80
FFFF80
ENDCHAR
STARTCHAR 00AE
ENCODING 174
SWIDTH 784 0
DWIDTH 61 0
BBX 53 57 5 -1
BITMAP
0000007FF00000
000007FFFE0000
00001FC01F8000
00007C0003E000
0001F00000F000
0003C000003800
00070000001C00
001E0000000E00
00380000000700
00700000000300
00E00000000380
00C000000001C0
01800FFF0000C0
03800FFFE000E0
07000C00F00060
06000C00380060
0E001C001C0070
0C0018000C0030
180018000C0030
180018000C0030
300018000C0030
300018000C0038
700038000C0018
600030001C0018
60003000180018
60003000300038
C0003000700038
C0003003C00030
C0003FFF800030
C0007FFF000030
C0006007800030
C0006001C00070
C0006000E00060
C0006000600060
C0006000600060
C000E0006000C0
C000C0006000C0
C000C0006001C0
C000C000600180
E000C000E00380
6000C000E00700
6000C000E00600
70018000E00E00
30018000E01C00
38000000001800
18000000003800
1C000000007000
0E00000000E000
0700000003C000
03800000078000
01C000000E0000
00E000003C0000
00780000F80000
003E0003E00000
000FE07F800000
0003FFFC000000
00003FC0000000
ENDCHAR
STARTCHAR 00AF
ENCODING 175
SWIDTH 372 0
DWIDTH 29 0
BBX 21 2 10 53
BITMAP
FFFFF8
FFFFF8
ENDCHAR
STARTCHAR 00B0
ENCODING 176
SWIDTH 360 0
DWIDTH 28 0
BBX 17 18 10 38
BITMAP
01F800
07FC00
0E0E00
1C0300
300380
700180
600180
C00180
C00180
C00180
C00180
C00380
C00300
E00600
700E00
383C00
1FF000
0FC000
ENDCHAR
STARTCHAR 00B1
ENCODING 177
SWIDTH 501 0
DWIDTH 39 0
BBX 37 48 1 0
BITMAP
0000030000
0000030000
0000070000
0000060000
0000060000
0000060000
0000060000
0000060000
0000060000
00000C0000
00000C0000
00000C0000
00000C0000
00000C0000
00000C0000
00001C0000
0000180000
1FFFFFFFF8
1FFFFFFFF0
0000180000
0000180000
0000180000
0000300000
0000300000
0000300000
0000300000
0000300000
0000300000
0000700000
0000600000
0000600000
0000600000
0000600000
0000600000
0000E00000
0000C00000
0000C00000
0000000000
0000000000
0000000000
0000000000
0000000000
0000000000
0000000000
0000000000
0000000000
FFFFFFFE00
FFFFFFFE00
ENDCHAR
STARTCHAR 00B2
ENCODING 178
SWIDTH 347 0
DWIDTH 27 0
BBX 23 31 4 25
BITMAP
000300
003FE0
00F8F8
01C01C
03000C
06000C
0E0006
0C0006
1C0006
00000C
00000C
00001C
000018
000030
000070
0000E0
0001C0
000300
000600
001C00
003800
007000
00E000
01C000
030000
060000
0C0000
380000
700000
7FFFF8
FFFFF8
ENDCHAR
STARTCHAR 00B3
ENCODING 179
SWIDTH 347 0
DWIDTH 27 0
BBX 22 31 5 25
BITMAP
000E00
007FE0
01F1F0
038038
06001C
0C000C
0C000C
18000C
18000C
00000C
00001C
000018
000070
0000E0
000F80
00FE00
001F80
0000E0
000070
000030
000030
000030
000030
C00030
C00030
C00060
E000E0
6001C0
380780
1FFF00
07F800
ENDCHAR
STARTCHAR 00B4
ENCODING 180
SWIDTH 231 0
DWIDTH 18 0
BBX 10 10 9 48
BITMAP
01C0
0180
0300
0600
0E00
1C00
3800
7000
6000
C000
ENDCHAR
STARTCHAR 00B5
ENCODING 181
SWIDTH 527 0
DWIDTH 41 0
BBX 38 57 0 -16
BITMAP
006000000C
006000000C
006000000C
006000000C
006000001C
00C0000018
00C0000018
00C0000018
00C0000018
00C0000018
00C0000030
0180000030
0180000030
0180000030
0180000030
0180000030
0180000060
0300000060
0300000060
0300000060
0300000060
0300000060
03000000C0
06000000C0
06000000C0
06000000C0
06000001C0
06000001C0
0E00000180
0E00000380
0E00000380
0E00000780
0E00000780
0E00000F80
1F00001F00
1B00003B00
1B80007300
198000E300
18E003C300
187C3F0200
303FFE0600
3007C00000
3000000000
3000000000
3000000000
3000000000
6000000000
6000000000
6000000000
6000000000
6000000000
6000000000
C000000000
C000000000
C000000000
C000000000
C000000000
ENDCHAR
STARTCHAR 00B6
ENCODING 182
SWIDTH 437 0
DWIDTH 34 0
BBX 28 55 6 0
BITMAP
0001FFF0
000FFFF0
003FFFF0
007FFFE0
01FFFFE0
03FFFFE0
07FFFFE0
0FFFFFE0
0FFFFFE0
1FFFFFC0
3FFFFFC0
3FFFFFC0
3FFFFFC0
7FFFFFC0
7FFFFFC0
7FFFFF80
FFFFFF80
FFFFFF80
FFFFFF80
FFFFFF80
FFFFFF00
FFFFFF00
FFFFFF00
FFFFFF00
FFFFFF00
7FFFFF00
7FFFFE00
7FFFFE00
3FFFFE00
1FFFFE00
1FFFFE00
0FFFFE00
03FFFC00
01FFFC00
003FFC00
00000C00
00000C00
00001C00
00001800
00001800
00001800
00001800
00001800
00003800
00003000
00003000
00003000
00003000
00003000
00006000
00006000
00006000
00006000
00006000
00006000
ENDCHAR
STARTCHAR 00B7
ENCODING 183
SWIDTH 218 0
DWIDTH 17 0
BBX 4 4 7 25
BITMAP
70
F0
F0
70
ENDCHAR
STARTCHAR 00B8
ENCODING 184
SWIDTH 231 0
DWIDTH 18 0
BBX 12 17 -4 -17
BITMAP
0700
0600
0600
0F80
0FE0
00F0
0030
0030
0030
0030
0030
0070
00E0
03C0
3F80
FC00
8000
ENDCHAR
STARTCHAR 00B9
ENCODING 185
SWIDTH 347 0
DWIDTH 27 0
BBX 11 30 10 25
BITMAP
0060
03E0
1FE0
FC60
C060
0060
00C0
00C0
00C0
00C0
00C0
00C0
0180
0180
0180
0180
0180
0380
0300
0300
0300
0300
0300
0700
0600
0600
0600
0600
0600
0E00
ENDCHAR
STARTCHAR 00BA
ENCODING 186
SWIDTH 424 0
DWIDTH 33 0
BBX 24 30 8 26
BITMAP
003FC0
00FFF0
01E078
03801C
07000C
0E0006
1C0006
180006
300003
300003
700003
600003
600007
600006
600006
E00006
C00006
C00006
C0000C
C0000C
C0000C
C00018
C00018
600030
600070
7000E0
3803C0
1F1F80
0FFE00
01F000
ENDCHAR
STARTCHAR 00BB
ENCODING 187
SWIDTH 424 0
DWIDTH 33 0
BBX 26 29 2 7
BITMAP
0700C000
0300E000
03806000
01807000
01C03800
00C01800
00E01C00
00700C00
00300E00
00380700
00180700
001C0380
000E0380
000E01C0
000700C0
000701C0
000E01C0
001C0380
00380700
00700E00
00E01C00
01C03800
03807000
0700E000
0E01C000
1C038000
18070000
300E0000
F01C0000
ENDCHAR
STARTCHAR 00BC
ENCODING 188
SWIDTH 694 0
DWIDTH 54 0
BBX 38 55 10 0
BITMAP
0070000000
03F0000000
1FB0000000
FC60000000
E060000000
0060000000
00600000E0
00600000C0
0060000180
00C0000380
00C0000700
00C0000E00
00C0000C00
00C0001C00
00C0003800
0180007000
0180006000
018000C000
018001C000
0180038000
0380070000
0300060000
03000E0000
03001C0000
0300380000
0300300030
0700600070
0600E000F0
0601C001B0
06038003B0
0003000770
0007000E60
000E001C60
001C001860
0018003060
0030006060
007000C0C0
00E00180C0
01C00300C0
01800600C0
03000E00C0
07001C00C0
0E00380180
0C00700180
1800600180
3800FFFFFC
7001FFFFFC
E000000180
C000000300
0000000300
0000000300
0000000300
0000000300
0000000300
0000000600
ENDCHAR
STARTCHAR 00BD
ENCODING 189
SWIDTH 707 0
DWIDTH 55 0
BBX 42 55 8 0
BITMAP
003800000000
01F800000000
0FF800000000
7E1800000000
703000000000
003000000000
003000006000
00300000E000
00300001C000
007000038000
006000030000
006000070000
0060000E0000
0060001C0000
006000180000
00E000300000
00C000700000
00C000E00000
00C001C00000
00C001800000
00C003800000
018007000000
01800E000000
01800C000000
018018000000
01803807FC00
0180701FFE00
0300E0380700
0300C0700180
030180C00180
000381C000C0
0007018000C0
0006018000C0
000C03000180
001C00000180
003800000380
007000000300
006000000600
00C000000E00
01C000001C00
038000003800
030000007000
06000000E000
0E0000018000
1C0000070000
3800000E0000
3000001C0000
600000380000
E00000700000
400000E00000
000001800000
000003000000
000006000000
00000FFFFF00
00001FFFFE00
ENDCHAR
STARTCHAR 00BE
ENCODING 190
SWIDTH 745 0
DWIDTH 58 0
BBX 47 56 6 0
BITMAP
000700000000
007FE0000000
00F0F8000000
03C01C000000
07000C000000
06000E000000
0C0006000000
0C0006000038
180006000030
00000E000060
00000C0000E0
00001C0001C0
000038000380
0000F0000300
000FC0000700
007E00000E00
001FC0001C00
0000E0001800
000030003000
000018007000
00001800E000
00001801C000
000018018000
C00018030000
C00038070000
6000300E0000
6000700C0018
7000E0180038
3C03C0380078
1FFF007000D8
07FC00E001D8
000000C00398
000001800730
000003800630
000007000C30
000006001830
00000C003030
00001C006030
00003800C060
00007001C060
000060038060
0000C0070060
0001C00E0060
0003801C0060
0007001800C0
0006003000C0
000E007FFFFE
001C00FFFFFE
0038000000C0
0030000001C0
000000000180
000000000180
000000000180
000000000180
000000000180
000000000380
ENDCHAR
STARTCHAR 00BF
ENCODING 191
SWIDTH 424 0
DWIDTH 33 0
BBX 26 56 0 -14
BITMAP
00000C00
00001E00
00001E00
00001C00
00000000
00000000
00000000
00000000
00000000
00000000
00000000
00000000
00000000
00000000
00000000
00000000
00006000
00006000
00006000
0000E000
0000C000
0001C000
00018000
00030000
00060000
000E0000
00380000
00700000
00E00000
01C00000
03800000
07000000
0E000000
0C000000
18000000
38000000
30000000
70000000
60000000
60000000
C0000000
C0000000
C0000000
C00000C0
C00001C0
C0000180
C0000180
C0000300
C0000300
C0000600
60000E00
70001C00
38003800
1C00F000
0FFFC000
03FF0000
ENDCHAR
STARTCHAR 00C0
ENCODING 192
SWIDTH 578 0
DWIDTH 45 0
BBX 42 70 -2 0
BITMAP
000000700000
000000300000
000000380000
000000180000
0000000C0000
0000000C0000
000000060000
000000070000
000000030000
000000038000
000000000000
000000000000
000000000000
000000000000
000000000000
0000000E0000
0000000F0000
0000001F0000
0000001B0000
0000003B0000
000000330000
000000618000
000000618000
000000C18000
000000C18000
000001818000
00000181C000
00000300C000
00000700C000
00000600C000
00000E00C000
00000C00E000
00001C006000
000018006000
000038006000
000030006000
000060006000
000060003000
0000C0003000
0000C0003000
000180003000
000180003000
000300001800
000700001800
000600001800
000E00001800
000C00001800
001C00001C00
001800000C00
003800000C00
003000000C00
007FFFFFFC00
007FFFFFFE00
00C000000600
00C000000600
018000000600
038000000600
030000000700
070000000300
060000000300
0E0000000300
0C0000000300
1C0000000300
180000000180
300000000180
300000000180
600000000180
600000000180
C000000001C0
C000000000C0
ENDCHAR
STARTCHAR 00C1
ENCODING 193
SWIDTH 578 0
DWIDTH 45 0
BBX 42 70 -2 0
BITMAP
000000000700
000000000E00
000000000C00
000000001800
000000003000
000000007000
00000000E000
00000001C000
000000038000
000000030000
000000000000
000000000000
000000000000
000000000000
000000000000
0000000E0000
0000000F0000
0000001F0000
0000001B0000
0000003B0000
000000330000
000000618000
000000618000
000000C18000
000000C18000
000001818000
00000181C000
00000300C000
00000700C000
00000600C000
00000E00C000
00000C00E000
00001C006000
000018006000
000038006000
000030006000
000060006000
000060003000
0000C0003000
0000C0003000
000180003000
000180003000
000300001800
000700001800
000600001800
000E00001800
000C00001800
001C00001C00
001800000C00
003800000C00
003000000C00
007FFFFFFC00
007FFFFFFE00
00C000000600
00C000000600
018000000600
038000000600
030000000700
070000000300
060000000300
0E0000000300
0C0000000300
1C0000000300
180000000180
300000000180
300000000180
600000000180
600000000180
C000000001C0
C000000000C0
ENDCHAR
STARTCHAR 00C2
ENCODING 194
SWIDTH 578 0
DWIDTH 45 0
BBX 42 70 -2 0
BITMAP
000000008000
00000003C000
00000007E000
0000000E7000
0000001C3800
000000381800
000000701C00
000000E00E00
000001C00700
000003800380
000000000000
000000000000
000000000000
000000000000
000000000000
0000000E0000
0000000F0000
0000001F0000
0000001B0000
0000003B0000
000000330000
000000618000
000000618000
000000C18000
000000C18000
000001818000
00000181C000
00000300C000
00000700C000
00000600C000
00000E00C000
00000C00E000
00001C006000
000018006000
000038006000
000030006000
000060006000
000060003000
0000C0003000
0000C0003000
000180003000
000180003000
000300001800
000700001800
000600001800
000E00001800
000C00001800
001C00001C00
001800000C00
003800000C00
003000000C00
007FFFFFFC00
007FFFFFFE00
00C000000600
00C000000600
018000000600
038000000600
030000000700
070000000300
060000000300
0E0000000300
0C0000000300
1C0000000300
180000000180
300000000180
300000000180
600000000180
600000000180
C000000001C0
C000000000C0
ENDCHAR
STARTCHAR 00C3
ENCODING 195
SWIDTH 578 0
DWIDTH 45 0
BBX 44 69 -2 0
BITMAP
000000000030
000000FC0030
000003FF0070
000003038060
00000601C0E0
00000E00FFC0
00000C003F80
000000000000
000000000000
000000000000
000000000000
000000000000
000000000000
000000000000
0000000E0000
0000000F0000
0000001F0000
0000001B0000
0000003B0000
000000330000
000000618000
000000618000
000000C18000
000000C18000
000001818000
00000181C000
00000300C000
00000700C000
00000600C000
00000E00C000
00000C00E000
00001C006000
000018006000
000038006000
000030006000
000060006000
000060003000
0000C0003000
0000C0003000
000180003000
000180003000
000300001800
000700001800
000600001800
000E00001800
000C00001800
001C00001C00
001800000C00
003800000C00
003000000C00
007FFFFFFC00
007FFFFFFE00
00C000000600
00C000000600
018000000600
038000000600
030000000700
070000000300
060000000300
0E0000000300
0C0000000300
1C0000000300
180000000180
300000000180
300000000180
600000000180
600000000180
C000000001C0
C000000000C0
ENDCHAR
STARTCHAR 00C4
ENCODING 196
SWIDTH 578 0
DWIDTH 45 0
BBX 42 68 -2 0
BITMAP
0000018001C0
000003C003C0
000003C003C0
000003800180
000000000000
000000000000
000000000000
000000000000
000000000000
000000000000
000000000000
000000000000
000000000000
0000000E0000
0000000F0000
0000001F0000
0000001B0000
0000003B0000
000000330000
000000618000
000000618000
000000C18000
000000C18000
000001818000
00000181C000
00000300C000
00000700C000
00000600C000
00000E00C000
00000C00E000
00001C006000
000018006000
000038006000
000030006000
000060006000
000060003000
0000C0003000
0000C0003000
000180003000
000180003000
000300001800
000700001800
000600001800
000E00001800
000C00001800
001C00001C00
001800000C00
003800000C00
003000000C00
007FFFFFFC00
007FFFFFFE00
00C000000600
00C000000600
018000000600
038000000600
030000000700
070000000300
060000000300
0E0000000300
0C0000000300
1C0000000300
180000000180
300000000180
300000000180
600000000180
600000000180
C000000001C0
C000000000C0
ENDCHAR
STARTCHAR 00C5
ENCODING 197
SWIDTH 578 0
DWIDTH 45 0
BBX 42 71 -2 0
BITMAP
00000003F000
0000000FF800
0000001C1800
000000180C00
000000300C00
000000300C00
000000700C00
000000600C00
000000301C00
000000303800
0000003C7000
0000001FE000
000000078000
000000000000
000000000000
000000000000
0000000E0000
0000000F0000
0000001F0000
0000001B0000
0000003B0000
000000330000
000000618000
000000618000
000000C18000
000000C18000
000001818000
00000181C000
00000300C000
00000700C000
00000600C000
00000E00C000
00000C00E000
00001C006000
000018006000
000038006000
000030006000
000060006000
000060003000
0000C0003000
0000C0003000
000180003000
000180003000
000300001800
000700001800
000600001800
000E00001800
000C00001800
001C00001C00
001800000C00
003800000C00
003000000C00
007FFFFFFC00
007FFFFFFE00
00C000000600
00C000000600
018000000600
038000000600
030000000700
070000000300
060000000300
0E0000000300
0C0000000300
1C0000000300
180000000180
300000000180
300000000180
600000000180
600000000180
C000000001C0
C000000000C0
ENDCHAR
STARTCHAR 00C6
ENCODING 198
SWIDTH 848 0
DWIDTH 66 0
BBX 70 55 -2 0
BITMAP
00000000007FFFFFFC
0000000000FFFFFFFC
0000000000F0000000
0000000001B0000000
0000000003B0000000
000000000730000000
000000000630000000
000000000C30000000
000000001C30000000
000000003870000000
000000003060000000
000000006060000000
00000000E060000000
00000001C060000000
000000018060000000
000000030060000000
000000070060000000
0000000E00C0000000
0000000C00C0000000
0000001800C0000000
0000003800C0000000
0000007000C0000000
0000006000C0000000
000000C000C0000000
000001C000C0000000
0000038001FFFFFE00
0000070001FFFFFE00
000006000180000000
00000E000180000000
00001C000180000000
000038000180000000
000030000180000000
000060000380000000
0000E0000300000000
0001C0000300000000
000180000300000000
000300000300000000
0007FFFFFF00000000
000FFFFFFF00000000
000C00000300000000
001800000600000000
003800000600000000
007000000600000000
006000000600000000
00C000000600000000
01C000000600000000
038000000600000000
030000000E00000000
060000000C00000000
0E0000000C00000000
1C0000000C00000000
180000000C00000000
300000000C00000000
700000000FFFFFFE00
E00000000FFFFFFE00
ENDCHAR
STARTCHAR 00C7
ENCODING 199
SWIDTH 617 0
DWIDTH 48 0
BBX 42 73 5 -17
BITMAP
00000FFC0000
00007FFF8000
0001F803E000
0003C0007000
000F00003800
001E00000C00
003800000E00
007000000700
006000000300
00C000000380
01C000000180
018000000180
030000000180
070000000180
0600000000C0
0E00000000C0
0C00000000C0
0C00000000C0
180000000000
180000000000
180000000000
300000000000
300000000000
300000000000
300000000000
300000000000
700000000000
600000000000
600000000000
600000000000
600000000000
600000000000
C00000000000
C00000000000
C00000000000
C00000000000
C00000000000
C00000000000
C00000000000
C00000000C00
C00000001800
C00000001800
C00000003800
600000003000
600000007000
600000006000
70000000E000
30000001C000
380000018000
180000030000
1C00000F0000
0E00001E0000
070000780000
03C001F00000
01F83FC00000
007FFF000000
0007E0000000
000180000000
000300000000
000380000000
0007E0000000
0000F8000000
000018000000
00001C000000
00000C000000
00001C000000
000018000000
000018000000
000030000000
0000F0000000
0003E0000000
003F80000000
003800000000
ENDCHAR
STARTCHAR 00C8
ENCODING 200
SWIDTH 540 0
DWIDTH 42 0
BBX 42 70 4 0
BITMAP
00000C000000
00000E000000
000006000000
000007000000
000003000000
000003800000
000001800000
000000C00000
000000C00000
000000600000
000000000000
000000000000
000000000000
000000000000
000000000000
007FFFFFFFC0
007FFFFFFF80
00E000000000
00C000000000
00C000000000
00C000000000
00C000000000
00C000000000
018000000000
018000000000
018000000000
018000000000
018000000000
018000000000
030000000000
030000000000
030000000000
030000000000
030000000000
030000000000
060000000000
060000000000
060000000000
060000000000
060000000000
0E0000000000
0FFFFFFF8000
0FFFFFFF8000
0C0000000000
0C0000000000
0C0000000000
1C0000000000
180000000000
180000000000
180000000000
180000000000
180000000000
300000000000
300000000000
300000000000
300000000000
300000000000
300000000000
600000000000
600000000000
600000000000
600000000000
600000000000
600000000000
C00000000000
C00000000000
C00000000000
C00000000000
FFFFFFFF0000
FFFFFFFF0000
ENDCHAR
STARTCHAR 00C9
ENCODING 201
SWIDTH 540 0
DWIDTH 42 0
BBX 42 70 4 0
BITMAP
00000001C000
000000018000
000000030000
000000060000
0000000E0000
0000001C0000
000000380000
000000300000
000000600000
000000C00000
000000000000
000000000000
000000000000
000000000000
000000000000
007FFFFFFFC0
007FFFFFFF80
00E000000000
00C000000000
00C000000000
00C000000000
00C000000000
00C000000000
018000000000
018000000000
018000000000
018000000000
018000000000
018000000000
030000000000
030000000000
030000000000
030000000000
030000000000
030000000000
060000000000
060000000000
060000000000
060000000000
060000000000
0E0000000000
0FFFFFFF8000
0FFFFFFF8000
0C0000000000
0C0000000000
0C0000000000
1C0000000000
180000000000
180000000000
180000000000
180000000000
180000000000
300000000000
300000000000
300000000000
300000000000
300000000000
300000000000
600000000000
600000000000
600000000000
600000000000
600000000000
600000000000
C00000000000
C00000000000
C00000000000
C00000000000
FFFFFFFF0000
FFFFFFFF0000
ENDCHAR
STARTCHAR 00CA
ENCODING 202
SWIDTH 540 0
DWIDTH 42 0
BBX 42 70 4 0
BITMAP
000000300000
000000780000
000000F80000
000001DC0000
0000070E0000
00000E070000
00001C030000
000038038000
00007001C000
0000E000E000
000000000000
000000000000
000000000000
000000000000
000000000000
007FFFFFFFC0
007FFFFFFF80
00E000000000
00C000000000
00C000000000
00C000000000
00C000000000
00C000000000
018000000000
018000000000
018000000000
018000000000
018000000000
018000000000
030000000000
030000000000
030000000000
030000000000
030000000000
030000000000
060000000000
060000000000
060000000000
060000000000
060000000000
0E0000000000
0FFFFFFF8000
0FFFFFFF8000
0C0000000000
0C0000000000
0C0000000000
1C0000000000
180000000000
180000000000
180000000000
180000000000
180000000000
300000000000
300000000000
300000000000
300000000000
300000000000
300000000000
600000000000
600000000000
600000000000
600000000000
600000000000
600000000000
C00000000000
C00000000000
C00000000000
C00000000000
FFFFFFFF0000
FFFFFFFF0000
ENDCHAR
STARTCHAR 00CB
ENCODING 203
SWIDTH 540 0
DWIDTH 42 0
BBX 42 68 4 0
BITMAP
000070007000
0000F000F800
0000F000F000
000060007000
000000000000
000000000000
000000000000
000000000000
000000000000
000000000000
000000000000
000000000000
000000000000
007FFFFFFFC0
007FFFFFFF80
00E000000000
00C000000000
00C000000000
00C000000000
00C000000000
00C000000000
018000000000
018000000000
018000000000
018000000000
018000000000
018000000000
030000000000
030000000000
030000000000
030000000000
030000000000
030000000000
060000000000
060000000000
060000000000
060000000000
060000000000
0E0000000000
0FFFFFFF8000
0FFFFFFF8000
0C0000000000
0C0000000000
0C0000000000
1C0000000000
180000000000
180000000000
180000000000
180000000000
180000000000
300000000000
300000000000
300000000000
300000000000
300000000000
300000000000
600000000000
600000000000
600000000000
600000000000
600000000000
600000000000
C00000000000
C00000000000
C00000000000
C00000000000
FFFFFFFF0000
FFFFFFFF0000
ENDCHAR
STARTCHAR 00CC
ENCODING 204
SWIDTH 244 0
DWIDTH 19 0
BBX 13 70 5 0
BITMAP
0300
0380
0180
01C0
00C0
0060
0060
0030
0030
0018
0000
0000
0000
0000
0000
0060
0060
0060
0060
0060
00C0
00C0
00C0
00C0
00C0
00C0
0180
0180
0180
0180
0180
0180
0300
0300
0300
0300
0300
0300
0600
0600
0600
0600
0600
0E00
0C00
0C00
0C00
0C00
0C00
1800
1800
1800
1800
1800
1800
3000
3000
3000
3000
3000
3000
6000
6000
6000
6000
6000
6000
C000
C000
C000
ENDCHAR
STARTCHAR 00CD
ENCODING 205
SWIDTH 244 0
DWIDTH 19 0
BBX 20 70 5 0
BITMAP
000030
000060
0000C0
0001C0
000380
000700
000E00
000C00
001800
003000
000000
000000
000000
000000
000000
006000
006000
006000
006000
006000
00C000
00C000
00C000
00C000
00C000
00C000
018000
018000
018000
018000
018000
018000
030000
030000
030000
030000
030000
030000
060000
060000
060000
060000
060000
0E0000
0C0000
0C0000
0C0000
0C0000
0C0000
180000
180000
180000
180000
180000
180000
300000
300000
300000
300000
300000
300000
600000
600000
600000
600000
600000
600000
C00000
C00000
C00000
ENDCHAR
STARTCHAR 00CE
ENCODING 206
SWIDTH 244 0
DWIDTH 19 0
BBX 21 70 5 0
BITMAP
000C00
001E00
003E00
007700
01E380
0381C0
0700C0
0E00E0
1C0070
380038
000000
000000
000000
000000
000000
006000
006000
006000
006000
006000
00C000
00C000
00C000
00C000
00C000
00C000
018000
018000
018000
018000
018000
018000
030000
030000
030000
030000
030000
030000
060000
060000
060000
060000
060000
0E0000
0C0000
0C0000
0C0000
0C0000
0C0000
180000
180000
180000
180000
180000
180000
300000
300000
300000
300000
300000
300000
600000
600000
600000
600000
600000
600000
C00000
C00000
C00000
ENDCHAR
STARTCHAR 00CF
ENCODING 207
SWIDTH 244 0
DWIDTH 19 0
BBX 23 68 5 0
BITMAP
1C001C
3C001E
3C003C
18001C
000000
000000
000000
000000
000000
000000
000000
000000
000000
006000
006000
006000
006000
006000
00C000
00C000
00C000
00C000
00C000
00C000
018000
018000
018000
018000
018000
018000
030000
030000
030000
030000
030000
030000
060000
060000
060000
060000
060000
0E0000
0C0000
0C0000
0C0000
0C0000
0C0000
180000
180000
180000
180000
180000
180000
300000
300000
300000
300000
300000
300000
600000
600000
600000
600000
600000
600000
C00000
C00000
C00000
ENDCHAR
STARTCHAR 00D0
ENCODING 208
SWIDTH 642 0
DWIDTH 50 0
BBX 43 55 4 0
BITMAP
003FFFFC0000
003FFFFF8000
00300003E000
00600000F000
006000003800
006000001C00
006000000E00
006000000700
006000000380
00C000000180
00C0000001C0
00C0000000C0
00C0000000C0
00C0000000E0
00C000000060
018000000060
018000000060
018000000060
018000000060
018000000060
018000000060
030000000060
030000000060
030000000060
030000000060
030000000060
FFFFFC0000E0
FFFFFC0000C0
0600000000C0
0600000000C0
0600000000C0
0600000000C0
0C0000000180
0C0000000180
0C0000000180
0C0000000380
0C0000000300
0C0000000300
180000000600
180000000600
180000000C00
180000001C00
180000001800
180000003800
300000007000
30000000E000
30000001C000
300000038000
300000070000
3000001E0000
6000003C0000
600001F00000
60000FC00000
7FFFFF000000
7FFFF0000000
ENDCHAR
STARTCHAR 00D1
ENCODING 209
SWIDTH 681 0
DWIDTH 53 0
BBX 49 69 3 0
BITMAP
00000000003000
000001F8006000
000003FE006000
0000070700E000
00000E0381C000
00000C00FF8000
000018007F0000
00000000000000
00000000000000
00000000000000
00000000000000
00000000000000
00000000000000
00000000000000
00300000000380
00380000000300
00780000000300
006C0000000300
006C0000000300
00660000000300
00660000000700
00630000000600
00E30000000600
00C18000000600
00C18000000600
00C0C000000600
00C0C000000C00
00C06000000C00
01C06000000C00
01803000000C00
01803000000C00
01801800000C00
01801800001800
03800C00001800
03800C00001800
03000600001800
03000600001800
03000300003800
03000300003000
07000180003000
06000180003000
060000C0003000
060000C0003000
06000060007000
06000060006000
0E000030006000
0C000030006000
0C000018006000
0C000018006000
0C00000C00E000
0C00000C00C000
1C00000600C000
1800000600C000
1800000300C000
1800000300C000
18000003818000
18000001818000
38000001C18000
30000000C18000
30000000E18000
30000000638000
30000000730000
30000000330000
600000003B0000
600000001B0000
600000001F0000
600000000F0000
600000000E0000
E0000000060000
ENDCHAR
STARTCHAR 00D2
ENCODING 210
SWIDTH 642 0
DWIDTH 50 0
BBX 42 72 5 -1
BITMAP
000006000000
000007000000
000003000000
000003800000
000001800000
000000C00000
000000C00000
000000600000
000000600000
000000300000
000000000000
000000000000
000000000000
000000000000
000000000000
000007FE0000
00007FFF8000
0001F803E000
0003C0007000
000F00003800
001C00001C00
003800000E00
007000000700
00E000000300
00C000000380
018000000180
038000000180
0300000001C0
0600000000C0
0600000000C0
0C00000000C0
0C00000000C0
1C00000000C0
1800000000C0
1800000000C0
3000000000C0
3000000000C0
3000000000C0
3000000000C0
6000000000C0
6000000000C0
6000000001C0
600000000180
600000000180
600000000180
C00000000180
C00000000180
C00000000380
C00000000300
C00000000300
C00000000300
C00000000700
C00000000600
C00000000600
C00000000E00
C00000000C00
C00000001C00
C00000001800
C00000003800
E00000003000
600000007000
60000000E000
30000000C000
300000018000
180000030000
1C00000E0000
0E00001C0000
070000780000
03C001F00000
01FC3FC00000
007FFF000000
0007F0000000
ENDCHAR
STARTCHAR 00D3
ENCODING 211
SWIDTH 642 0
DWIDTH 50 0
BBX 42 72 5 -1
BITMAP
000000007000
00000000E000
00000001C000
000000038000
000000070000
000000060000
0000000C0000
000000180000
000000380000
000000700000
000000000000
000000000000
000000000000
000000000000
000000000000
000007FE0000
00007FFF8000
0001F803E000
0003C0007000
000F00003800
001C00001C00
003800000E00
007000000700
00E000000300
00C000000380
018000000180
038000000180
0300000001C0
0600000000C0
0600000000C0
0C00000000C0
0C00000000C0
1C00000000C0
1800000000C0
1800000000C0
3000000000C0
3000000000C0
3000000000C0
3000000000C0
6000000000C0
6000000000C0
6000000001C0
600000000180
600000000180
600000000180
C00000000180
C00000000180
C00000000380
C00000000300
C00000000300
C00000000300
C00000000700
C00000000600
C00000000600
C00000000E00
C00000000C00
C00000001C00
C00000001800
C00000003800
E00000003000
600000007000
60000000E000
30000000C000
300000018000
180000030000
1C00000E0000
0E00001C0000
070000780000
03C001F00000
01FC3FC00000
007FFF000000
0007F0000000
ENDCHAR
STARTCHAR 00D4
ENCODING 212
SWIDTH 642 0
DWIDTH 50 0
BBX 42 72 5 -1
BITMAP
000000180000
0000003C0000
0000007C0000
000000E60000
000001C70000
000003838000
00000701C000
00000E01C000
00003C00E000
000070007000
000000000000
000000000000
000000000000
000000000000
000000000000
000007FE0000
00007FFF8000
0001F803E000
0003C0007000
000F00003800
001C00001C00
003800000E00
007000000700
00E000000300
00C000000380
018000000180
038000000180
0300000001C0
0600000000C0
0600000000C0
0C00000000C0
0C00000000C0
1C00000000C0
1800000000C0
1800000000C0
3000000000C0
3000000000C0
3000000000C0
3000000000C0
6000000000C0
6000000000C0
6000000001C0
600000000180
600000000180
600000000180
C00000000180
C00000000180
C00000000380
C00000000300
C00000000300
C00000000300
C00000000700
C00000000600
C00000000600
C00000000E00
C00000000C00
C00000001C00
C00000001800
C00000003800
E00000003000
600000007000
60000000E000
30000000C000
300000018000
180000030000
1C00000E0000
0E00001C0000
070000780000
03C001F00000
01FC3FC00000
007FFF000000
0007F0000000
ENDCHAR
STARTCHAR 00D5
ENCODING 213
SWIDTH 642 0
DWIDTH 50 0
BBX 42 70 5 -1
BITMAP
00000F800300
00003FE00600
000070700E00
0000E0180C00
0000C00F7C00
0000C007F000
00018001C000
000000000000
000000000000
000000000000
000000000000
000000000000
000000000000
000007FE0000
00007FFF8000
0001F803E000
0003C0007000
000F00003800
001C00001C00
003800000E00
007000000700
00E000000300
00C000000380
018000000180
038000000180
0300000001C0
0600000000C0
0600000000C0
0C00000000C0
0C00000000C0
1C00000000C0
1800000000C0
1800000000C0
3000000000C0
3000000000C0
3000000000C0
3000000000C0
6000000000C0
6000000000C0
6000000001C0
600000000180
600000000180
600000000180
C00000000180
C00000000180
C00000000380
C00000000300
C00000000300
C00000000300
C00000000700
C00000000600
C00000000600
C00000000E00
C00000000C00
C00000001C00
C00000001800
C00000003800
E00000003000
600000007000
60000000E000
30000000C000
300000018000
180000030000
1C00000E0000
0E00001C0000
070000780000
03C001F00000
01FC3FC00000
007FFF000000
0007F0000000
ENDCHAR
STARTCHAR 00D6
ENCODING 214
SWIDTH 642 0
DWIDTH 50 0
BBX 42 70 5 -1
BITMAP
000038001800
000078003C00
000078003C00
000038003800
000000000000
000000000000
000000000000
000000000000
000000000000
000000000000
000000000000
000000000000
000000000000
000007FE0000
00007FFF8000
0001F803E000
0003C0007000
000F00003800
001C00001C00
003800000E00
007000000700
00E000000300
00C000000380
018000000180
038000000180
0300000001C0
0600000000C0
0600000000C0
0C00000000C0
0C00000000C0
1C00000000C0
1800000000C0
1800000000C0
3000000000C0
3000000000C0
3000000000C0
3000000000C0
6000000000C0
6000000000C0
6000000001C0
600000000180
600000000180
600000000180
C00000000180
C00000000180
C00000000380
C00000000300
C00000000300
C00000000300
C00000000700
C00000000600
C00000000600
C00000000E00
C00000000C00
C00000001C00
C00000001800
C00000003800
E00000003000
600000007000
60000000E000
30000000C000
300000018000
180000030000
1C00000E0000
0E00001C0000
070000780000
03C001F00000
01FC3FC00000
007FFF000000
0007F0000000
ENDCHAR
STARTCHAR 00D7
ENCODING 215
SWIDTH 488 0
DWIDTH 38 0
BBX 35 32 0 0
BITMAP
0100000000
03000000E0
03800001C0
01C0000380
00E0000700
0060000E00
0030001C00
0038003800
001C007000
000E01E000
0006038000
0007070000
00038E0000
0001DC0000
0000F80000
0000700000
0000F00000
0001F80000
00071C0000
000E0C0000
001C0E0000
0038070000
0070038000
00E0018000
01C000C000
038000E000
0E00007000
1C00003800
3800001800
7000000C00
E000000E00
4000000400
ENDCHAR
STARTCHAR 00D8
ENCODING 216
SWIDTH 642 0
DWIDTH 50 0
BBX 49 60 2 -3
BITMAP
00000000000180
000000FF800380
00000FFFF00700
00003F007C0E00
000078000E0C00
0001E000071C00
0003800003B800
0007000001F000
000E000000E000
001C000000E000
0018000001F000
0030000003B000
00700000073000
00600000063800
00C000000C1800
00C000001C1800
01800000381800
01800000701800
03800000601800
03000000C01800
03000001C01800
06000003801800
06000007001800
06000006001800
0600000E001800
0C00001C001800
0C000038001800
0C000030003800
0C000060003000
0C0000E0003000
0C0001C0003000
18000380003000
18000300003000
18000600007000
18000E00006000
18001C00006000
18003800006000
1800300000E000
1800600000C000
1800E00000C000
1801C00001C000
18038000018000
18030000038000
18070000030000
180E0000070000
1C1C0000060000
0C3800000E0000
0C3000001C0000
06700000180000
06E00000300000
03C00000600000
03800001C00000
03C00003800000
07E0000F000000
0E78003E000000
1C1F87F8000000
180FFFE0000000
3000FE00000000
70000000000000
E0000000000000
ENDCHAR
STARTCHAR 00D9
ENCODING 217
SWIDTH 642 0
DWIDTH 50 0
BBX 43 71 6 -1
BITMAP
00000E000000
000006000000
000003000000
000003000000
000001800000
000001C00000
000000C00000
000000E00000
000000600000
000000300000
000000000000
000000000000
000000000000
000000000000
000000000000
030000000060
030000000060
030000000060
0300000000C0
0300000000C0
0600000000C0
0600000000C0
0600000000C0
0600000000C0
060000000180
060000000180
0C0000000180
0C0000000180
0C0000000180
0C0000000380
0C0000000300
1C0000000300
180000000300
180000000300
180000000300
180000000700
180000000600
380000000600
300000000600
300000000600
300000000600
300000000E00
300000000C00
600000000C00
600000000C00
600000000C00
600000000C00
600000001800
600000001800
C00000001800
C00000001800
C00000001800
C00000001800
C00000003000
C00000003000
C00000003000
C00000007000
C00000006000
C0000000E000
C0000000C000
E0000001C000
600000038000
600000030000
700000060000
3800001E0000
1C00003C0000
0E0000F00000
078003E00000
03F83F800000
00FFFE000000
000FE0000000
ENDCHAR
STARTCHAR 00DA
ENCODING 218
SWIDTH 642 0
DWIDTH 50 0
BBX 43 71 6 -1
BITMAP
00000000E000
00000000C000
000000018000
000000030000
000000070000
0000000E0000
0000001C0000
000000380000
000000300000
000000600000
000000000000
000000000000
000000000000
000000000000
000000000000
030000000060
030000000060
030000000060
0300000000C0
0300000000C0
0600000000C0
0600000000C0
0600000000C0
0600000000C0
060000000180
060000000180
0C0000000180
0C0000000180
0C0000000180
0C0000000380
0C0000000300
1C0000000300
180000000300
180000000300
180000000300
180000000700
180000000600
380000000600
300000000600
300000000600
300000000600
300000000E00
300000000C00
600000000C00
600000000C00
600000000C00
600000000C00
600000001800
600000001800
C00000001800
C00000001800
C00000001800
C00000001800
C00000003000
C00000003000
C00000003000
C00000007000
C00000006000
C0000000E000
C0000000C000
E0000001C000
600000038000
600000030000
700000060000
3800001E0000
1C00003C0000
0E0000F00000
078003E00000
03F83F800000
00FFFE000000
000FE0000000
ENDCHAR
STARTCHAR 00DB
ENCODING 219
SWIDTH 642 0
DWIDTH 50 0
BBX 43 71 6 -1
BITMAP
000000180000
000000380000
000000FC0000
000001CE0000
000003870000
000007038000
00000E018000
00001C01C000
00003800E000
000070007000
000000000000
000000000000
000000000000
000000000000
000000000000
030000000060
030000000060
030000000060
0300000000C0
0300000000C0
0600000000C0
0600000000C0
0600000000C0
0600000000C0
060000000180
060000000180
0C0000000180
0C0000000180
0C0000000180
0C0000000380
0C0000000300
1C0000000300
180000000300
180000000300
180000000300
180000000700
180000000600
380000000600
300000000600
300000000600
300000000600
300000000E00
300000000C00
600000000C00
600000000C00
600000000C00
600000000C00
600000001800
600000001800
C00000001800
C00000001800
C00000001800
C00000001800
C00000003000
C00000003000
C00000003000
C00000007000
C00000006000
C0000000E000
C0000000C000
E0000001C000
600000038000
600000030000
700000060000
3800001E0000
1C00003C0000
0E0000F00000
078003E00000
03F83F800000
00FFFE000000
000FE0000000
ENDCHAR
STARTCHAR 00DC
ENCODING 220
SWIDTH 642 0
DWIDTH 50 0
BBX 43 69 6 -1
BITMAP
000038003800
000078007800
000078007800
000070003000
000000000000
000000000000
000000000000
000000000000
000000000000
000000000000
000000000000
000000000000
000000000000
030000000060
030000000060
030000000060
0300000000C0
0300000000C0
0600000000C0
0600000000C0
0600000000C0
0600000000C0
060000000180
060000000180
0C0000000180
0C0000000180
0C0000000180
0C0000000380
0C0000000300
1C0000000300
180000000300
180000000300
180000000300
180000000700
180000000600
380000000600
300000000600
300000000600
300000000600
300000000E00
300000000C00
600000000C00
600000000C00
600000000C00
600000000C00
600000001800
600000001800
C00000001800
C00000001800
C00000001800
C00000001800
C00000003000
C00000003000
C00000003000
C00000007000
C00000006000
C0000000E000
C0000000C000
E0000001C000
600000038000
600000030000
700000060000
3800001E0000
1C00003C0000
0E0000F00000
078003E00000
03F83F800000
00FFFE000000
000FE0000000
ENDCHAR
STARTCHAR 00DD
ENCODING 221
SWIDTH 578 0
DWIDTH 45 0
BBX 42 70 7 0
BITMAP
0000000E0000
0000000C0000
000000180000
000000300000
000000700000
000000E00000
000001C00000
000003800000
000003000000
000006000000
000000000000
000000000000
000000000000
000000000000
000000000000
E000000001C0
600000000380
700000000300
700000000700
300000000E00
380000001C00
180000001800
1C0000003000
0C0000007000
0C000000E000
0E000000C000
060000018000
070000038000
030000070000
030000060000
0380000C0000
0180001C0000
01C000380000
00C000300000
00C000600000
006000E00000
006001C00000
007001800000
003003000000
003007000000
00180E000000
00180C000000
001C18000000
000C30000000
000C70000000
000660000000
0006C0000000
000380000000
000380000000
000300000000
000300000000
000300000000
000700000000
000600000000
000600000000
000600000000
000600000000
000600000000
000E00000000
000C00000000
000C00000000
000C00000000
000C00000000
000C00000000
001C00000000
001800000000
001800000000
001800000000
001800000000
001800000000
ENDCHAR
STARTCHAR 00DE
ENCODING 222
SWIDTH 565 0
DWIDTH 44 0
BBX 37 55 4 0
BITMAP
0060000000
0060000000
00E0000000
00C0000000
00C0000000
00C0000000
00C0000000
00C0000000
0180000000
0180000000
0180000000
0180000000
01FFFFF000
01FFFFFC00
0300001F00
0300000380
03000001C0
03000000E0
0300000060
0300000030
0600000030
0600000038
0600000018
0600000018
0600000018
0E00000018
0C00000018
0C00000030
0C00000030
0C00000030
0C00000070
1C00000060
18000000E0
18000000C0
18000001C0
1800000380
1800000700
3000001E00
3000007C00
300001F000
3FFFFFC000
3FFFFE0000
3000000000
6000000000
6000000000
6000000000
6000000000
6000000000
6000000000
C000000000
C000000000
C000000000
C000000000
C000000000
C000000000
ENDCHAR
STARTCHAR 00DF
ENCODING 223
SWIDTH 552 0
DWIDTH 43 0
BBX 35 59 2 -1
BITMAP
00007FC000
0001FFF000
0003C03800
0007001C00
000E000E00
001C000600
0038000700
0030000300
0070000300
0060000300
0060000300
00C0000700
00C0000600
00C0000600
00C0000E00
01C0000C00
0180001C00
0180001800
0180003000
0180007000
0180006000
030000E000
030000C000
030001C000
0300018000
0300018000
0300018000
0600018000
0600018000
0600018000
0600018000
060000C000
0E0000C000
0C00006000
0C00003000
0C00001800
0C00000C00
0C00000600
1C00000300
1800000180
18000000C0
18000000C0
1800000060
1800000060
3000000060
3000000060
3000000060
3000000060
3000000060
30000000C0
60000000C0
6000000180
6000000380
6000000700
6060001E00
6078007800
C03F03F000
C00FFFC000
0000FC0000
ENDCHAR
STARTCHAR 00E0
ENCODING 224
SWIDTH 501 0
DWIDTH 39 0
BBX 34 59 1 -1
BITMAP
0000180000
00001C0000
00000C0000
0000060000
0000060000
0000030000
0000038000
0000018000
000001C000
000000C000
0000000000
0000000000
0000000000
0000000000
0000000000
0000000000
00003F8000
0003FFF000
000FC0FC00
001E001E00
0078000700
00E0000300
01C0000380
0180000180
0300000180
07000000C0
06000000C0
06000000C0
0000000180
0000000180
0000000180
0000000180
0000000180
0000000180
0000000380
0000FFFF00
001FFFFF00
007F800300
01F0000300
0780000300
0E00000600
1C00000600
3800000600
3000000600
6000000600
6000000600
E000000C00
C000000C00
C000001C00
C000003C00
C000007C00
C00000EC00
600001D800
6000039800
30000F1800
3C003C1800
0F83F81800
07FFC01C00
00FC000000
ENDCHAR
STARTCHAR 00E1
ENCODING 225
SWIDTH 501 0
DWIDTH 39 0
BBX 34 59 1 -1
BITMAP
00000001C0
0000000380
0000000700
0000000E00
0000000C00
0000001800
0000003000
0000007000
000000E000
000001C000
0000000000
0000000000
0000000000
0000000000
0000000000
0000000000
00003F8000
0003FFF000
000FC0FC00
001E001E00
0078000700
00E0000300
01C0000380
0180000180
0300000180
07000000C0
06000000C0
06000000C0
0000000180
0000000180
0000000180
0000000180
0000000180
0000000180
0000000380
0000FFFF00
001FFFFF00
007F800300
01F0000300
0780000300
0E00000600
1C00000600
3800000600
3000000600
6000000600
6000000600
E000000C00
C000000C00
C000001C00
C000003C00
C000007C00
C00000EC00
600001D800
6000039800
30000F1800
3C003C1800
0F83F81800
07FFC01C00
00FC000000
ENDCHAR
STARTCHAR 00E2
ENCODING 226
SWIDTH 501 0
DWIDTH 39 0
BBX 34 59 1 -1
BITMAP
0000006000
000000F000
000001F800
0000039800
0000071C00
00000E0E00
00001C0700
0000380300
0000700380
0001C001C0
0000000000
0000000000
0000000000
0000000000
0000000000
0000000000
00003F8000
0003FFF000
000FC0FC00
001E001E00
0078000700
00E0000300
01C0000380
0180000180
0300000180
07000000C0
06000000C0
06000000C0
0000000180
0000000180
0000000180
0000000180
0000000180
0000000180
0000000380
0000FFFF00
001FFFFF00
007F800300
01F0000300
0780000300
0E00000600
1C00000600
3800000600
3000000600
6000000600
6000000600
E000000C00
C000000C00
C000001C00
C000003C00
C000007C00
C00000EC00
600001D800
6000039800
30000F1800
3C003C1800
0F83F81800
07FFC01C00
00FC000000
ENDCHAR
STARTCHAR 00E3
ENCODING 227
SWIDTH 501 0
DWIDTH 39 0
BBX 38 57 1 -1
BITMAP
00003E000C
0000FF801C
0001C1C018
0001807030
0003003FF0
0003001FC0
0007000300
0000000000
0000000000
0000000000
0000000000
0000000000
0000000000
0000000000
00003F8000
0003FFF000
000FC0FC00
001E001E00
0078000700
00E0000300
01C0000380
0180000180
0300000180
07000000C0
06000000C0
06000000C0
0000000180
0000000180
0000000180
0000000180
0000000180
0000000180
0000000380
0000FFFF00
001FFFFF00
007F800300
01F0000300
0780000300
0E00000600
1C00000600
3800000600
3000000600
6000000600
6000000600
E000000C00
C000000C00
C000001C00
C000003C00
C000007C00
C00000EC00
600001D800
6000039800
30000F1800
3C003C1800
0F83F81800
07FFC01C00
00FC000000
ENDCHAR
STARTCHAR 00E4
ENCODING 228
SWIDTH 501 0
DWIDTH 39 0
BBX 36 57 1 -1
BITMAP
0000E00060
0000F000F0
0001E000F0
0000E000E0
0000000000
0000000000
0000000000
0000000000
0000000000
0000000000
0000000000
0000000000
0000000000
0000000000
00003F8000
0003FFF000
000FC0FC00
001E001E00
0078000700
00E0000300
01C0000380
0180000180
0300000180
07000000C0
06000000C0
06000000C0
0000000180
0000000180
0000000180
0000000180
0000000180
0000000180
0000000380
0000FFFF00
001FFFFF00
007F800300
01F0000300
0780000300
0E00000600
1C00000600
3800000600
3000000600
6000000600
6000000600
E000000C00
C000000C00
C000001C00
C000003C00
C000007C00
C00000EC00
600001D800
6000039800
30000F1800
3C003C1800
0F83F81800
07FFC01C00
00FC000000
ENDCHAR
STARTCHAR 00E5
ENCODING 229
SWIDTH 501 0
DWIDTH 39 0
BBX 34 60 1 -1
BITMAP
000000F800
000003FC00
0000070E00
00000E0700
00000C0300
00001C0300
0000180300
0000180700
0000180600
00001C0E00
00000E1C00
000007F800
000003E000
0000000000
0000000000
0000000000
0000000000
00003F8000
0003FFF000
000FC0FC00
001E001E00
0078000700
00E0000300
01C0000380
0180000180
0300000180
07000000C0
06000000C0
06000000C0
0000000180
0000000180
0000000180
0000000180
0000000180
0000000180
0000000380
0000FFFF00
001FFFFF00
007F800300
01F0000300
0780000300
0E00000600
1C00000600
3800000600
3000000600
6000000600
6000000600
E000000C00
C000000C00
C000001C00
C000003C00
C000007C00
C00000EC00
600001D800
6000039800
30000F1800
3C003C1800
0F83F81800
07FFC01C00
00FC000000
ENDCHAR
STARTCHAR 00E6
ENCODING 230
SWIDTH 810 0
DWIDTH 63 0
BBX 61 43 1 -1
BITMAP
00003F800007F000
0003FFE0003FFE00
000FC1F800FC1F00
003E003C03C00380
0078000C078001C0
00E0000E0E0000E0
01C000061C000060
0180000738000070
0300000330000030
0300000370000030
06000003E0000038
06000003C0000018
06000003C0000018
0000000380000018
0000000380000018
0000000300000018
0000000700000038
0000000700000030
0003FFFFFFFFFFF0
003FFFFFFFFFFFF0
00FE000600000000
03E0000600000000
0780000E00000000
0E00000C00000000
1C00000C00000000
3800000C00000000
3000000C00000000
7000000C00000000
6000001C00000000
6000001C00000000
E000001C00000000
C000001C00000000
C000001E00000000
C000003E00000000
C000003600000000
C000006300000000
600000C380000200
6000038180000700
30000700E0001E00
1C003E007000F800
0F83F8003F0FE000
07FFE0001FFF8000
007E000001F80000
ENDCHAR
STARTCHAR 00E7
ENCODING 231
SWIDTH 488 0
DWIDTH 38 0
BBX 32 59 3 -17
BITMAP
0000FE00
0007FFC0
001F83E0
00380078
00F0001C
01C0000C
03800006
03000006
06000003
0E000003
0C000003
18000003
18000003
38000003
30000000
30000000
60000000
60000000
60000000
E0000000
C0000000
C0000000
C0000000
C0000000
C0000000
C0000000
C0000000
C0000000
C0000000
C0000000
C000000C
C000001C
60000018
60000038
60000030
30000070
300000E0
180001C0
1C000780
0F001F00
03F1FC00
01FFF000
001F0000
000C0000
000C0000
001E0000
001F8000
0003C000
0000E000
00006000
00006000
00006000
00006000
0000E000
0001C000
00038000
001F0000
01FC0000
01E00000
ENDCHAR
STARTCHAR 00E8
ENCODING 232
SWIDTH 488 0
DWIDTH 38 0
BBX 34 59 2 -1
BITMAP
0000600000
0000300000
0000300000
0000180000
00001C0000
00000C0000
00000E0000
0000060000
0000030000
0000030000
0000000000
0000000000
0000000000
0000000000
0000000000
0000000000
00003F0000
0003FFE000
000FC1F000
001E003800
0038001C00
00E0000E00
00C0000700
0180000300
0380000380
0700000180
0600000180
0C00000180
0C00000180
18000001C0
18000000C0
30000001C0
3000000180
3000000180
7FFFFFFF80
7FFFFFFF80
6000000000
6000000000
6000000000
6000000000
E000000000
C000000000
E000000000
6000000000
6000000000
6000000000
6000000000
6000000000
3000000000
3000000000
3800000000
1800000000
1C00003800
0E00007000
070000E000
03C003C000
01F83F0000
007FFC0000
0007C00000
ENDCHAR
STARTCHAR 00E9
ENCODING 233
SWIDTH 488 0
DWIDTH 38 0
BBX 34 59 2 -1
BITMAP
0000000700
0000000E00
0000001C00
0000001800
0000003000
0000006000
000000E000
000001C000
0000038000
0000030000
0000000000
0000000000
0000000000
0000000000
0000000000
0000000000
00003F0000
0003FFE000
000FC1F000
001E003800
0038001C00
00E0000E00
00C0000700
0180000300
0380000380
0700000180
0600000180
0C00000180
0C00000180
18000001C0
18000000C0
30000001C0
3000000180
3000000180
7FFFFFFF80
7FFFFFFF80
6000000000
6000000000
6000000000
6000000000
E000000000
C000000000
E000000000
6000000000
6000000000
6000000000
6000000000
6000000000
3000000000
3000000000
3800000000
1800000000
1C00003800
0E00007000
070000E000
03C003C000
01F83F0000
007FFC0000
0007C00000
ENDCHAR
STARTCHAR 00EA
ENCODING 234
SWIDTH 488 0
DWIDTH 38 0
BBX 34 59 2 -1
BITMAP
0000008000
000003C000
000007E000
00000E6000
00001C3000
0000383800
0000701C00
0000E00E00
0001C00600
0003800700
0000000000
0000000000
0000000000
0000000000
0000000000
0000000000
00003F0000
0003FFE000
000FC1F000
001E003800
0038001C00
00E0000E00
00C0000700
0180000300
0380000380
0700000180
0600000180
0C00000180
0C00000180
18000001C0
18000000C0
30000001C0
3000000180
3000000180
7FFFFFFF80
7FFFFFFF80
6000000000
6000000000
6000000000
6000000000
E000000000
C000000000
E000000000
6000000000
6000000000
6000000000
6000000000
6000000000
3000000000
3000000000
3800000000
1800000000
1C00003800
0E00007000
070000E000
03C003C000
01F83F0000
007FFC0000
0007C00000
ENDCHAR
STARTCHAR 00EB
ENCODING 235
SWIDTH 488 0
DWIDTH 38 0
BBX 34 57 2 -1
BITMAP
0001800180
0003C003C0
0003C003C0
0003800380
0000000000
0000000000
0000000000
0000000000
0000000000
0000000000
0000000000
0000000000
0000000000
0000000000
00003F0000
0003FFE000
000FC1F000
001E003800
0038001C00
00E0000E00
00C0000700
0180000300
0380000380
0700000180
0600000180
0C00000180
0C00000180
18000001C0
18000000C0
30000001C0
3000000180
3000000180
7FFFFFFF80
7FFFFFFF80
6000000000
6000000000
6000000000
6000000000
E000000000
C000000000
E000000000
6000000000
6000000000
6000000000
6000000000
6000000000
3000000000
3000000000
3800000000
1800000000
1C00003800
0E00007000
070000E000
03C003C000
01F83F0000
007FFC0000
0007C00000
ENDCHAR
STARTCHAR 00EC
ENCODING 236
SWIDTH 180 0
DWIDTH 14 0
BBX 10 57 3 0
BITMAP
1C00
0C00
0E00
0600
0300
0300
0180
0180
00C0
00C0
0000
0000
0000
0000
0000
0000
0180
0380
0300
0300
0300
0300
0300
0700
0600
0600
0600
0600
0600
0E00
0C00
0C00
0C00
0C00
0C00
1800
1800
1800
1800
1800
1800
3000
3000
3000
3000
3000
3000
6000
6000
6000
6000
6000
E000
C000
C000
C000
C000
ENDCHAR
STARTCHAR 00ED
ENCODING 237
SWIDTH 180 0
DWIDTH 14 0
BBX 18 57 3 0
BITMAP
0001C0
000380
000700
000600
000C00
001800
003800
007000
00E000
00C000
000000
000000
000000
000000
000000
000000
018000
038000
030000
030000
030000
030000
030000
070000
060000
060000
060000
060000
060000
0E0000
0C0000
0C0000
0C0000
0C0000
0C0000
180000
180000
180000
180000
180000
180000
300000
300000
300000
300000
300000
300000
600000
600000
600000
600000
600000
E00000
C00000
C00000
C00000
C00000
ENDCHAR
STARTCHAR 00EE
ENCODING 238
SWIDTH 180 0
DWIDTH 14 0
BBX 18 57 3 0
BITMAP
006000
00F000
01F800
039C00
070E00
0E0600
1C0700
380380
7001C0
E000C0
000000
000000
000000
000000
000000
000000
018000
038000
030000
030000
030000
030000
030000
070000
060000
060000
060000
060000
060000
0E0000
0C0000
0C0000
0C0000
0C0000
0C0000
180000
180000
180000
180000
180000
180000
300000
300000
300000
300000
300000
300000
600000
600000
600000
600000
600000
E00000
C00000
C00000
C00000
C00000
ENDCHAR
STARTCHAR 00EF
ENCODING 239
SWIDTH 180 0
DWIDTH 14 0
BBX 20 55 3 0
BITMAP
E00070
F000F0
F000F0
E00060
000000
000000
000000
000000
000000
000000
000000
000000
000000
000000
018000
038000
030000
030000
030000
030000
030000
070000
060000
060000
060000
060000
060000
0E0000
0C0000
0C0000
0C0000
0C0000
0C0000
180000
180000
180000
180000
180000
180000
300000
300000
300000
300000
300000
300000
600000
600000
600000
600000
600000
E00000
C00000
C00000
C00000
C00000
ENDCHAR
STARTCHAR 00F0
ENCODING 240
SWIDTH 552 0
DWIDTH 43 0
BBX 37 61 5 -1
BITMAP
0002000000
0003C00000
0001E00000
0000780000
00001C0000
00000F0030
00000380F8
000001C3E0
000000EF80
0000007E00
0000007800
000001F800
0000079C00
00001E0E00
0000780600
0000600700
0000000300
0000000300
0000000380
0000000180
0000000180
0000000180
00000000C0
00000000C0
0003FF00C0
000FFFE0C0
003E01F0C0
00F8003CC0
01E0000EC0
03800006C0
07000003C0
06000001C0
0E000001C0
1C000000C0
18000000C0
38000000C0
30000001C0
3000000180
7000000180
6000000180
6000000180
6000000380
E000000300
C000000300
C000000300
C000000600
C000000600
C000000E00
E000000C00
6000001C00
6000001800
6000003800
3000003000
3800006000
180000E000
1C0001C000
0E00078000
07800F0000
03FDFC0000
00FFF00000
000F800000
ENDCHAR
STARTCHAR 00F1
ENCODING 241
SWIDTH 527 0
DWIDTH 41 0
BBX 37 56 2 0
BITMAP
00007C0018
0001FF0038
0003C38030
000300C060
0006007BE0
0006003F80
000E000E00
0000000000
0000000000
0000000000
0000000000
0000000000
0000000000
0000000000
00000FE000
01807FFC00
0181F81E00
0183C00700
0187000380
018C000180
0398000180
03300000C0
03600000C0
03C00000C0
03C00000C0
03800000C0
07800000C0
07000000C0
07000000C0
06000000C0
06000000C0
06000001C0
0E00000180
0C00000180
0C00000180
0C00000180
0C00000180
0C00000300
1800000300
1800000300
1800000300
1800000300
1800000300
1800000600
3000000600
3000000600
3000000600
3000000600
3000000E00
7000000C00
6000000C00
6000000C00
6000000C00
6000000C00
6000001C00
E000001800
ENDCHAR
STARTCHAR 00F2
ENCODING 242
SWIDTH 527 0
DWIDTH 41 0
BBX 35 59 3 -1
BITMAP
0000C00000
0000600000
0000600000
0000300000
0000380000
0000180000
00001C0000
00000C0000
0000060000
0000060000
0000000000
0000000000
0000000000
0000000000
0000000000
0000000000
00007F0000
0003FFE000
000FC1F800
003C003C00
0070000E00
00E0000700
01C0000380
0380000180
07000001C0
0E000000C0
0C000000C0
1C000000E0
1800000060
3000000060
3000000060
7000000060
6000000060
6000000060
E000000060
C000000060
C000000060
C000000060
C000000060
C0000000E0
C0000000C0
C0000000C0
C0000000C0
C000000180
C000000180
C000000380
C000000300
C000000700
6000000600
6000000C00
7000001C00
3000003800
3800007000
1C0000E000
0E0003C000
07800F8000
03F8FE0000
00FFF80000
000F800000
ENDCHAR
STARTCHAR 00F3
ENCODING 243
SWIDTH 527 0
DWIDTH 41 0
BBX 35 59 3 -1
BITMAP
0000000E00
0000001C00
0000001800
0000003000
0000006000
000000E000
000001C000
0000038000
0000070000
0000060000
0000000000
0000000000
0000000000
0000000000
0000000000
0000000000
00007F0000
0003FFE000
000FC1F800
003C003C00
0070000E00
00E0000700
01C0000380
0380000180
07000001C0
0E000000C0
0C000000C0
1C000000E0
1800000060
3000000060
3000000060
7000000060
6000000060
6000000060
E000000060
C000000060
C000000060
C000000060
C000000060
C0000000E0
C0000000C0
C0000000C0
C0000000C0
C000000180
C000000180
C000000380
C000000300
C000000700
6000000600
6000000C00
7000001C00
3000003800
3800007000
1C0000E000
0E0003C000
07800F8000
03F8FE0000
00FFF80000
000F800000
ENDCHAR
STARTCHAR 00F4
ENCODING 244
SWIDTH 527 0
DWIDTH 41 0
BBX 35 59 3 -1
BITMAP
0000010000
0000078000
00000FC000
00001CC000
0000386000
0000707000
0000E03800
0001C01C00
0003800C00
0007000E00
0000000000
0000000000
0000000000
0000000000
0000000000
0000000000
00007F0000
0003FFE000
000FC1F800
003C003C00
0070000E00
00E0000700
01C0000380
0380000180
07000001C0
0E000000C0
0C000000C0
1C000000E0
1800000060
3000000060
3000000060
7000000060
6000000060
6000000060
E000000060
C000000060
C000000060
C000000060
C000000060
C0000000E0
C0000000C0
C0000000C0
C0000000C0
C000000180
C000000180
C000000380
C000000300
C000000700
6000000600
6000000C00
7000001C00
3000003800
3800007000
1C0000E000
0E0003C000
07800F8000
03F8FE0000
00FFF80000
000F800000
ENDCHAR
STARTCHAR 00F5
ENCODING 245
SWIDTH 527 0
DWIDTH 41 0
BBX 35 57 3 -1
BITMAP
0001F00060
0003FC00E0
000F0E00C0
000C0381C0
001C01EF80
001800FF00
0018003C00
0000000000
0000000000
0000000000
0000000000
0000000000
0000000000
0000000000
00007F0000
0003FFE000
000FC1F800
003C003C00
0070000E00
00E0000700
01C0000380
0380000180
07000001C0
0E000000C0
0C000000C0
1C000000E0
1800000060
3000000060
3000000060
7000000060
6000000060
6000000060
E000000060
C000000060
C000000060
C000000060
C000000060
C0000000E0
C0000000C0
C0000000C0
C0000000C0
C000000180
C000000180
C000000380
C000000300
C000000700
6000000600
6000000C00
7000001C00
3000003800
3800007000
1C0000E000
0E0003C000
07800F8000
03F8FE0000
00FFF80000
000F800000
ENDCHAR
STARTCHAR 00F6
ENCODING 246
SWIDTH 527 0
DWIDTH 41 0
BBX 35 57 3 -1
BITMAP
0003000300
0007800780
000F800780
0007000700
0000000000
0000000000
0000000000
0000000000
0000000000
0000000000
0000000000
0000000000
0000000000
0000000000
00007F0000
0003FFE000
000FC1F800
003C003C00
0070000E00
00E0000700
01C0000380
0380000180
07000001C0
0E000000C0
0C000000C0
1C000000E0
1800000060
3000000060
3000000060
7000000060
6000000060
6000000060
E000000060
C000000060
C000000060
C000000060
C000000060
C0000000E0
C0000000C0
C0000000C0
C0000000C0
C000000180
C000000180
C000000380
C000000300
C000000700
6000000600
6000000C00
7000001C00
3000003800
3800007000
1C0000E000
0E0003C000
07800F8000
03F8FE0000
00FFF80000
000F800000
ENDCHAR
STARTCHAR 00F7
ENCODING 247
SWIDTH 540 0
DWIDTH 42 0
BBX 37 34 3 9
BITMAP
0000060000
00000F0000
00000F0000
00000E0000
0000000000
0000000000
0000000000
0000000000
0000000000
0000000000
0000000000
0000000000
0000000000
0000000000
0000000000
FFFFFFFFF8
FFFFFFFFF8
0000000000
0000000000
0000000000
0000000000
0000000000
0000000000
0000000000
0000000000
0000000000
0000000000
0000000000
0000000000
0000000000
0001C00000
0001E00000
0001C00000
0001800000
ENDCHAR
STARTCHAR 00F8
ENCODING 248
SWIDTH 527 0
DWIDTH 41 0
BBX 36 51 2 -5
BITMAP
0000000070
0000000060
00000000E0
00000000C0
00003F8180
0001FFF380
0007E0FF00
001E001E00
003C000F00
0070000F80
00E00019C0
01C00038C0
03800030E0
0700007060
060000E060
0E0000C070
0C0001C030
1800018030
1800030030
3800070030
3000060030
30000C0030
70001C0030
6000180030
6000300030
6000700030
6000600070
E000E00060
C001C00060
C001800060
C0038000E0
C0070000C0
E0060000C0
600E000180
600C000380
6018000300
6038000700
3030000E00
3060000C00
38E0001C00
1CC0003800
0DC000F000
0F8001E000
0780078000
07F87F0000
0EFFFC0000
0C0F800000
1C00000000
1800000000
3000000000
7000000000
ENDCHAR
STARTCHAR 00F9
ENCODING 249
SWIDTH 527 0
DWIDTH 41 0
BBX 34 59 4 -1
BITMAP
0000C00000
0000600000
0000600000
0000300000
0000380000
0000180000
00001C0000
00000C0000
0000060000
0000060000
0000000000
0000000000
0000000000
0000000000
0000000000
0000000000
0000000000
06000000C0
06000000C0
06000000C0
06000000C0
0E00000180
0C00000180
0C00000180
0C00000180
0C00000180
0C00000380
1C00000300
1800000300
1800000300
1800000300
1800000300
1800000700
3800000600
3000000600
3000000600
3000000600
3000000600
3000000E00
6000000C00
6000000C00
6000000C00
6000000C00
6000000C00
6000001C00
6000001800
E000001800
E000003800
6000003800
6000007800
600000F000
600000F000
700001B000
3000073000
38000E3000
1C003C7000
0F87F86000
03FFC06000
007C000000
ENDCHAR
STARTCHAR 00FA
ENCODING 250
SWIDTH 527 0
DWIDTH 41 0
BBX 34 59 4 -1
BITMAP
0000000E00
0000001C00
0000003800
0000007000
0000006000
000000C000
0000018000
0000038000
0000070000
00000E0000
0000000000
0000000000
0000000000
0000000000
0000000000
0000000000
0000000000
06000000C0
06000000C0
06000000C0
06000000C0
0E00000180
0C00000180
0C00000180
0C00000180
0C00000180
0C00000380
1C00000300
1800000300
1800000300
1800000300
1800000300
1800000700
3800000600
3000000600
3000000600
3000000600
3000000600
3000000E00
6000000C00
6000000C00
6000000C00
6000000C00
6000000C00
6000001C00
6000001800
E000001800
E000003800
6000003800
6000007800
600000F000
600000F000
700001B000
3000073000
38000E3000
1C003C7000
0F87F86000
03FFC06000
007C000000
ENDCHAR
STARTCHAR 00FB
ENCODING 251
SWIDTH 527 0
DWIDTH 41 0
BBX 34 59 4 -1
BITMAP
0000030000
0000078000
00000FC000
00001CC000
0000386000
0000707000
0000E03800
0001C01C00
0003800C00
0007000E00
0000000000
0000000000
0000000000
0000000000
0000000000
0000000000
0000000000
06000000C0
06000000C0
06000000C0
06000000C0
0E00000180
0C00000180
0C00000180
0C00000180
0C00000180
0C00000380
1C00000300
1800000300
1800000300
1800000300
1800000300
1800000700
3800000600
3000000600
3000000600
3000000600
3000000600
3000000E00
6000000C00
6000000C00
6000000C00
6000000C00
6000000C00
6000001C00
6000001800
E000001800
E000003800
6000003800
6000007800
600000F000
600000F000
700001B000
3000073000
38000E3000
1C003C7000
0F87F86000
03FFC06000
007C000000
ENDCHAR
STARTCHAR 00FC
ENCODING 252
SWIDTH 527 0
DWIDTH 41 0
BBX 34 57 4 -1
BITMAP
0007000300
0007800780
000F800780
0007000700
0000000000
0000000000
0000000000
0000000000
0000000000
0000000000
0000000000
0000000000
0000000000
0000000000
0000000000
06000000C0
06000000C0
06000000C0
06000000C0
0E00000180
0C00000180
0C00000180
0C00000180
0C00000180
0C00000380
1C00000300
1800000300
1800000300
1800000300
1800000300
1800000700
3800000600
3000000600
3000000600
3000000600
3000000600
3000000E00
6000000C00
6000000C00
6000000C00
6000000C00
6000000C00
6000001C00
6000001800
E000001800
E000003800
6000003800
6000007800
600000F000
600000F000
700001B000
3000073000
38000E3000
1C003C7000
0F87F86000
03FFC06000
007C000000
ENDCHAR
STARTCHAR 00FD
ENCODING 253
SWIDTH 462 0
DWIDTH 36 0
BBX 41 75 -3 -17
BITMAP
000000007000
00000000E000
00000001C000
000000038000
000000070000
000000060000
0000000C0000
000000180000
000000300000
000000700000
000000000000
000000000000
000000000000
000000000000
000000000000
000000000000
000000000000
00C000000380
00C000000300
00C000000700
00E000000600
006000000E00
006000000C00
006000001800
007000001800
003000003000
003000007000
003000006000
00300000E000
00380000C000
00180001C000
001800018000
001800038000
001C00030000
000C00060000
000C00060000
000C000C0000
000C001C0000
000E00180000
000600380000
000600300000
000600700000
000600600000
000300E00000
000300C00000
000301C00000
000301800000
000383000000
000187000000
000186000000
00018E000000
00018C000000
0001DC000000
0000D8000000
0000F8000000
0000F0000000
0000F0000000
000060000000
0000E0000000
0000C0000000
000180000000
000380000000
000300000000
000700000000
000600000000
000E00000000
000C00000000
001800000000
003800000000
007000000000
00E000000000
01C000000000
CF8000000000
FF0000000000
300000000000
ENDCHAR
STARTCHAR 00FE
ENCODING 254
SWIDTH 527 0
DWIDTH 41 0
BBX 37 74 0 -16
BITMAP
000C000000
000C000000
000C000000
000C000000
000C000000
0018000000
0018000000
0018000000
0018000000
0018000000
0038000000
0030000000
0030000000
0030000000
0030000000
0030000000
007003F000
00603FFE00
0060FC1F00
0061E00380
00678001C0
006E0000E0
00FC000060
00F8000030
00F0000030
00E0000030
00C0000038
00C0000018
0180000018
0180000018
0180000018
0180000018
0180000018
0380000018
0300000018
0300000018
0300000018
0300000030
0300000030
0700000030
0600000030
0600000070
0600000060
0600000060
06000000E0
0E000000C0
0C000000C0
0C00000180
0C00000380
0C00000300
0E00000700
1E00000E00
1B00000C00
1B80001800
19C0007000
18F000E000
183F0FC000
300FFF0000
3001F00000
3000000000
3000000000
3000000000
3000000000
6000000000
6000000000
6000000000
6000000000
6000000000
E000000000
C000000000
C000000000
C000000000
C000000000
C000000000
ENDCHAR
STARTCHAR 00FF
ENCODING 255
SWIDTH 462 0
DWIDTH 36 0
BBX 41 73 -3 -17
BITMAP
000038001800
000078003C00
000078003C00
000038003800
000000000000
000000000000
000000000000
000000000000
000000000000
000000000000
000000000000
000000000000
000000000000
000000000000
000000000000
00C000000380
00C000000300
00C000000700
00E000000600
006000000E00
006000000C00
006000001800
007000001800
003000003000
003000007000
003000006000
00300000E000
00380000C000
00180001C000
001800018000
001800038000
001C00030000
000C00060000
000C00060000
000C000C0000
000C001C0000
000E00180000
000600380000
000600300000
000600700000
000600600000
000300E00000
000300C00000
000301C00000
000301800000
000383000000
000187000000
000186000000
00018E000000
00018C000000
0001DC000000
0000D8000000
0000F8000000
0000F0000000
0000F0000000
000060000000
0000E0000000
0000C0000000
000180000000
000380000000
000300000000
000700000000
000600000000
000E00000000
000C00000000
001800000000
003800000000
007000000000
00E000000000
01C000000000
CF8000000000
FF0000000000
300000000000
ENDCHAR
STARTCHAR 0100
ENCODING 256
SWIDTH 578 0
DWIDTH 45 0
BBX 43 67 -2 0
BITMAP
000003FFFFE0
000003FFFFC0
000000000000
000000000000
000000000000
000000000000
000000000000
000000000000
000000000000
000000000000
000000000000
000000000000
0000000E0000
0000000F0000
0000001F0000
0000001B0000
0000003B0000
000000330000
000000618000
000000618000
000000C18000
000000C18000
000001818000
00000181C000
00000300C000
00000700C000
00000600C000
00000E00C000
00000C00E000
00001C006000
000018006000
000038006000
000030006000
000060006000
000060003000
0000C0003000
0000C0003000
000180003000
000180003000
000300001800
000700001800
000600001800
000E00001800
000C00001800
001C00001C00
001800000C00
003800000C00
003000000C00
007FFFFFFC00
007FFFFFFE00
00C000000600
00C000000600
018000000600
038000000600
030000000700
070000000300
060000000300
0E0000000300
0C0000000300
1C0000000300
180000000180
300000000180
300000000180
600000000180
600000000180
C000000001C0
C000000000C0
ENDCHAR
STARTCHAR 0101
ENCODING 257
SWIDTH 501 0
DWIDTH 39 0
BBX 36 56 1 -1
BITMAP
0001FFFFF0
0001FFFFF0
0000000000
0000000000
0000000000
0000000000
0000000000
0000000000
0000000000
0000000000
0000000000
0000000000
0000000000
00003F8000
0003FFF000
000FC0FC00
001E001E00
0078000700
00E0000300
01C0000380
0180000180
0300000180
07000000C0
06000000C0
06000000C0
0000000180
0000000180
0000000180
0000000180
0000000180
0000000180
0000000380
0000FFFF00
001FFFFF00
007F800300
01F0000300
0780000300
0E00000600
1C00000600
3800000600
3000000600
6000000600
6000000600
E000000C00
C000000C00
C000001C00
C000003C00
C000007C00
C00000EC00
600001D800
6000039800
30000F1800
3C003C1800
0F83F81800
07FFC01C00
00FC000000
ENDCHAR
STARTCHAR 0102
ENCODING 258
SWIDTH 578 0
DWIDTH 45 0
BBX 43 69 -2 0
BITMAP
0000030000E0
0000030000C0
0000030000C0
0000030001C0
000003800380
000001800700
000000E00E00
000000FFFC00
0000003FF000
000000078000
000000000000
000000000000
000000000000
000000000000
0000000E0000
0000000F0000
0000001F0000
0000001B0000
0000003B0000
000000330000
000000618000
000000618000
000000C18000
000000C18000
000001818000
00000181C000
00000300C000
00000700C000
00000600C000
00000E00C000
00000C00E000
00001C006000
000018006000
000038006000
000030006000
000060006000
000060003000
0000C0003000
0000C0003000
000180003000
000180003000
000300001800
000700001800
000600001800
000E00001800
000C00001800
001C00001C00
001800000C00
003800000C00
003000000C00
007FFFFFFC00
007FFFFFFE00
00C000000600
00C000000600
018000000600
038000000600
030000000700
070000000300
060000000300
0E0000000300
0C0000000300
1C0000000300
180000000180
300000000180
300000000180
600000000180
600000000180
C000000001C0
C000000000C0
ENDCHAR
STARTCHAR 0103
ENCODING 259
SWIDTH 501 0
DWIDTH 39 0
BBX 36 58 1 -1
BITMAP
0000C00030
0000C00030
0000C00070
0000C00060
0000C000E0
0000E001C0
0000700380
00003E3F00
00001FFC00
000003F000
0000000000
0000000000
0000000000
0000000000
0000000000
00003F8000
0003FFF000
000FC0FC00
001E001E00
0078000700
00E0000300
01C0000380
0180000180
0300000180
07000000C0
06000000C0
06000000C0
0000000180
0000000180
0000000180
0000000180
0000000180
0000000180
0000000380
0000FFFF00
001FFFFF00
007F800300
01F0000300
0780000300
0E00000600
1C00000600
3800000600
3000000600
6000000600
6000000600
E000000C00
C000000C00
C000001C00
C000003C00
C000007C00
C00000EC00
600001D800
6000039800
30000F1800
3C003C1800
0F83F81800
07FFC01C00
00FC000000
ENDCHAR
STARTCHAR 0104
ENCODING 260
SWIDTH 578 0
DWIDTH 45 0
BBX 42 70 -2 -15
BITMAP
0000000E0000
0000000F0000
0000001F0000
0000001B0000
0000003B0000
000000330000
000000618000
000000618000
000000C18000
000000C18000
000001818000
00000181C000
00000300C000
00000700C000
00000600C000
00000E00C000
00000C00E000
00001C006000
000018006000
000038006000
000030006000
000060006000
000060003000
0000C0003000
0000C0003000
000180003000
000180003000
000300001800
000700001800
000600001800
000E00001800
000C00001800
001C00001C00
001800000C00
003800000C00
003000000C00
007FFFFFFC00
007FFFFFFE00
00C000000600
00C000000600
018000000600
038000000600
030000000700
070000000300
060000000300
0E0000000300
0C0000000300
1C0000000300
180000000180
300000000180
300000000180
600000000180
600000000180
C000000001C0
C000000000C0
000000000180
000000000700
000000000E00
000000001800
000000003000
000000006000
00000000E000
00000000C000
00000000C000
000000018000
000000018000
00000001C000
00000000E380
00000000FF80
000000003E00
ENDCHAR
STARTCHAR 0105
ENCODING 261
SWIDTH 501 0
DWIDTH 39 0
BBX 34 57 1 -15
BITMAP
00003F8000
0003FFF000
000FC0FC00
001E001E00
0078000700
00E0000300
01C0000380
0180000180
0300000180
07000000C0
06000000C0
06000000C0
0000000180
0000000180
0000000180
0000000180
0000000180
0000000180
0000000380
0000FFFF00
001FFFFF00
007F800300
01F0000300
0780000300
0E00000600
1C00000600
3800000600
3000000600
6000000600
6000000600
E000000C00
C000000C00
C000001C00
C000003C00
C000007C00
C00000EC00
600001D800
6000039800
30000F1800
3C003C1800
0F83F81800
07FFC01C00
00FC003800
0000007000
000001C000
0000038000
0000070000
0000060000
00000C0000
00001C0000
0000180000
0000180000
0000180000
0000180000
00001C3000
00000FF000
000007C000
ENDCHAR
STARTCHAR 0106
ENCODING 262
SWIDTH 617 0
DWIDTH 48 0
BBX 42 72 5 -1
BITMAP
000000007000
00000000E000
00000001C000
000000038000
000000030000
000000060000
0000000C0000
0000001C0000
000000380000
000000700000
000000000000
000000000000
000000000000
000000000000
000000000000
00000FFC0000
00007FFF8000
0001F803E000
0003C0007000
000F00003800
001E00000C00
003800000E00
007000000700
006000000300
00C000000380
01C000000180
018000000180
030000000180
070000000180
0600000000C0
0E00000000C0
0C00000000C0
0C00000000C0
180000000000
180000000000
180000000000
300000000000
300000000000
300000000000
300000000000
300000000000
700000000000
600000000000
600000000000
600000000000
600000000000
600000000000
C00000000000
C00000000000
C00000000000
C00000000000
C00000000000
C00000000000
C00000000000
C00000000C00
C00000001800
C00000001800
C00000003800
600000003000
600000007000
600000006000
70000000E000
30000001C000
380000018000
180000030000
1C00000F0000
0E00001E0000
070000780000
03C001F00000
01F83FC00000
007FFF000000
0007E0000000
ENDCHAR
STARTCHAR 0107
ENCODING 263
SWIDTH 488 0
DWIDTH 38 0
BBX 32 59 3 -1
BITMAP
0000001C
00000018
00000030
00000060
000000E0
000001C0
00000380
00000300
00000600
00000C00
00000000
00000000
00000000
00000000
00000000
00000000
0000FE00
0007FFC0
001F83E0
00380078
00F0001C
01C0000C
03800006
03000006
06000003
0E000003
0C000003
18000003
18000003
38000003
30000000
30000000
60000000
60000000
60000000
E0000000
C0000000
C0000000
C0000000
C0000000
C0000000
C0000000
C0000000
C0000000
C0000000
C0000000
C000000C
C000001C
60000018
60000038
60000030
30000070
300000E0
180001C0
1C000780
0F001F00
03F1FC00
01FFF000
001F0000
ENDCHAR
STARTCHAR 0108
ENCODING 264
SWIDTH 617 0
DWIDTH 48 0
BBX 42 72 5 -1
BITMAP
000000180000
0000003C0000
0000007C0000
000000E60000
000001C70000
000003838000
00000701C000
00000E00C000
00001C00E000
000070007000
000000000000
000000000000
000000000000
000000000000
000000000000
00000FFC0000
00007FFF8000
0001F803E000
0003C0007000
000F00003800
001E00000C00
003800000E00
007000000700
006000000300
00C000000380
01C000000180
018000000180
030000000180
070000000180
0600000000C0
0E00000000C0
0C00000000C0
0C00000000C0
180000000000
180000000000
180000000000
300000000000
300000000000
300000000000
300000000000
300000000000
700000000000
600000000000
600000000000
600000000000
600000000000
600000000000
C00000000000
C00000000000
C00000000000
C00000000000
C00000000000
C00000000000
C00000000000
C00000000C00
C00000001800
C00000001800
C00000003800
600000003000
600000007000
600000006000
70000000E000
30000001C000
380000018000
180000030000
1C00000F0000
0E00001E0000
070000780000
03C001F00000
01F83FC00000
007FFF000000
0007E0000000
ENDCHAR
STARTCHAR 0109
ENCODING 265
SWIDTH 488 0
DWIDTH 38 0
BBX 32 59 3 -1
BITMAP
00000200
00000700
00000F80
00003DC0
000070C0
0000E060
0001C070
00038038
0007001C
000E001C
00000000
00000000
00000000
00000000
00000000
00000000
0000FE00
0007FFC0
001F83E0
00380078
00F0001C
01C0000C
03800006
03000006
06000003
0E000003
0C000003
18000003
18000003
38000003
30000000
30000000
60000000
60000000
60000000
E0000000
C0000000
C0000000
C0000000
C0000000
C0000000
C0000000
C0000000
C0000000
C0000000
C0000000
C000000C
C000001C
60000018
60000038
60000030
30000070
300000E0
180001C0
1C000780
0F001F00
03F1FC00
01FFF000
001F0000
ENDCHAR
STARTCHAR 010A
ENCODING 266
SWIDTH 617 0
DWIDTH 48 0
BBX 42 69 5 -1
BITMAP
000000380000
0000003C0000
000000780000
000000380000
000000000000
000000000000
000000000000
000000000000
000000000000
000000000000
000000000000
000000000000
00000FFC0000
00007FFF8000
0001F803E000
0003C0007000
000F00003800
001E00000C00
003800000E00
007000000700
006000000300
00C000000380
01C000000180
018000000180
030000000180
070000000180
0600000000C0
0E00000000C0
0C00000000C0
0C00000000C0
180000000000
180000000000
180000000000
300000000000
300000000000
300000000000
300000000000
300000000000
700000000000
600000000000
600000000000
600000000000
600000000000
600000000000
C00000000000
C00000000000
C00000000000
C00000000000
C00000000000
C00000000000
C00000000000
C00000000C00
C00000001800
C00000001800
C00000003800
600000003000
600000007000
600000006000
70000000E000
30000001C000
380000018000
180000030000
1C00000F0000
0E00001E0000
070000780000
03C001F00000
01F83FC00000
007FFF000000
0007E0000000
ENDCHAR
STARTCHAR 010B
ENCODING 267
SWIDTH 488 0
DWIDTH 38 0
BBX 32 56 3 -1
BITMAP
00000700
00000F00
00000F00
00000E00
00000000
00000000
00000000
00000000
00000000
00000000
00000000
00000000
00000000
0000FE00
0007FFC0
001F83E0
00380078
00F0001C
01C0000C
03800006
03000006
06000003
0E000003
0C000003
18000003
18000003
38000003
30000000
30000000
60000000
60000000
60000000
E0000000
C0000000
C0000000
C0000000
C0000000
C0000000
C0000000
C0000000
C0000000
C0000000
C0000000
C000000C
C000001C
60000018
60000038
60000030
30000070
300000E0
180001C0
1C000780
0F001F00
03F1FC00
01FFF000
001F0000
ENDCHAR
STARTCHAR 010C
ENCODING 268
SWIDTH 617 0
DWIDTH 48 0
BBX 42 71 5 -1
BITMAP
00001C003800
00000C007000
00000E00E000
00000701C000
000003038000
000001870000
000001CE0000
000000DC0000
000000780000
000000700000
000000000000
000000000000
000000000000
000000000000
00000FFC0000
00007FFF8000
0001F803E000
0003C0007000
000F00003800
001E00000C00
003800000E00
007000000700
006000000300
00C000000380
01C000000180
018000000180
030000000180
070000000180
0600000000C0
0E00000000C0
0C00000000C0
0C00000000C0
180000000000
180000000000
180000000000
300000000000
300000000000
300000000000
300000000000
300000000000
700000000000
600000000000
600000000000
600000000000
600000000000
600000000000
C00000000000
C00000000000
C00000000000
C00000000000
C00000000000
C00000000000
C00000000000
C00000000C00
C00000001800
C00000001800
C00000003800
600000003000
600000007000
600000006000
70000000E000
30000001C000
380000018000
180000030000
1C00000F0000
0E00001E0000
070000780000
03C001F00000
01F83FC00000
007FFF000000
0007E0000000
ENDCHAR
STARTCHAR 010D
ENCODING 269
SWIDTH 488 0
DWIDTH 38 0
BBX 32 58 3 -1
BITMAP
00030006
0003800C
00018018
0000C030
0000E060
000060C0
00003180
00003B00
00001E00
00000C00
00000000
00000000
00000000
00000000
00000000
0000FE00
0007FFC0
001F83E0
00380078
00F0001C
01C0000C
03800006
03000006
06000003
0E000003
0C000003
18000003
18000003
38000003
30000000
30000000
60000000
60000000
60000000
E0000000
C0000000
C0000000
C0000000
C0000000
C0000000
C0000000
C0000000
C0000000
C0000000
C0000000
C000000C
C000001C
60000018
60000038
60000030
30000070
300000E0
180001C0
1C000780
0F001F00
03F1FC00
01FFF000
001F0000
ENDCHAR
STARTCHAR 010E
ENCODING 270
SWIDTH 630 0
DWIDTH 49 0
BBX 42 70 4 0
BITMAP
000060000000
00006000C000
000030018000
000038030000
000018060000
00000C0C0000
00000E180000
000006700000
000003E00000
000003C00000
000000000000
000000000000
000000000000
000000000000
000000000000
007FFFF80000
007FFFFF0000
00E00007C000
00C00001E000
00C000007000
00C000003800
00C000001C00
00C000000E00
018000000600
018000000300
018000000300
018000000180
018000000180
018000000180
0300000000C0
0300000000C0
0300000000C0
0300000000C0
0300000000C0
0300000000C0
0600000000C0
0600000000C0
0600000000C0
0600000000C0
0600000000C0
0E00000001C0
0C0000000180
0C0000000180
0C0000000180
0C0000000180
0C0000000180
1C0000000380
180000000300
180000000300
180000000300
180000000600
180000000600
300000000E00
300000000C00
300000001C00
300000001800
300000003800
300000003000
600000006000
60000000E000
60000001C000
600000038000
600000070000
6000000E0000
C000003C0000
C00000F80000
C00003E00000
C0001F800000
FFFFFE000000
FFFFE0000000
ENDCHAR
STARTCHAR 010F
ENCODING 271
SWIDTH 591 0
DWIDTH 46 0
BBX 46 59 4 -1
BITMAP
00000000180C
00000000180C
00000000180C
00000000381C
000000003018
000000003018
000000003038
000000003030
000000003070
000000007060
0000000060C0
000000006000
000000006000
000000006000
000000006000
00000000C000
0000FC00C000
000FFF80C000
003F07C0C000
007800F0C000
00E00038C000
01C000198000
0380000D8000
070000078000
060000078000
0E0000038000
0C0000038000
180000030000
180000030000
380000030000
300000030000
300000030000
600000070000
600000060000
600000060000
E00000060000
C00000060000
C00000060000
C000000E0000
C000000C0000
C000000C0000
C000000C0000
C000000C0000
C000000C0000
C00000180000
C00000180000
C00000180000
C00000180000
C00000180000
C00000380000
600000700000
600000F00000
700001F00000
300003B00000
18000F300000
1E003C700000
0FC3F8600000
03FFC0600000
007E00000000
ENDCHAR
STARTCHAR 0110
ENCODING 272
SWIDTH 642 0
DWIDTH 50 0
BBX 43 55 4 0
BITMAP
003FFFFC0000
003FFFFF8000
00300003E000
00600000F000
006000003800
006000001C00
006000000E00
006000000700
006000000380
00C000000180
00C0000001C0
00C0000000C0
00C0000000C0
00C0000000E0
00C000000060
018000000060
018000000060
018000000060
018000000060
018000000060
018000000060
030000000060
030000000060
030000000060
030000000060
030000000060
FFFFFC0000E0
FFFFFC0000C0
0600000000C0
0600000000C0
0600000000C0
0600000000C0
0C0000000180
0C0000000180
0C0000000180
0C0000000380
0C0000000300
0C0000000300
180000000600
180000000600
180000000C00
180000001C00
180000001800
180000003800
300000007000
30000000E000
30000001C000
300000038000
300000070000
3000001E0000
6000003C0000
600001F00000
60000FC00000
7FFFFF000000
7FFFF0000000
ENDCHAR
STARTCHAR 0111
ENCODING 273
SWIDTH 527 0
DWIDTH 41 0
BBX 42 59 4 -1
BITMAP
000000001800
000000001800
000000001800
000000003800
000000003000
000000003000
000000003000
00000FFFFFC0
00000FFFFFC0
000000007000
000000006000
000000006000
000000006000
000000006000
000000006000
00000000C000
0000FC00C000
000FFF80C000
003F07C0C000
007800F0C000
00E00038C000
01C000198000
0380000D8000
070000078000
060000078000
0E0000038000
0C0000038000
180000030000
180000030000
380000030000
300000030000
300000030000
600000070000
600000060000
600000060000
E00000060000
C00000060000
C00000060000
C000000E0000
C000000C0000
C000000C0000
C000000C0000
C000000C0000
C000000C0000
C00000180000
C00000180000
C00000180000
C00000180000
C00000180000
C00000380000
600000700000
600000F00000
700001F00000
300003B00000
18000F300000
1E003C700000
0FC3F8600000
03FFC0600000
007E00000000
ENDCHAR
STARTCHAR 0112
ENCODING 274
SWIDTH 540 0
DWIDTH 42 0
BBX 42 67 4 0
BITMAP
0000FFFFF800
0000FFFFF800
000000000000
000000000000
000000000000
000000000000
000000000000
000000000000
000000000000
000000000000
000000000000
000000000000
007FFFFFFFC0
007FFFFFFF80
00E000000000
00C000000000
00C000000000
00C000000000
00C000000000
00C000000000
018000000000
018000000000
018000000000
018000000000
018000000000
018000000000
030000000000
030000000000
030000000000
030000000000
030000000000
030000000000
060000000000
060000000000
060000000000
060000000000
060000000000
0E0000000000
0FFFFFFF8000
0FFFFFFF8000
0C0000000000
0C0000000000
0C0000000000
1C0000000000
180000000000
180000000000
180000000000
180000000000
180000000000
300000000000
300000000000
300000000000
300000000000
300000000000
300000000000
600000000000
600000000000
600000000000
600000000000
600000000000
600000000000
C00000000000
C00000000000
C00000000000
C00000000000
FFFFFFFF0000
FFFFFFFF0000
ENDCHAR
STARTCHAR 0113
ENCODING 275
SWIDTH 488 0
DWIDTH 38 0
BBX 34 56 2 -1
BITMAP
0007FFFFC0
0007FFFFC0
0000000000
0000000000
0000000000
0000000000
0000000000
0000000000
0000000000
0000000000
0000000000
0000000000
0000000000
00003F0000
0003FFE000
000FC1F000
001E003800
0038001C00
00E0000E00
00C0000700
0180000300
0380000380
0700000180
0600000180
0C00000180
0C00000180
18000001C0
18000000C0
30000001C0
3000000180
3000000180
7FFFFFFF80
7FFFFFFF80
6000000000
6000000000
6000000000
6000000000
E000000000
C000000000
E000000000
6000000000
6000000000
6000000000
6000000000
6000000000
3000000000
3000000000
3800000000
1800000000
1C00003800
0E00007000
070000E000
03C003C000
01F83F0000
007FFC0000
0007C00000
ENDCHAR
STARTCHAR 0114
ENCODING 276
SWIDTH 540 0
DWIDTH 42 0
BBX 42 69 4 0
BITMAP
0000C0001800
0000C0003800
0000C0003000
0000C0007000
000060006000
00007000C000
00003803C000
00001FBF0000
00000FFE0000
000001F00000
000000000000
000000000000
000000000000
000000000000
007FFFFFFFC0
007FFFFFFF80
00E000000000
00C000000000
00C000000000
00C000000000
00C000000000
00C000000000
018000000000
018000000000
018000000000
018000000000
018000000000
018000000000
030000000000
030000000000
030000000000
030000000000
030000000000
030000000000
060000000000
060000000000
060000000000
060000000000
060000000000
0E0000000000
0FFFFFFF8000
0FFFFFFF8000
0C0000000000
0C0000000000
0C0000000000
1C0000000000
180000000000
180000000000
180000000000
180000000000
180000000000
300000000000
300000000000
300000000000
300000000000
300000000000
300000000000
600000000000
600000000000
600000000000
600000000000
600000000000
600000000000
C00000000000
C00000000000
C00000000000
C00000000000
FFFFFFFF0000
FFFFFFFF0000
ENDCHAR
STARTCHAR 0115
ENCODING 277
SWIDTH 488 0
DWIDTH 38 0
BBX 34 58 2 -1
BITMAP
00030000C0
00030000C0
00030000C0
0003000180
0003000380
0001800700
0001C00E00
0000F87C00
00007FF800
00000FC000
0000000000
0000000000
0000000000
0000000000
0000000000
00003F0000
0003FFE000
000FC1F000
001E003800
0038001C00
00E0000E00
00C0000700
0180000300
0380000380
0700000180
0600000180
0C00000180
0C00000180
18000001C0
18000000C0
30000001C0
3000000180
3000000180
7FFFFFFF80
7FFFFFFF80
6000000000
6000000000
6000000000
6000000000
E000000000
C000000000
E000000000
6000000000
6000000000
6000000000
6000000000
6000000000
3000000000
3000000000
3800000000
1800000000
1C00003800
0E00007000
070000E000
03C003C000
01F83F0000
007FFC0000
0007C00000
ENDCHAR
STARTCHAR 0116
ENCODING 278
SWIDTH 540 0
DWIDTH 42 0
BBX 42 67 4 0
BITMAP
000000700000
000000F00000
000000F00000
000000600000
000000000000
000000000000
000000000000
000000000000
000000000000
000000000000
000000000000
000000000000
007FFFFFFFC0
007FFFFFFF80
00E000000000
00C000000000
00C000000000
00C000000000
00C000000000
00C000000000
018000000000
018000000000
018000000000
018000000000
018000000000
018000000000
030000000000
030000000000
030000000000
030000000000
030000000000
030000000000
060000000000
060000000000
060000000000
060000000000
060000000000
0E0000000000
0FFFFFFF8000
0FFFFFFF8000
0C0000000000
0C0000000000
0C0000000000
1C0000000000
180000000000
180000000000
180000000000
180000000000
180000000000
300000000000
300000000000
300000000000
300000000000
300000000000
300000000000
600000000000
600000000000
600000000000
600000000000
600000000000
600000000000
C00000000000
C00000000000
C00000000000
C00000000000
FFFFFFFF0000
FFFFFFFF0000
ENDCHAR
STARTCHAR 0117
ENCODING 279
SWIDTH 488 0
DWIDTH 38 0
BBX 34 56 2 -1
BITMAP
0000038000
000003C000
000003C000
0000038000
0000000000
0000000000
0000000000
0000000000
0000000000
0000000000
0000000000
0000000000
0000000000
00003F0000
0003FFE000
000FC1F000
001E003800
0038001C00
00E0000E00
00C0000700
0180000300
0380000380
0700000180
0600000180
0C00000180
0C00000180
18000001C0
18000000C0
30000001C0
3000000180
3000000180
7FFFFFFF80
7FFFFFFF80
6000000000
6000000000
6000000000
6000000000
E000000000
C000000000
E000000000
6000000000
6000000000
6000000000
6000000000
6000000000
3000000000
3000000000
3800000000
1800000000
1C00003800
0E00007000
070000E000
03C003C000
01F83F0000
007FFC0000
0007C00000
ENDCHAR
STARTCHAR 0118
ENCODING 280
SWIDTH 540 0
DWIDTH 42 0
BBX 42 70 4 -15
BITMAP
007FFFFFFFC0
007FFFFFFF80
00E000000000
00C000000000
00C000000000
00C000000000
00C000000000
00C000000000
018000000000
018000000000
018000000000
018000000000
018000000000
018000000000
030000000000
030000000000
030000000000
030000000000
030000000000
030000000000
060000000000
060000000000
060000000000
060000000000
060000000000
0E0000000000
0FFFFFFF8000
0FFFFFFF8000
0C0000000000
0C0000000000
0C0000000000
1C0000000000
180000000000
180000000000
180000000000
180000000000
180000000000
300000000000
300000000000
300000000000
300000000000
300000000000
300000000000
600000000000
600000000000
600000000000
600000000000
600000000000
600000000000
C00000000000
C00000000000
C00000000000
C00000000000
FFFFFFFF0000
FFFFFFFF0000
000000180000
000000700000
000000E00000
000001800000
000003000000
000006000000
00000E000000
00000C000000
00000C000000
00001C000000
000018000000
00001C000000
00000E180000
00000FF80000
000003E00000
ENDCHAR
STARTCHAR 0119
ENCODING 281
SWIDTH 488 0
DWIDTH 38 0
BBX 34 55 2 -13
BITMAP
00003F0000
0003FFE000
000FC1F000
001E003800
0038001C00
00E0000E00
00C0000700
0180000300
0380000380
0700000180
0600000180
0C00000180
0C00000180
18000001C0
18000000C0
30000001C0
3000000180
3000000180
7FFFFFFF80
7FFFFFFF80
6000000000
6000000000
6000000000
6000000000
E000000000
C000000000
E000000000
6000000000
6000000000
6000000000
6000000000
6000000000
3000000000
3000000000
3800000000
1800000000
1C00003800
0E00007000
070000E000
03C003C000
01F83F8000
007FFE0000
0007DC0000
0000380000
0000700000
0000E00000
0000C00000
0001C00000
0001800000
0001800000
0001800000
0001800000
0001E70000
0000FF0000
0000380000
ENDCHAR
STARTCHAR 011A
ENCODING 282
SWIDTH 540 0
DWIDTH 42 0
BBX 42 70 4 0
BITMAP
000030000000
000030006000
00001800C000
00001C018000
00000C030000
000006060000
0000070C0000
000003180000
000001F00000
000001E00000
000000000000
000000000000
000000000000
000000000000
000000000000
007FFFFFFFC0
007FFFFFFF80
00E000000000
00C000000000
00C000000000
00C000000000
00C000000000
00C000000000
018000000000
018000000000
018000000000
018000000000
018000000000
018000000000
030000000000
030000000000
030000000000
030000000000
030000000000
030000000000
060000000000
060000000000
060000000000
060000000000
060000000000
0E0000000000
0FFFFFFF8000
0FFFFFFF8000
0C0000000000
0C0000000000
0C0000000000
1C0000000000
180000000000
180000000000
180000000000
180000000000
180000000000
300000000000
300000000000
300000000000
300000000000
300000000000
300000000000
600000000000
600000000000
600000000000
600000000000
600000000000
600000000000
C00000000000
C00000000000
C00000000000
C00000000000
FFFFFFFF0000
FFFFFFFF0000
ENDCHAR
STARTCHAR 011B
ENCODING 283
SWIDTH 488 0
DWIDTH 38 0
BBX 34 58 2 -1
BITMAP
0001C00180
0000C00300
0000600600
0000701C00
0000383800
0000187000
00000CE000
00000FC000
0000078000
0000030000
0000000000
0000000000
0000000000
0000000000
0000000000
00003F0000
0003FFE000
000FC1F000
001E003800
0038001C00
00E0000E00
00C0000700
0180000300
0380000380
0700000180
0600000180
0C00000180
0C00000180
18000001C0
18000000C0
30000001C0
3000000180
3000000180
7FFFFFFF80
7FFFFFFF80
6000000000
6000000000
6000000000
6000000000
E000000000
C000000000
E000000000
6000000000
6000000000
6000000000
6000000000
6000000000
3000000000
3000000000
3800000000
1800000000
1C00003800
0E00007000
070000E000
03C003C000
01F83F0000
007FFC0000
0007C00000
ENDCHAR
STARTCHAR 011C
ENCODING 284
SWIDTH 655 0
DWIDTH 51 0
BBX 42 72 6 -1
BITMAP
000000180000
0000003C0000
0000007C0000
000000E60000
000001C70000
000003838000
00000701C000
00000E01C000
00003C00E000
000070007000
000000000000
000000000000
000000000000
000000000000
000000000000
000007FE0000
00003FFFC000
0000F803F000
0003C0007800
000700001C00
001E00000E00
003800000700
007000000300
006000000180
00C000000180
01C0000001C0
0380000000C0
0300000000C0
0700000000C0
0600000000C0
0E00000000C0
0C0000000000
1C0000000000
180000000000
180000000000
380000000000
300000000000
300000000000
300000000000
300000000000
700000000000
600000000000
600000000000
600000000000
600000000000
600000000000
E00007FFFF00
C00007FFFE00
C00000000600
C00000000600
C00000000600
C00000000600
C00000000E00
C00000000C00
C00000000C00
C00000000C00
C00000000C00
C00000001C00
600000001800
600000001800
600000001800
300000001800
300000001800
180000003800
1C0000003000
0C0000007000
06000001E000
03800007C000
01E0003F0000
00FC07FC0000
003FFFE00000
0007FC000000
ENDCHAR
STARTCHAR 011D
ENCODING 285
SWIDTH 527 0
DWIDTH 41 0
BBX 37 75 1 -17
BITMAP
0000006000
000000E000
000001F000
000003B800
0000071C00
00000E0C00
0000380E00
0000700700
0000E00380
0001C001C0
0000000000
0000000000
0000000000
0000000000
0000000000
0000000000
00001F8000
0001FFF018
0007E0F818
000F001E18
001C000738
0038000330
00700001B0
00E00001F0
00C00000F0
01C00000F0
0180000070
0300000060
0300000060
0600000060
0600000060
0E00000060
0C000000E0
0C000000C0
0C000000C0
1C000000C0
18000000C0
18000000C0
1800000180
1800000180
1800000180
1800000180
1800000180
1800000380
1800000300
1800000300
1800000300
1800000300
1800000700
1800000700
0C00000E00
0C00001E00
0E00003E00
0600007600
070001E600
0380078E00
01F87E0C00
007FF80C00
000FC00C00
0000000C00
0000001800
0000001800
0000001800
0000003000
0000003000
0000006000
000000E000
E00001C000
6000038000
3000070000
3C000E0000
0E003C0000
07F7F80000
01FFE00000
0008000000
ENDCHAR
STARTCHAR 011E
ENCODING 286
SWIDTH 655 0
DWIDTH 51 0
BBX 42 71 6 -1
BITMAP
000070000C00
000060000C00
000060001C00
000030001800
000030003800
000038007000
00001C00E000
00000F8FC000
000007FF0000
000000FC0000
000000000000
000000000000
000000000000
000000000000
000007FE0000
00003FFFC000
0000F803F000
0003C0007800
000700001C00
001E00000E00
003800000700
007000000300
006000000180
00C000000180
01C0000001C0
0380000000C0
0300000000C0
0700000000C0
0600000000C0
0E00000000C0
0C0000000000
1C0000000000
180000000000
180000000000
380000000000
300000000000
300000000000
300000000000
300000000000
700000000000
600000000000
600000000000
600000000000
600000000000
600000000000
E00007FFFF00
C00007FFFE00
C00000000600
C00000000600
C00000000600
C00000000600
C00000000E00
C00000000C00
C00000000C00
C00000000C00
C00000000C00
C00000001C00
600000001800
600000001800
600000001800
300000001800
300000001800
180000003800
1C0000003000
0C0000007000
06000001E000
03800007C000
01E0003F0000
00FC07FC0000
003FFFE00000
0007FC000000
ENDCHAR
STARTCHAR 011F
ENCODING 287
SWIDTH 527 0
DWIDTH 41 0
BBX 37 74 1 -17
BITMAP
0001800030
0001800070
0001800060
0001800060
0000C000C0
0000C001C0
0000700780
00007C3F00
00001FFC00
000007E000
0000000000
0000000000
0000000000
0000000000
0000000000
00001F8000
0001FFF018
0007E0F818
000F001E18
001C000738
0038000330
00700001B0
00E00001F0
00C00000F0
01C00000F0
0180000070
0300000060
0300000060
0600000060
0600000060
0E00000060
0C000000E0
0C000000C0
0C000000C0
1C000000C0
18000000C0
18000000C0
1800000180
1800000180
1800000180
1800000180
1800000180
1800000380
1800000300
1800000300
1800000300
1800000300
1800000700
1800000700
0C00000E00
0C00001E00
0E00003E00
0600007600
070001E600
0380078E00
01F87E0C00
007FF80C00
000FC00C00
0000000C00
0000001800
0000001800
0000001800
0000003000
0000003000
0000006000
000000E000
E00001C000
6000038000
3000070000
3C000E0000
0E003C0000
07F7F80000
01FFE00000
0008000000
ENDCHAR
STARTCHAR 0120
ENCODING 288
SWIDTH 655 0
DWIDTH 51 0
BBX 42 69 6 -1
BITMAP
000000380000
000000780000
000000780000
000000380000
000000000000
000000000000
000000000000
000000000000
000000000000
000000000000
000000000000
000000000000
000007FE0000
00003FFFC000
0000F803F000
0003C0007800
000700001C00
001E00000E00
003800000700
007000000300
006000000180
00C000000180
01C0000001C0
0380000000C0
0300000000C0
0700000000C0
0600000000C0
0E00000000C0
0C0000000000
1C0000000000
180000000000
180000000000
380000000000
300000000000
300000000000
300000000000
300000000000
700000000000
600000000000
600000000000
600000000000
600000000000
600000000000
E00007FFFF00
C00007FFFE00
C00000000600
C00000000600
C00000000600
C00000000600
C00000000E00
C00000000C00
C00000000C00
C00000000C00
C00000000C00
C00000001C00
600000001800
600000001800
600000001800
300000001800
300000001800
180000003800
1C0000003000
0C0000007000
06000001E000
03800007C000
01E0003F0000
00FC07FC0000
003FFFE00000
0007FC000000
ENDCHAR
STARTCHAR 0121
ENCODING 289
SWIDTH 527 0
DWIDTH 41 0
BBX 37 72 1 -17
BITMAP
000000E000
000001E000
000001E000
000001C000
0000000000
0000000000
0000000000
0000000000
0000000000
0000000000
0000000000
0000000000
0000000000
00001F8000
0001FFF018
0007E0F818
000F001E18
001C000738
0038000330
00700001B0
00E00001F0
00C00000F0
01C00000F0
0180000070
0300000060
0300000060
0600000060
0600000060
0E00000060
0C000000E0
0C000000C0
0C000000C0
1C000000C0
18000000C0
18000000C0
1800000180
1800000180
1800000180
1800000180
1800000180
1800000380
1800000300
1800000300
1800000300
1800000300
1800000700
1800000700
0C00000E00
0C00001E00
0E00003E00
0600007600
070001E600
0380078E00
01F87E0C00
007FF80C00
000FC00C00
0000000C00
0000001800
0000001800
0000001800
0000003000
0000003000
0000006000
000000E000
E00001C000
6000038000
3000070000
3C000E0000
0E003C0000
07F7F80000
01FFE00000
0008000000
ENDCHAR
STARTCHAR 0122
ENCODING 290
SWIDTH 655 0
DWIDTH 51 0
BBX 42 71 6 -16
BITMAP
000007FE0000
00003FFFC000
0000F803F000
0003C0007800
000700001C00
001E00000E00
003800000700
007000000300
006000000180
00C000000180
01C0000001C0
0380000000C0
0300000000C0
0700000000C0
0600000000C0
0E00000000C0
0C0000000000
1C0000000000
180000000000
180000000000
380000000000
300000000000
300000000000
300000000000
300000000000
700000000000
600000000000
600000000000
600000000000
600000000000
600000000000
E00007FFFF00
C00007FFFE00
C00000000600
C00000000600
C00000000600
C00000000600
C00000000E00
C00000000C00
C00000000C00
C00000000C00
C00000000C00
C00000001C00
600000001800
600000001800
600000001800
300000001800
300000001800
180000003800
1C0000003000
0C0000007000
06000001E000
03800007C000
01E0003F0000
00FC07FC0000
003FFFE00000
0007FC000000
000000000000
000000000000
000000000000
000180000000
000180000000
000180000000
000180000000
000300000000
000300000000
000700000000
000600000000
000E00000000
000C00000000
001800000000
ENDCHAR
STARTCHAR 0123
ENCODING 291
SWIDTH 527 0
DWIDTH 41 0
BBX 37 77 1 -17
BITMAP
0000001800
0000003000
0000003000
0000006000
0000006000
000000C000
000000C000
000000C000
000000C000
000000C000
000001C000
0000018000
0000000000
0000000000
0000000000
0000000000
0000000000
0000000000
00001F8000
0001FFF018
0007E0F818
000F001E18
001C000738
0038000330
00700001B0
00E00001F0
00C00000F0
01C00000F0
0180000070
0300000060
0300000060
0600000060
0600000060
0E00000060
0C000000E0
0C000000C0
0C000000C0
1C000000C0
18000000C0
18000000C0
1800000180
1800000180
1800000180
1800000180
1800000180
1800000380
1800000300
1800000300
1800000300
1800000300
1800000700
1800000700
0C00000E00
0C00001E00
0E00003E00
0600007600
070001E600
0380078E00
01F87E0C00
007FF80C00
000FC00C00
0000000C00
0000001800
0000001800
0000001800
0000003000
0000003000
0000006000
000000E000
E00001C000
6000038000
3000070000
3C000E0000
0E003C0000
07F7F80000
01FFE00000
0008000000
ENDCHAR
STARTCHAR 0124
ENCODING 292
SWIDTH 668 0
DWIDTH 52 0
BBX 47 70 4 0
BITMAP
000000060000
0000000F0000
0000001F8000
00000039C000
00000070C000
000000E06000
000001C07000
000003803800
000007001C00
00000E001C00
000000000000
000000000000
000000000000
000000000000
000000000000
006000000006
006000000006
00E000000006
00C000000006
00C00000000C
00C00000000C
00C00000000C
00C00000000C
01800000000C
01800000000C
018000000018
018000000018
018000000018
018000000018
030000000018
030000000038
030000000030
030000000030
030000000030
030000000030
060000000030
060000000070
060000000060
060000000060
060000000060
0E0000000060
0FFFFFFFFFE0
0FFFFFFFFFC0
0C00000000C0
0C00000000C0
0C00000000C0
1C00000000C0
1800000000C0
180000000180
180000000180
180000000180
180000000180
300000000180
300000000180
300000000300
300000000300
300000000300
300000000300
600000000300
600000000700
600000000600
600000000600
600000000600
600000000600
C00000000600
C00000000E00
C00000000C00
C00000000C00
C00000000C00
C00000000C00
ENDCHAR
STARTCHAR 0125
ENCODING 293
SWIDTH 527 0
DWIDTH 41 0
BBX 34 70 2 0
BITMAP
0000030000
0000078000
00000FC000
00001CE000
0000386000
0000707000
0000E03800
0001C01C00
0003800E00
0007000E00
0000000000
0000000000
0030000000
0030000000
0030000000
0030000000
0030000000
0070000000
0060000000
0060000000
0060000000
0060000000
0060000000
00C0000000
00C0000000
00C0000000
00C0000000
00C0000000
00C00FE000
01807FFC00
0181F81E00
0183C00700
0187000380
018C000180
0198000180
03300000C0
03600000C0
03C00000C0
03C00000C0
03800000C0
07800000C0
07000000C0
07000000C0
06000000C0
06000000C0
06000001C0
0E00000180
0C00000180
0C00000180
0C00000180
0C00000180
0C00000300
1800000300
1800000300
1800000300
1800000300
1800000300
1800000600
3000000600
3000000600
3000000600
3000000600
3000000E00
3000000C00
6000000C00
6000000C00
6000000C00
6000000C00
6000001C00
E000001800
ENDCHAR
STARTCHAR 0126
ENCODING 294
SWIDTH 655 0
DWIDTH 51 0
BBX 51 55 2 0
BITMAP
00600000000300
00600000000600
00600000000600
00600000000600
00600000000600
00C00000000600
00C00000000600
00C00000000C00
00C00000000C00
00C00000000C00
00C00000000C00
01800000000C00
01800000001C00
01800000001800
3FFFFFFFFFFFE0
3FFFFFFFFFFFE0
01800000001800
03000000001800
03000000003800
03000000003000
03000000003000
03000000003000
07000000003000
06000000003000
06000000006000
06000000006000
07FFFFFFFFE000
07FFFFFFFFE000
0E000000006000
0C000000006000
0C00000000C000
0C00000000C000
0C00000000C000
0C00000000C000
1800000000C000
1800000000C000
18000000018000
18000000018000
18000000018000
18000000018000
30000000018000
30000000038000
30000000030000
30000000030000
30000000030000
30000000030000
60000000030000
60000000070000
60000000060000
60000000060000
60000000060000
60000000060000
C0000000060000
C00000000C0000
C00000000C0000
ENDCHAR
STARTCHAR 0127
ENCODING 295
SWIDTH 540 0
DWIDTH 42 0
BBX 33 58 4 0
BITMAP
0070000000
0060000000
0060000000
0060000000
0060000000
0060000000
00C0000000
1FFFFF8000
1FFFFF8000
00C0000000
00C0000000
00C0000000
0180000000
0180000000
0180000000
0180000000
01801FC000
0180FFF800
0301F03C00
0307800E00
030E000700
031C000300
0330000380
0760000180
06C0000180
06C0000180
0780000180
0700000180
0700000180
0E00000180
0E00000180
0C00000180
0C00000180
0C00000180
0C00000300
1800000300
1800000300
1800000300
1800000300
1800000300
1800000600
3000000600
3000000600
3000000600
3000000600
3000000E00
3000000C00
6000000C00
6000000C00
6000000C00
6000000C00
6000001C00
E000001800
C000001800
C000001800
C000001800
C000001800
C000003000
ENDCHAR
STARTCHAR 0128
ENCODING 296
SWIDTH 244 0
DWIDTH 19 0
BBX 25 69 5 0
BITMAP
00000180
0FC00380
1FF00300
38380700
700C0E00
6007FC00
E003F800
00000000
00000000
00000000
00000000
00000000
00000000
00000000
00600000
00600000
00600000
00600000
00600000
00C00000
00C00000
00C00000
00C00000
00C00000
00C00000
01800000
01800000
01800000
01800000
01800000
01800000
03000000
03000000
03000000
03000000
03000000
03000000
06000000
06000000
06000000
06000000
06000000
0E000000
0C000000
0C000000
0C000000
0C000000
0C000000
18000000
18000000
18000000
18000000
18000000
18000000
30000000
30000000
30000000
30000000
30000000
30000000
60000000
60000000
60000000
60000000
60000000
60000000
C0000000
C0000000
C0000000
ENDCHAR
STARTCHAR 0129
ENCODING 297
SWIDTH 180 0
DWIDTH 14 0
BBX 24 56 1 0
BITMAP
000003
0FC003
3FE007
703806
601C0E
E00FFC
C003F0
000080
000000
000000
000000
000000
000000
000000
000000
006000
00E000
00C000
00C000
00C000
00C000
00C000
01C000
018000
018000
018000
018000
018000
038000
030000
030000
030000
030000
030000
060000
060000
060000
060000
060000
060000
0C0000
0C0000
0C0000
0C0000
0C0000
0C0000
180000
180000
180000
180000
180000
380000
300000
300000
300000
300000
ENDCHAR
STARTCHAR 012A
ENCODING 298
SWIDTH 244 0
DWIDTH 19 0
BBX 23 67 5 0
BITMAP
3FFFFE
3FFFFE
000000
000000
000000
000000
000000
000000
000000
000000
000000
000000
006000
006000
006000
006000
006000
00C000
00C000
00C000
00C000
00C000
00C000
018000
018000
018000
018000
018000
018000
030000
030000
030000
030000
030000
030000
060000
060000
060000
060000
060000
0E0000
0C0000
0C0000
0C0000
0C0000
0C0000
180000
180000
180000
180000
180000
180000
300000
300000
300000
300000
300000
300000
600000
600000
600000
600000
600000
600000
C00000
C00000
C00000
ENDCHAR
STARTCHAR 012B
ENCODING 299
SWIDTH 180 0
DWIDTH 14 0
BBX 21 54 2 0
BITMAP
7FFFF8
FFFFF8
000000
000000
000000
000000
000000
000000
000000
000000
000000
000000
000000
00C000
01C000
018000
018000
018000
018000
018000
038000
030000
030000
030000
030000
030000
070000
060000
060000
060000
060000
060000
0C0000
0C0000
0C0000
0C0000
0C0000
0C0000
180000
180000
180000
180000
180000
180000
300000
300000
300000
300000
300000
700000
600000
600000
600000
600000
ENDCHAR
STARTCHAR 012C
ENCODING 300
SWIDTH 244 0
DWIDTH 19 0
BBX 23 69 5 0
BITMAP
300006
30000E
30000C
38000C
180018
1C0038
0E00F0
07EFC0
03FF80
007800
000000
000000
000000
000000
006000
006000
006000
006000
006000
00C000
00C000
00C000
00C000
00C000
00C000
018000
018000
018000
018000
018000
018000
030000
030000
030000
030000
030000
030000
060000
060000
060000
060000
060000
0E0000
0C0000
0C0000
0C0000
0C0000
0C0000
180000
180000
180000
180000
180000
180000
300000
300000
300000
300000
300000
300000
600000
600000
600000
600000
600000
600000
C00000
C00000
C00000
ENDCHAR
STARTCHAR 012D
ENCODING 301
SWIDTH 180 0
DWIDTH 14 0
BBX 20 56 3 0
BITMAP
C00030
C00030
C00030
C00060
E000E0
6001C0
700380
3F7F00
0FFC00
01E000
000000
000000
000000
000000
000000
018000
038000
030000
030000
030000
030000
030000
070000
060000
060000
060000
060000
060000
0E0000
0C0000
0C0000
0C0000
0C0000
0C0000
180000
180000
180000
180000
180000
180000
300000
300000
300000
300000
300000
300000
600000
600000
600000
600000
600000
E00000
C00000
C00000
C00000
C00000
ENDCHAR
STARTCHAR 012E
ENCODING 302
SWIDTH 244 0
DWIDTH 19 0
BBX 20 70 -4 -15
BITMAP
000030
000030
000030
000030
000030
000060
000060
000060
000060
000060
000060
0000C0
0000C0
0000C0
0000C0
0000C0
0000C0
000180
000180
000180
000180
000180
000180
000300
000300
000300
000300
000300
000700
000600
000600
000600
000600
000600
000C00
000C00
000C00
000C00
000C00
000C00
001800
001800
001800
001800
001800
001800
003000
003000
003000
003000
003000
003000
006000
006000
006000
00C000
038000
070000
0C0000
180000
300000
700000
600000
600000
E00000
C00000
600000
70C000
7FC000
1F0000
ENDCHAR
STARTCHAR 012F
ENCODING 303
SWIDTH 192 0
DWIDTH 15 0
BBX 21 71 -6 -15
BITMAP
000038
000078
000078
000038
000000
000000
000000
000000
000000
000000
000000
000000
000000
000000
000000
0000C0
0000C0
0001C0
000180
000180
000180
000180
000180
000380
000300
000300
000300
000300
000300
000700
000600
000600
000600
000600
000600
000C00
000C00
000C00
000C00
000C00
000C00
001800
001800
001800
001800
001800
003800
003000
003000
003000
003000
003000
007000
006000
006000
006000
01C000
038000
070000
0C0000
180000
300000
700000
600000
600000
C00000
C00000
E00000
71C000
7FC000
1F0000
ENDCHAR
STARTCHAR 0130
ENCODING 304
SWIDTH 244 0
DWIDTH 19 0
BBX 14 67 5 0
BITMAP
001C
003C
003C
0018
0000
0000
0000
0000
0000
0000
0000
0000
0060
0060
0060
0060
0060
00C0
00C0
00C0
00C0
00C0
00C0
0180
0180
0180
0180
0180
0180
0300
0300
0300
0300
0300
0300
0600
0600
0600
0600
0600
0E00
0C00
0C00
0C00
0C00
0C00
1800
1800
1800
1800
1800
1800
3000
3000
3000
3000
3000
3000
6000
6000
6000
6000
6000
6000
C000
C000
C000
ENDCHAR
STARTCHAR 0131
ENCODING 305
SWIDTH 180 0
DWIDTH 14 0
BBX 9 41 3 0
BITMAP
0180
0380
0300
0300
0300
0300
0300
0700
0600
0600
0600
0600
0600
0E00
0C00
0C00
0C00
0C00
0C00
1800
1800
1800
1800
1800
1800
3000
3000
3000
3000
3000
3000
6000
6000
6000
6000
6000
E000
C000
C000
C000
C000
ENDCHAR
STARTCHAR 0132
ENCODING 306
SWIDTH 784 0
DWIDTH 61 0
BBX 54 56 5 -1
BITMAP
0060000000000C
0060000000000C
0060000000000C
0060000000000C
0060000000000C
00C0000000000C
00C00000000018
00C00000000018
00C00000000018
00C00000000018
00C00000000018
01800000000038
01800000000030
01800000000030
01800000000030
01800000000030
01800000000030
03000000000070
03000000000060
03000000000060
03000000000060
03000000000060
03000000000060
060000000000C0
060000000000C0
060000000000C0
060000000000C0
060000000000C0
0E0000000000C0
0C000000000180
0C000000000180
0C000000000180
0C000000000180
0C000000000180
18000000000380
18000000000300
18000000000300
18000000000300
18000000000300
18000000000300
30006000000600
3000C000000600
3000C000000600
3000C000000C00
3000C000000C00
30006000001800
60006000003800
60006000003000
60007000007000
6000300000E000
6000380001C000
60001C00078000
C0000F000F0000
C00007F0FC0000
C00001FFF00000
0000003F000000
ENDCHAR
STARTCHAR 0133
ENCODING 307
SWIDTH 398 0
DWIDTH 31 0
BBX 28 73 3 -17
BITMAP
00700070
00F000F0
00F000F0
007000E0
00000000
00000000
00000000
00000000
00000000
00000000
00000000
00000000
00000000
00000000
00000000
01800300
01800300
03800300
03000300
03000300
03000300
03000600
03000600
07000600
06000600
06000600
06000E00
06000C00
06000C00
0E000C00
0C000C00
0C000C00
0C001C00
0C001800
0C001800
18001800
18001800
18001800
18003800
18003000
18003000
30003000
30003000
30003000
30006000
30006000
70006000
60006000
60006000
60006000
6000C000
6000C000
E000C000
C000C000
C000C000
C001C000
00018000
00018000
00018000
00018000
00018000
00038000
00030000
00030000
00070000
00060000
000E0000
001C0000
00380000
00700000
77E00000
7FC00000
18000000
ENDCHAR
STARTCHAR 0134
ENCODING 308
SWIDTH 527 0
DWIDTH 41 0
BBX 47 70 2 -1
BITMAP
000000000300
000000000780
000000000F80
000000001CC0
0000000038E0
000000007070
00000000E038
00000003C018
00000007001C
0000000E000E
000000000000
000000000000
000000000000
000000000000
000000000C00
000000000C00
000000001800
000000001800
000000001800
000000001800
000000001800
000000003800
000000003000
000000003000
000000003000
000000003000
000000003000
000000007000
000000006000
000000006000
000000006000
000000006000
000000006000
00000000E000
00000000C000
00000000C000
00000000C000
00000000C000
00000000C000
000000018000
000000018000
000000018000
000000018000
000000018000
000000018000
000000030000
000000030000
000000030000
000000030000
000000030000
000000070000
000000060000
000000060000
000000060000
C00000060000
C000000C0000
C000000C0000
C000001C0000
C00000180000
C00000380000
C00000300000
C00000700000
600000E00000
600001C00000
300003800000
380007000000
1E001E000000
07E1F8000000
03FFE0000000
007F00000000
ENDCHAR
STARTCHAR 0135
ENCODING 309
SWIDTH 192 0
DWIDTH 15 0
BBX 33 73 -12 -17
BITMAP
000000C000
000001E000
000003F000
0000073800
00000E1C00
00001C0C00
0000780E00
0000E00700
0001C00380
0001800180
0000000000
0000000000
0000000000
0000000000
0000000000
0000030000
0000030000
0000030000
0000060000
0000060000
0000060000
0000060000
0000060000
00000E0000
00000C0000
00000C0000
00000C0000
00000C0000
00000C0000
00001C0000
0000180000
0000180000
0000180000
0000180000
0000180000
0000380000
0000300000
0000300000
0000300000
0000300000
0000300000
0000600000
0000600000
0000600000
0000600000
0000600000
0000600000
0000C00000
0000C00000
0000C00000
0000C00000
0000C00000
0001C00000
0001800000
0001800000
0001800000
0001800000
0001800000
0003800000
0003000000
0003000000
0003000000
0007000000
0006000000
0006000000
000C000000
001C000000
0018000000
0070000000
00E0000000
EFC0000000
FF80000000
1000000000
ENDCHAR
STARTCHAR 0136
ENCODING 310
SWIDTH 604 0
DWIDTH 47 0
BBX 45 66 4 -12
BITMAP
006000000078
0060000000E0
00E0000001C0
00C000000380
00C000000F00
00C000001E00
00C000003800
00C000007000
01800000E000
01800001C000
018000038000
018000070000
0180001E0000
018000380000
030000700000
030000E00000
030001C00000
030003800000
030007000000
03001E000000
060038000000
060070000000
0600E0000000
0601C0000000
060380000000
0E0780000000
0C1DC0000000
0C38E0000000
0C7060000000
0CE070000000
0D8038000000
1F0018000000
1E000C000000
1C000E000000
180006000000
180003000000
180003800000
300001800000
300000C00000
300000E00000
300000600000
300000300000
300000380000
6000001C0000
6000000C0000
6000000E0000
600000070000
600000030000
600000038000
C0000001C000
C0000000C000
C0000000E000
C00000007000
C00000003000
C00000003800
000300000000
000300000000
000300000000
000600000000
000600000000
000600000000
000C00000000
000C00000000
001800000000
003800000000
003000000000
ENDCHAR
STARTCHAR 0137
ENCODING 311
SWIDTH 450 0
DWIDTH 35 0
BBX 35 69 2 -12
BITMAP
0030000000
0030000000
0030000000
0030000000
0030000000
0070000000
0060000000
0060000000
0060000000
0060000000
0060000000
00C0000000
00C0000000
00C0000000
00C0000000
00C0000000
00C0000000
01800001E0
0180000380
0180000700
0180000E00
0180001C00
0180007800
030000E000
030001C000
0300038000
03000F0000
03001C0000
0700380000
0600700000
0600E00000
0603C00000
0607000000
060E000000
0E1C000000
0C7C000000
0CE6000000
0DC7000000
0F83000000
0E01800000
1C01C00000
1800C00000
1800600000
1800700000
1800300000
1800180000
30001C0000
30000C0000
30000E0000
3000070000
3000030000
3000038000
600001C000
600000C000
600000E000
6000007000
6000003000
E00C003800
000C000000
000C000000
000C000000
001C000000
0018000000
0018000000
0038000000
0030000000
0060000000
00E0000000
00C0000000
ENDCHAR
STARTCHAR 0138
ENCODING 312
SWIDTH 501 0
DWIDTH 39 0
BBX 36 41 2 0
BITMAP
0180000070
01800000E0
01800001C0
0180000380
0180000700
0380000E00
0300001800
0300007000
030000E000
030001C000
0300038000
0700070000
06000E0000
06001C0000
0600380000
0600F00000
0601C00000
0C03800000
0C07000000
0FFE000000
0FFE000000
0C07000000
0C07000000
1803800000
1801C00000
1800E00000
1800700000
1800380000
3800180000
30001C0000
30000E0000
3000070000
3000038000
300001C000
700000C000
6000006000
6000007000
6000003800
6000001C00
6000000E00
E000000600
ENDCHAR
STARTCHAR 0139
ENCODING 313
SWIDTH 488 0
DWIDTH 38 0
BBX 29 68 4 0
BITMAP
00007000
0000E000
0001C000
00018000
00030000
00060000
000E0000
001C0000
00380000
00300000
00000000
00000000
00000000
00600000
00600000
00E00000
00C00000
00C00000
00C00000
00C00000
00C00000
01C00000
01800000
01800000
01800000
01800000
01800000
03800000
03000000
03000000
03000000
03000000
03000000
06000000
06000000
06000000
06000000
06000000
0E000000
0C000000
0C000000
0C000000
0C000000
0C000000
1C000000
18000000
18000000
18000000
18000000
18000000
38000000
30000000
30000000
30000000
30000000
30000000
60000000
60000000
60000000
60000000
60000000
60000000
C0000000
C0000000
C0000000
C0000000
FFFFFFF8
FFFFFFF8
ENDCHAR
STARTCHAR 013A
ENCODING 314
SWIDTH 192 0
DWIDTH 15 0
BBX 21 73 3 0
BITMAP
000018
000030
000060
0000E0
0001C0
000380
000700
000600
000C00
001800
000000
000000
000000
000000
000000
003000
003000
006000
006000
006000
006000
006000
006000
00C000
00C000
00C000
00C000
00C000
00C000
018000
018000
018000
018000
018000
038000
030000
030000
030000
030000
030000
070000
060000
060000
060000
060000
060000
0E0000
0C0000
0C0000
0C0000
0C0000
0C0000
180000
180000
180000
180000
180000
180000
300000
300000
300000
300000
300000
700000
600000
600000
600000
600000
600000
E00000
C00000
C00000
C00000
ENDCHAR
STARTCHAR 013B
ENCODING 315
SWIDTH 488 0
DWIDTH 38 0
BBX 29 70 4 -15
BITMAP
00600000
00600000
00E00000
00C00000
00C00000
00C00000
00C00000
00C00000
01C00000
01800000
01800000
01800000
01800000
01800000
03800000
03000000
03000000
03000000
03000000
03000000
06000000
06000000
06000000
06000000
06000000
0E000000
0C000000
0C000000
0C000000
0C000000
0C000000
1C000000
18000000
18000000
18000000
18000000
18000000
38000000
30000000
30000000
30000000
30000000
30000000
60000000
60000000
60000000
60000000
60000000
60000000
C0000000
C0000000
C0000000
C0000000
FFFFFFF8
FFFFFFF8
00000000
00000000
00000000
00070000
00060000
00060000
00060000
00060000
000E0000
000C0000
000C0000
00180000
00380000
00300000
00600000
ENDCHAR
STARTCHAR 013C
ENCODING 316
SWIDTH 192 0
DWIDTH 15 0
BBX 17 73 -2 -15
BITMAP
000180
000180
000300
000300
000300
000300
000300
000300
000600
000600
000600
000600
000600
000600
000C00
000C00
000C00
000C00
000C00
001C00
001800
001800
001800
001800
001800
003800
003000
003000
003000
003000
003000
007000
006000
006000
006000
006000
006000
00C000
00C000
00C000
00C000
00C000
00C000
018000
018000
018000
018000
018000
038000
030000
030000
030000
030000
030000
070000
060000
060000
060000
000000
000000
000000
0C0000
0C0000
0C0000
0C0000
0C0000
180000
180000
380000
300000
700000
E00000
C00000
ENDCHAR
STARTCHAR 013D
ENCODING 317
SWIDTH 488 0
DWIDTH 38 0
BBX 29 55 4 0
BITMAP
006000C0
006000C0
00E000C0
00C00180
00C00180
00C00180
00C00300
00C00300
01C00600
01800E00
01800C00
01800000
01800000
01800000
03800000
03000000
03000000
03000000
03000000
03000000
06000000
06000000
06000000
06000000
06000000
0E000000
0C000000
0C000000
0C000000
0C000000
0C000000
1C000000
18000000
18000000
18000000
18000000
18000000
38000000
30000000
30000000
30000000
30000000
30000000
60000000
60000000
60000000
60000000
60000000
60000000
C0000000
C0000000
C0000000
C0000000
FFFFFFF8
FFFFFFF8
ENDCHAR
STARTCHAR 013E
ENCODING 318
SWIDTH 270 0
DWIDTH 21 0
BBX 22 58 3 0
BITMAP
00300C
00300C
00601C
006018
006018
006018
006030
006030
00C060
00C0E0
00C0C0
00C000
00C000
00C000
018000
018000
018000
018000
018000
038000
030000
030000
030000
030000
030000
070000
060000
060000
060000
060000
060000
0E0000
0C0000
0C0000
0C0000
0C0000
0C0000
180000
180000
180000
180000
180000
180000
300000
300000
300000
300000
300000
700000
600000
600000
600000
600000
600000
E00000
C00000
C00000
C00000
ENDCHAR
STARTCHAR 013F
ENCODING 319
SWIDTH 488 0
DWIDTH 38 0
BBX 29 55 4 0
BITMAP
00600000
00600000
00E00000
00C00000
00C00000
00C00000
00C00000
00C00000
01C00000
01800000
01800000
01800000
01800000
01800000
03800000
03000000
03000000
03000000
03000000
03000000
06000000
06000000
06000000
06000000
06000600
0E000E00
0C001F00
0C000E00
0C000000
0C000000
0C000000
1C000000
18000000
18000000
18000000
18000000
18000000
38000000
30000000
30000000
30000000
30000000
30000000
60000000
60000000
60000000
60000000
60000000
60000000
C0000000
C0000000
C0000000
C0000000
FFFFFFF8
FFFFFFF8
ENDCHAR
STARTCHAR 0140
ENCODING 320
SWIDTH 295 0
DWIDTH 23 0
BBX 17 58 3 0
BITMAP
003000
003000
006000
006000
006000
006000
006000
006000
00C000
00C000
00C000
00C000
00C000
00C000
018000
018000
018000
018000
018000
038000
030000
030000
030000
030000
030000
070000
060380
060780
060780
060300
060000
0E0000
0C0000
0C0000
0C0000
0C0000
0C0000
180000
180000
180000
180000
180000
180000
300000
300000
300000
300000
300000
700000
600000
600000
600000
600000
600000
E00000
C00000
C00000
C00000
ENDCHAR
STARTCHAR 0141
ENCODING 321
SWIDTH 501 0
DWIDTH 39 0
BBX 32 55 1 0
BITMAP
001C0000
00180000
00180000
00180000
00180000
00180000
00380000
00300000
00300000
00300000
00300000
00300000
00700000
00600000
00600000
00600000
00600000
00600000
00E00000
00C00000
00C00000
00C00600
00C07E00
00C3F800
019FC000
01FC0000
0FE00000
7F800000
F9800000
81800000
03000000
03000000
03000000
03000000
03000000
07000000
06000000
06000000
06000000
06000000
06000000
0E000000
0C000000
0C000000
0C000000
0C000000
0C000000
1C000000
18000000
18000000
18000000
18000000
18000000
3FFFFFFF
3FFFFFFF
ENDCHAR
STARTCHAR 0142
ENCODING 322
SWIDTH 231 0
DWIDTH 18 0
BBX 19 58 1 0
BITMAP
000300
000600
000600
000600
000600
000600
000E00
000C00
000C00
000C00
000C00
000C00
001C00
001800
001800
001800
001800
001800
003000
003000
003000
003000
003000
003060
0063E0
006F80
007E00
03F000
0FE000
7E6000
F0C000
C0C000
00C000
00C000
00C000
01C000
018000
018000
018000
018000
018000
038000
030000
030000
030000
030000
030000
060000
060000
060000
060000
060000
060000
0C0000
0C0000
0C0000
0C0000
0C0000
ENDCHAR
STARTCHAR 0143
ENCODING 323
SWIDTH 681 0
DWIDTH 53 0
BBX 49 70 3 0
BITMAP
000000000E0000
000000000C0000
00000000180000
00000000300000
00000000700000
00000000E00000
00000001C00000
00000003800000
00000003000000
00000006000000
00000000000000
00000000000000
00000000000000
00000000000000
00000000000000
00300000000380
00380000000300
00780000000300
006C0000000300
006C0000000300
00660000000300
00660000000700
00630000000600
00E30000000600
00C18000000600
00C18000000600
00C0C000000600
00C0C000000C00
00C06000000C00
01C06000000C00
01803000000C00
01803000000C00
01801800000C00
01801800001800
03800C00001800
03800C00001800
03000600001800
03000600001800
03000300003800
03000300003000
07000180003000
06000180003000
060000C0003000
060000C0003000
06000060007000
06000060006000
0E000030006000
0C000030006000
0C000018006000
0C000018006000
0C00000C00E000
0C00000C00C000
1C00000600C000
1800000600C000
1800000300C000
1800000300C000
18000003818000
18000001818000
38000001C18000
30000000C18000
30000000E18000
30000000638000
30000000730000
30000000330000
600000003B0000
600000001B0000
600000001F0000
600000000F0000
600000000E0000
E0000000060000
ENDCHAR
STARTCHAR 0144
ENCODING 324
SWIDTH 527 0
DWIDTH 41 0
BBX 34 58 2 0
BITMAP
0000000380
0000000700
0000000E00
0000000C00
0000001800
0000003000
0000006000
000000E000
000001C000
0000038000
0000000000
0000000000
0000000000
0000000000
0000000000
0000000000
00000FE000
01807FFC00
0181F81E00
0183C00700
0187000380
018C000180
0398000180
03300000C0
03600000C0
03C00000C0
03C00000C0
03800000C0
07800000C0
07000000C0
07000000C0
06000000C0
06000000C0
06000001C0
0E00000180
0C00000180
0C00000180
0C00000180
0C00000180
0C00000300
1800000300
1800000300
1800000300
1800000300
1800000300
1800000600
3000000600
3000000600
3000000600
3000000600
3000000E00
7000000C00
6000000C00
6000000C00
6000000C00
6000000C00
6000001C00
E000001800
ENDCHAR
STARTCHAR 0145
ENCODING 325
SWIDTH 681 0
DWIDTH 53 0
BBX 49 70 3 -15
BITMAP
00300000000380
00380000000300
00780000000300
006C0000000300
006C0000000300
00660000000300
00660000000700
00630000000600
00E30000000600
00C18000000600
00C18000000600
00C0C000000600
00C0C000000C00
00C06000000C00
01C06000000C00
01803000000C00
01803000000C00
01801800000C00
01801800001800
03800C00001800
03800C00001800
03000600001800
03000600001800
03000300003800
03000300003000
07000180003000
06000180003000
060000C0003000
060000C0003000
06000060007000
06000060006000
0E000030006000
0C000030006000
0C000018006000
0C000018006000
0C00000C00E000
0C00000C00C000
1C00000600C000
1800000600C000
1800000300C000
1800000300C000
18000003818000
18000001818000
38000001C18000
30000000C18000
30000000E18000
30000000638000
30000000730000
30000000330000
600000003B0000
600000001B0000
600000001F0000
600000000F0000
600000000E0000
E0000000060000
00000000000000
00000000000000
00000000000000
00003000000000
00003000000000
00003000000000
00003000000000
00007000000000
00006000000000
00006000000000
0000E000000000
0000C000000000
00018000000000
00038000000000
00030000000000
ENDCHAR
STARTCHAR 0146
ENCODING 326
SWIDTH 527 0
DWIDTH 41 0
BBX 34 57 2 -15
BITMAP
00000FE000
01807FFC00
0181F81E00
0183C00700
0187000380
018C000180
0398000180
03300000C0
03600000C0
03C00000C0
03C00000C0
03800000C0
07800000C0
07000000C0
07000000C0
06000000C0
06000000C0
06000001C0
0E00000180
0C00000180
0C00000180
0C00000180
0C00000180
0C00000300
1800000300
1800000300
1800000300
1800000300
1800000300
1800000600
3000000600
3000000600
3000000600
3000000600
3000000E00
7000000C00
6000000C00
6000000C00
6000000C00
6000000C00
6000001C00
E000001800
0000000000
0000000000
0000000000
0003000000
0003000000
0007000000
0006000000
0006000000
0006000000
000C000000
000C000000
001C000000
0018000000
0030000000
0030000000
ENDCHAR
STARTCHAR 0147
ENCODING 327
SWIDTH 681 0
DWIDTH 53 0
BBX 49 70 3 0
BITMAP
00000180000000
00000180030000
000000C0060000
000000E00C0000
00000060180000
00000030300000
00000038600000
00000019C00000
0000000F800000
0000000F000000
00000000000000
00000000000000
00000000000000
00000000000000
00000000000000
00300000000380
00380000000300
00780000000300
006C0000000300
006C0000000300
00660000000300
00660000000700
00630000000600
00E30000000600
00C18000000600
00C18000000600
00C0C000000600
00C0C000000C00
00C06000000C00
01C06000000C00
01803000000C00
01803000000C00
01801800000C00
01801800001800
03800C00001800
03800C00001800
03000600001800
03000600001800
03000300003800
03000300003000
07000180003000
06000180003000
060000C0003000
060000C0003000
06000060007000
06000060006000
0E000030006000
0C000030006000
0C000018006000
0C000018006000
0C00000C00E000
0C00000C00C000
1C00000600C000
1800000600C000
1800000300C000
1800000300C000
18000003818000
18000001818000
38000001C18000
30000000C18000
30000000E18000
30000000638000
30000000730000
30000000330000
600000003B0000
600000001B0000
600000001F0000
600000000F0000
600000000E0000
E0000000060000
ENDCHAR
STARTCHAR 0148
ENCODING 328
SWIDTH 527 0
DWIDTH 41 0
BBX 34 57 2 0
BITMAP
0000E000C0
0000600380
0000300700
0000380E00
0000181C00
00000C3800
00000E7000
000006E000
000003C000
0000038000
0000000000
0000000000
0000000000
0000000000
0000000000
00000FE000
01807FFC00
0181F81E00
0183C00700
0187000380
018C000180
0398000180
03300000C0
03600000C0
03C00000C0
03C00000C0
03800000C0
07800000C0
07000000C0
07000000C0
06000000C0
06000000C0
06000001C0
0E00000180
0C00000180
0C00000180
0C00000180
0C00000180
0C00000300
1800000300
1800000300
1800000300
1800000300
1800000300
1800000600
3000000600
3000000600
3000000600
3000000600
3000000E00
7000000C00
6000000C00
6000000C00
6000000C00
6000000C00
6000001C00
E000001800
ENDCHAR
STARTCHAR 0149
ENCODING 329
SWIDTH 527 0
DWIDTH 41 0
BBX 34 58 2 0
BITMAP
0700000000
0600000000
0600000000
0600000000
0600000000
0C00000000
0C00000000
1C00000000
1800000000
3000000000
7000000000
2000000000
0000000000
0000000000
0000000000
0000000000
00000FE000
01807FFC00
0181F81E00
0183C00700
0187000380
018C000180
0398000180
03300000C0
03600000C0
03C00000C0
03C00000C0
03800000C0
07800000C0
07000000C0
07000000C0
06000000C0
06000000C0
06000001C0
0E00000180
0C00000180
0C00000180
0C00000180
0C00000180
0C00000300
1800000300
1800000300
1800000300
1800000300
1800000300
1800000600
3000000600
3000000600
3000000600
3000000600
3000000E00
7000000C00
6000000C00
6000000C00
6000000C00
6000000C00
6000001C00
E000001800
ENDCHAR
STARTCHAR 014A
ENCODING 330
SWIDTH 681 0
DWIDTH 53 0
BBX 48 72 4 -17
BITMAP
006000000007
007000000006
00F000000006
00D800000006
00D800000006
00CC00000006
00CC0000000E
00C60000000C
01860000000C
01830000000C
01830000000C
01818000000C
018180000018
0180C0000018
0300C0000018
030060000018
030060000018
030030000018
030030000030
030018000030
060018000030
06000C000030
06000C000030
060006000030
060006000060
0E0003000060
0C0003000060
0C0001800060
0C0001800060
0C0000C000E0
0C0000C000C0
1C00006000C0
1800006000C0
1800003000C0
1800003000C0
1800001801C0
180000180180
3000001C0180
3000000C0180
300000060180
300000060180
300000070380
300000030300
600000038300
600000018300
60000001C300
60000000C300
60000000E600
600000006600
C00000007600
C00000003600
C00000003E00
C00000001E00
C00000001C00
C00000000C00
000000000C00
000000000C00
000000000C00
000000001C00
000000001800
000000001800
000000001800
000000003000
000000003000
000000007000
000000006000
00000000C000
00000001C000
000000078000
0000077F0000
000007FC0000
000000C00000
ENDCHAR
STARTCHAR 014B
ENCODING 331
SWIDTH 527 0
DWIDTH 41 0
BBX 34 59 2 -17
BITMAP
00000FE000
0180FFF800
0181F83C00
0187800E00
018E000700
019C000380
0338000180
0370000180
03600001C0
03C00000C0
03C00000C0
03800000C0
07000000C0
07000000C0
07000000C0
06000000C0
06000000C0
0600000180
0C00000180
0C00000180
0C00000180
0C00000180
0C00000180
0C00000300
1800000300
1800000300
1800000300
1800000300
1800000300
3800000600
3000000600
3000000600
3000000600
3000000600
3000000E00
7000000C00
6000000C00
6000000C00
6000000C00
6000000C00
6000001C00
C000001800
0000001800
0000001800
0000001800
0000001800
0000003000
0000003000
0000003000
0000007000
0000006000
000000E000
000000C000
0000018000
0000038000
00000F0000
000E7E0000
001FF80000
0001800000
ENDCHAR
STARTCHAR 014C
ENCODING 332
SWIDTH 642 0
DWIDTH 50 0
BBX 42 69 5 -1
BITMAP
00007FFFFC00
00007FFFFC00
000000000000
000000000000
000000000000
000000000000
000000000000
000000000000
000000000000
000000000000
000000000000
000000000000
000007FE0000
00007FFF8000
0001F803E000
0003C0007000
000F00003800
001C00001C00
003800000E00
007000000700
00E000000300
00C000000380
018000000180
038000000180
0300000001C0
0600000000C0
0600000000C0
0C00000000C0
0C00000000C0
1C00000000C0
1800000000C0
1800000000C0
3000000000C0
3000000000C0
3000000000C0
3000000000C0
6000000000C0
6000000000C0
6000000001C0
600000000180
600000000180
600000000180
C00000000180
C00000000180
C00000000380
C00000000300
C00000000300
C00000000300
C00000000700
C00000000600
C00000000600
C00000000E00
C00000000C00
C00000001C00
C00000001800
C00000003800
E00000003000
600000007000
60000000E000
30000000C000
300000018000
180000030000
1C00000E0000
0E00001C0000
070000780000
03C001F00000
01FC3FC00000
007FFF000000
0007F0000000
ENDCHAR
STARTCHAR 014D
ENCODING 333
SWIDTH 527 0
DWIDTH 41 0
BBX 35 56 3 -1
BITMAP
000FFFFF80
000FFFFF80
0000000000
0000000000
0000000000
0000000000
0000000000
0000000000
0000000000
0000000000
0000000000
0000000000
0000000000
00007F0000
0003FFE000
000FC1F800
003C003C00
0070000E00
00E0000700
01C0000380
0380000180
07000001C0
0E000000C0
0C000000C0
1C000000E0
1800000060
3000000060
3000000060
7000000060
6000000060
6000000060
E000000060
C000000060
C000000060
C000000060
C000000060
C0000000E0
C0000000C0
C0000000C0
C0000000C0
C000000180
C000000180
C000000380
C000000300
C000000700
6000000600
6000000C00
7000001C00
3000003800
3800007000
1C0000E000
0E0003C000
07800F8000
03F8FE0000
00FFF80000
000F800000
ENDCHAR
STARTCHAR 014E
ENCODING 334
SWIDTH 642 0
DWIDTH 50 0
BBX 42 71 5 -1
BITMAP
000030000C00
000060000C00
000060001C00
000030001800
000030003800
000038007000
00001C00E000
00000F8FC000
000007FF0000
000000FC0000
000000000000
000000000000
000000000000
000000000000
000007FE0000
00007FFF8000
0001F803E000
0003C0007000
000F00003800
001C00001C00
003800000E00
007000000700
00E000000300
00C000000380
018000000180
038000000180
0300000001C0
0600000000C0
0600000000C0
0C00000000C0
0C00000000C0
1C00000000C0
1800000000C0
1800000000C0
3000000000C0
3000000000C0
3000000000C0
3000000000C0
6000000000C0
6000000000C0
6000000001C0
600000000180
600000000180
600000000180
C00000000180
C00000000180
C00000000380
C00000000300
C00000000300
C00000000300
C00000000700
C00000000600
C00000000600
C00000000E00
C00000000C00
C00000001C00
C00000001800
C00000003800
E00000003000
600000007000
60000000E000
30000000C000
300000018000
180000030000
1C00000E0000
0E00001C0000
070000780000
03C001F00000
01FC3FC00000
007FFF000000
0007F0000000
ENDCHAR
STARTCHAR 014F
ENCODING 335
SWIDTH 527 0
DWIDTH 41 0
BBX 35 58 3 -1
BITMAP
0006000100
0006000180
0006000180
0006000300
0006000700
0003000E00
0003801C00
0001F0F800
0000FFF000
00001F8000
0000000000
0000000000
0000000000
0000000000
0000000000
00007F0000
0003FFE000
000FC1F800
003C003C00
0070000E00
00E0000700
01C0000380
0380000180
07000001C0
0E000000C0
0C000000C0
1C000000E0
1800000060
3000000060
3000000060
7000000060
6000000060
6000000060
E000000060
C000000060
C000000060
C000000060
C000000060
C0000000E0
C0000000C0
C0000000C0
C0000000C0
C000000180
C000000180
C000000380
C000000300
C000000700
6000000600
6000000C00
7000001C00
3000003800
3800007000
1C0000E000
0E0003C000
07800F8000
03F8FE0000
00FFF80000
000F800000
ENDCHAR
STARTCHAR 0150
ENCODING 336
SWIDTH 642 0
DWIDTH 50 0
BBX 43 72 5 -1
BITMAP
0000000780E0
0000000F01C0
0000000E0780
0000001C0F00
000000381C00
000000703800
000000E07000
000001C0E000
00000381C000
000007038000
00000E070000
000000000000
000000000000
000000000000
000000000000
000007FE0000
00007FFF8000
0001F803E000
0003C0007000
000F00003800
001C00001C00
003800000E00
007000000700
00E000000300
00C000000380
018000000180
038000000180
0300000001C0
0600000000C0
0600000000C0
0C00000000C0
0C00000000C0
1C00000000C0
1800000000C0
1800000000C0
3000000000C0
3000000000C0
3000000000C0
3000000000C0
6000000000C0
6000000000C0
6000000001C0
600000000180
600000000180
600000000180
C00000000180
C00000000180
C00000000380
C00000000300
C00000000300
C00000000300
C00000000700
C00000000600
C00000000600
C00000000E00
C00000000C00
C00000001C00
C00000001800
C00000003800
E00000003000
600000007000
60000000E000
30000000C000
300000018000
180000030000
1C00000E0000
0E00001C0000
070000780000
03C001F00000
01FC3FC00000
007FFF000000
0007F0000000
ENDCHAR
STARTCHAR 0151
ENCODING 337
SWIDTH 527 0
DWIDTH 41 0
BBX 38 59 3 -1
BITMAP
000000701C
000000E038
000001C070
00000380E0
00000701C0
00000E0380
00001C0700
0000381E00
0000703800
0000E07000
0001C0E000
0000000000
0000000000
0000000000
0000000000
0000000000
00007F0000
0003FFE000
000FC1F800
003C003C00
0070000E00
00E0000700
01C0000380
0380000180
07000001C0
0E000000C0
0C000000C0
1C000000E0
1800000060
3000000060
3000000060
7000000060
6000000060
6000000060
E000000060
C000000060
C000000060
C000000060
C000000060
C0000000E0
C0000000C0
C0000000C0
C0000000C0
C000000180
C000000180
C000000380
C000000300
C000000700
6000000600
6000000C00
7000001C00
3000003800
3800007000
1C0000E000
0E0003C000
07800F8000
03F8FE0000
00FFF80000
000F800000
ENDCHAR
STARTCHAR 0152
ENCODING 338
SWIDTH 887 0
DWIDTH 69 0
BBX 68 57 4 -1
BITMAP
00000FFFE000000000
00007FFFFFFFFFFFF0
0001F8001FFFFFFFF0
0007C0001800000000
000F00001800000000
001C00003800000000
003800003000000000
007000003000000000
00E000003000000000
01C000003000000000
018000003000000000
030000006000000000
070000006000000000
060000006000000000
0E0000006000000000
0C0000006000000000
0C0000006000000000
18000000C000000000
18000000C000000000
18000000C000000000
30000000C000000000
30000000C000000000
30000000C000000000
300000018000000000
300000018000000000
700000018000000000
600000018000000000
60000001FFFFFFF000
60000001FFFFFFE000
600000030000000000
600000030000000000
C00000030000000000
C00000030000000000
C00000030000000000
C00000070000000000
C00000060000000000
C00000060000000000
C00000060000000000
C00000060000000000
C00000060000000000
C000000E0000000000
C000000C0000000000
C000000C0000000000
C000000C0000000000
C000000C0000000000
6000000C0000000000
600000180000000000
600000180000000000
300000180000000000
380000180000000000
180000180000000000
0C0000180000000000
0F0000300000000000
038000300000000000
01F801FFFFFFFFE000
007FFFFFFFFFFFE000
000FFC000000000000
ENDCHAR
STARTCHAR 0153
ENCODING 339
SWIDTH 900 0
DWIDTH 70 0
BBX 66 43 3 -1
BITMAP
00003F0000003F8000
0003FFE00001FFE000
000FC1F80007E0F800
003E001C001E001C00
0078000E0038000E00
00E000070070000700
01C0000380E0000300
0380000181C0000380
07000001C380000180
06000000C300000180
0C000000E6000000C0
1C0000006E000000C0
180000006C000000C0
380000007C000000C0
3000000078000000C0
7000000078000000C0
6000000070000000C0
6000000070000000C0
600000007FFFFFFFC0
C00000007FFFFFFF80
C00000006000000000
C00000006000000000
C00000006000000000
C0000000E000000000
C0000000E000000000
C0000000E000000000
C0000000E000000000
C0000001E000000000
C0000001E000000000
C0000003E000000000
C00000036000000000
C00000076000000000
E000000E6000000000
6000000C3000000000
6000001C3000000000
300000381800000000
380000701C00001000
1C0000E00C00003800
0E0003C0070000F000
07000F80038003C000
03F0FE0001F83F0000
00FFF800007FFC0000
000F8000001FC00000
ENDCHAR
STARTCHAR 0154
ENCODING 340
SWIDTH 630 0
DWIDTH 49 0
BBX 42 70 3 0
BITMAP
00000000E000
00000001C000
000000038000
000000070000
000000060000
0000000C0000
000000180000
000000380000
000000700000
000000E00000
000000000000
000000000000
000000000000
000000000000
000000000000
003FFFFF0000
007FFFFFE000
00600000F800
006000003C00
006000000E00
006000000700
006000000300
00E000000180
00C000000180
00C0000000C0
00C0000000C0
00C0000000C0
00C0000000C0
0180000000C0
0180000000C0
0180000000C0
0180000000C0
018000000180
018000000180
030000000180
030000000300
030000000700
030000000600
030000000C00
030000001C00
060000003800
060000007000
06000001C000
0600000F8000
07FFFFFE0000
0FFFFFF00000
0C0000600000
0C0000700000
0C0000300000
0C0000380000
0C0000180000
1C0000180000
1800000C0000
1800000C0000
1800000E0000
180000060000
180000070000
300000030000
300000038000
300000018000
300000018000
30000001C000
30000000C000
60000000E000
600000006000
600000007000
600000003000
600000003000
600000001800
C00000001800
ENDCHAR
STARTCHAR 0155
ENCODING 341
SWIDTH 321 0
DWIDTH 25 0
BBX 27 58 2 0
BITMAP
000000E0
000001C0
00000380
00000700
00000600
00000C00
00001800
00003800
00007000
0000E000
00000000
00000000
00000000
00000000
00000000
00000000
00001F80
0180FF80
0183E000
01870000
018E0000
01980000
03B00000
03600000
03600000
03C00000
03800000
03800000
07000000
07000000
06000000
06000000
06000000
06000000
0E000000
0C000000
0C000000
0C000000
0C000000
0C000000
18000000
18000000
18000000
18000000
18000000
18000000
30000000
30000000
30000000
30000000
30000000
70000000
60000000
60000000
60000000
60000000
60000000
E0000000
ENDCHAR
STARTCHAR 0156
ENCODING 342
SWIDTH 630 0
DWIDTH 49 0
BBX 42 70 3 -15
BITMAP
003FFFFF0000
007FFFFFE000
00600000F800
006000003C00
006000000E00
006000000700
006000000300
00E000000180
00C000000180
00C0000000C0
00C0000000C0
00C0000000C0
00C0000000C0
0180000000C0
0180000000C0
0180000000C0
0180000000C0
018000000180
018000000180
030000000180
030000000300
030000000700
030000000600
030000000C00
030000001C00
060000003800
060000007000
06000001C000
0600000F8000
07FFFFFE0000
0FFFFFF00000
0C0000600000
0C0000700000
0C0000300000
0C0000380000
0C0000180000
1C0000180000
1800000C0000
1800000C0000
1800000E0000
180000060000
180000070000
300000030000
300000038000
300000018000
300000018000
30000001C000
30000000C000
60000000E000
600000006000
600000007000
600000003000
600000003000
600000001800
C00000001800
000000000000
000000000000
000000000000
000300000000
000300000000
000700000000
000600000000
000600000000
000600000000
000C00000000
000C00000000
001C00000000
001800000000
003000000000
003000000000
ENDCHAR
STARTCHAR 0157
ENCODING 343
SWIDTH 321 0
DWIDTH 25 0
BBX 29 57 -2 -15
BITMAP
000001F8
00180FF8
00183E00
00187000
0018E000
00198000
003B0000
00360000
00360000
003C0000
00380000
00380000
00700000
00700000
00600000
00600000
00600000
00600000
00E00000
00C00000
00C00000
00C00000
00C00000
00C00000
01800000
01800000
01800000
01800000
01800000
01800000
03000000
03000000
03000000
03000000
03000000
07000000
06000000
06000000
06000000
06000000
06000000
0E000000
00000000
00000000
00000000
0C000000
0C000000
1C000000
18000000
18000000
18000000
30000000
30000000
70000000
E0000000
C0000000
80000000
ENDCHAR
STARTCHAR 0158
ENCODING 344
SWIDTH 630 0
DWIDTH 49 0
BBX 42 70 3 0
BITMAP
000030000000
000038007000
00001C00E000
00000C01C000
000006038000
000007070000
0000030E0000
0000019C0000
000001F80000
000000F00000
000000000000
000000000000
000000000000
000000000000
000000000000
003FFFFF0000
007FFFFFE000
00600000F800
006000003C00
006000000E00
006000000700
006000000300
00E000000180
00C000000180
00C0000000C0
00C0000000C0
00C0000000C0
00C0000000C0
0180000000C0
0180000000C0
0180000000C0
0180000000C0
018000000180
018000000180
030000000180
030000000300
030000000700
030000000600
030000000C00
030000001C00
060000003800
060000007000
06000001C000
0600000F8000
07FFFFFE0000
0FFFFFF00000
0C0000600000
0C0000700000
0C0000300000
0C0000380000
0C0000180000
1C0000180000
1800000C0000
1800000C0000
1800000E0000
180000060000
180000070000
300000030000
300000038000
300000018000
300000018000
30000001C000
30000000C000
60000000E000
600000006000
600000007000
600000003000
600000003000
600000001800
C00000001800
ENDCHAR
STARTCHAR 0159
ENCODING 345
SWIDTH 321 0
DWIDTH 25 0
BBX 28 57 2 0
BITMAP
00380070
001800E0
001C01C0
000E0380
00060700
00030E00
00039C00
0001B800
0000F000
0000E000
00000000
00000000
00000000
00000000
00000000
00001F80
0180FF80
0183E000
01870000
018E0000
01980000
03B00000
03600000
03600000
03C00000
03800000
03800000
07000000
07000000
06000000
06000000
06000000
06000000
0E000000
0C000000
0C000000
0C000000
0C000000
0C000000
18000000
18000000
18000000
18000000
18000000
18000000
30000000
30000000
30000000
30000000
30000000
70000000
60000000
60000000
60000000
60000000
60000000
E0000000
ENDCHAR
STARTCHAR 015A
ENCODING 346
SWIDTH 565 0
DWIDTH 44 0
BBX 42 72 2 -1
BITMAP
000000003800
000000007000
000000006000
00000000C000
000000018000
000000038000
000000070000
0000000E0000
0000000C0000
000000180000
000000000000
000000000000
000000000000
000000000000
000000000000
000007FE0000
00003FFFC000
0001FC01F000
0007C0003800
000F00001C00
001C00000E00
003800000700
007000000380
00E000000180
00C000000180
01C0000000C0
0180000000C0
0180000000C0
0180000000C0
0380000000C0
0380000000C0
038000000000
018000000000
018000000000
01C000000000
00C000000000
00E000000000
007800000000
003C00000000
000F00000000
0007E0000000
0000FC000000
00003F800000
000007F00000
000000FC0000
0000001F0000
000000078000
00000001C000
00000000E000
000000003000
000000003800
000000001800
000000000C00
000000000C00
000000000C00
C00000000C00
C00000000C00
C00000000C00
C00000000C00
C00000001C00
C00000001800
E00000003800
600000003000
700000007000
30000000E000
38000001C000
1C0000078000
0F00000F0000
03C0007C0000
01FC0FF00000
007FFFC00000
0003F8000000
ENDCHAR
STARTCHAR 015B
ENCODING 347
SWIDTH 475 0
DWIDTH 37 0
BBX 32 59 2 -1
BITMAP
0000001C
00000038
00000070
00000060
000000C0
00000180
00000380
00000700
00000E00
00000C00
00000000
00000000
00000000
00000000
00000000
00000000
0000FE00
000FFFC0
003F03F0
00780078
00E0001C
01C0000E
03800006
07000007
06000003
06000003
06000003
0E000003
0C000000
06000000
06000000
07000000
03800000
01C00000
00F00000
003E0000
000FE000
0001FC00
00001F00
00000780
000001E0
00000070
00000030
00000038
00000018
00000018
00000018
00000018
C0000018
C0000038
C0000030
E0000070
60000060
700001E0
380003C0
1E000F00
0FE0FE00
03FFF000
003F0000
ENDCHAR
STARTCHAR 015C
ENCODING 348
SWIDTH 565 0
DWIDTH 44 0
BBX 42 72 2 -1
BITMAP
000000040000
0000000E0000
0000003F0000
000000738000
000000E18000
000001C1C000
00000380E000
000007007000
00000E003000
00001C003800
000000000000
000000000000
000000000000
000000000000
000000000000
000007FE0000
00003FFFC000
0001FC01F000
0007C0003800
000F00001C00
001C00000E00
003800000700
007000000380
00E000000180
00C000000180
01C0000000C0
0180000000C0
0180000000C0
0180000000C0
0380000000C0
0380000000C0
038000000000
018000000000
018000000000
01C000000000
00C000000000
00E000000000
007800000000
003C00000000
000F00000000
0007E0000000
0000FC000000
00003F800000
000007F00000
000000FC0000
0000001F0000
000000078000
00000001C000
00000000E000
000000003000
000000003800
000000001800
000000000C00
000000000C00
000000000C00
C00000000C00
C00000000C00
C00000000C00
C00000000C00
C00000001C00
C00000001800
E00000003800
600000003000
700000007000
30000000E000
38000001C000
1C0000078000
0F00000F0000
03C0007C0000
01FC0FF00000
007FFFC00000
0003F8000000
ENDCHAR
STARTCHAR 015D
ENCODING 349
SWIDTH 475 0
DWIDTH 37 0
BBX 32 59 2 -1
BITMAP
00000600
00000F00
00001F80
00003980
000071C0
0000E0E0
0001C070
00038038
00070038
000E001C
00000000
00000000
00000000
00000000
00000000
00000000
0000FE00
000FFFC0
003F03F0
00780078
00E0001C
01C0000E
03800006
07000007
06000003
06000003
06000003
0E000003
0C000000
06000000
06000000
07000000
03800000
01C00000
00F00000
003E0000
000FE000
0001FC00
00001F00
00000780
000001E0
00000070
00000030
00000038
00000018
00000018
00000018
00000018
C0000018
C0000038
C0000030
E0000070
60000060
700001E0
380003C0
1E000F00
0FE0FE00
03FFF000
003F0000
ENDCHAR
ENDFONT
